<svg width="117" height="114" viewBox="0 0 117 114" fill="none" xmlns="http://www.w3.org/2000/svg">
<path d="M103.772 83.5928H110.939V80.4H103.772V83.5928Z" fill="#EBEBEB"/>
<path d="M107.773 87.6191H114.94V84.4264H107.773V87.6191Z" fill="#EBEBEB"/>
<path d="M46.6621 48.3354H53.8296V45.1427H46.6621V48.3354Z" fill="#EBEBEB"/>
<path d="M50.6626 52.3618H57.8301V49.169H50.6626V52.3618Z" fill="#EBEBEB"/>
<path d="M54.6445 48.3354H61.812V45.1427H54.6445V48.3354Z" fill="#EBEBEB"/>
<path d="M1.98141 87.6162H9.14893V84.4234H1.98141V87.6162Z" fill="#EBEBEB"/>
<path d="M5.9819 6.83838L13.1494 6.83838V3.64561L5.9819 3.64561V6.83838Z" fill="#EBEBEB"/>
<path d="M1.98141 10.8643L9.14893 10.8643V7.67149L1.98141 7.67149V10.8643Z" fill="#EBEBEB"/>
<path d="M103.772 6.83838L110.939 6.83838V3.64561L103.772 3.64561V6.83838Z" fill="#EBEBEB"/>
<path d="M112.769 10.6445H74.1167V56.1022H112.769V10.6445Z" fill="#DBDBDB"/>
<path d="M110.225 13.3291H76.6641V53.4427H110.225V13.3291Z" fill="#EBEBEB"/>
<path d="M91.5263 20.4229H79.6978V35.1997H91.5263V20.4229Z" fill="white"/>
<path d="M86.0374 21.427C86.0374 21.5156 86.0125 21.6022 85.9658 21.6758C85.9191 21.7495 85.8527 21.8069 85.7751 21.8408C85.6974 21.8747 85.612 21.8836 85.5296 21.8663C85.4471 21.849 85.3714 21.8064 85.312 21.7437C85.2525 21.6811 85.2121 21.6012 85.1957 21.5144C85.1793 21.4275 85.1877 21.3374 85.2198 21.2555C85.252 21.1737 85.3065 21.1037 85.3764 21.0545C85.4462 21.0053 85.5284 20.979 85.6125 20.979C85.7252 20.979 85.8333 21.0262 85.913 21.1102C85.9927 21.1942 86.0374 21.3082 86.0374 21.427Z" fill="#A6A6A6"/>
<path d="M81.9502 23.3813C83.1466 23.2843 84.343 23.2786 85.5367 23.2643C86.7303 23.2501 87.9294 23.2843 89.1258 23.3813C87.9294 23.4783 86.7331 23.484 85.5367 23.4983C84.3403 23.5126 83.1466 23.4783 81.9502 23.3813Z" fill="#EBEBEB"/>
<path d="M81.9502 24.5511C83.2461 24.3951 84.5547 24.3951 85.8506 24.5511C85.2033 24.6356 84.5513 24.6747 83.8991 24.6681C83.2477 24.6732 82.5968 24.6341 81.9502 24.5511Z" fill="#EBEBEB"/>
<path d="M81.9502 25.7183C82.7788 25.6352 83.6108 25.5961 84.4431 25.6013C85.2746 25.5947 86.1058 25.6338 86.9334 25.7183C86.1024 25.8096 85.2741 25.8296 84.4431 25.8353C83.6121 25.841 82.7812 25.8096 81.9502 25.7183Z" fill="#EBEBEB"/>
<path d="M81.9502 26.8852C82.9896 26.7939 84.029 26.7711 85.0684 26.7683C86.1078 26.7654 87.1472 26.7939 88.1866 26.8852C87.1472 26.9765 86.1078 26.9994 85.0684 27.0022C84.029 27.0051 82.9896 26.9765 81.9502 26.8852Z" fill="#EBEBEB"/>
<path d="M81.9502 28.0522C82.8515 27.9609 83.7556 27.9409 84.657 27.9352C85.5583 27.9295 86.4624 27.9609 87.3637 28.0522C86.4597 28.1435 85.5556 28.1663 84.657 28.1692C83.7583 28.172 82.8515 28.1435 81.9502 28.0522Z" fill="#EBEBEB"/>
<path d="M81.9502 29.2187C83.106 29.1217 84.2618 29.116 85.4176 29.1017C86.5734 29.0875 87.7291 29.1217 88.8849 29.2187C87.7291 29.3186 86.5734 29.3243 85.4176 29.3386C84.2618 29.3528 83.106 29.3157 81.9502 29.2187Z" fill="#EBEBEB"/>
<path d="M81.9502 30.3887C82.6937 30.3056 83.441 30.2666 84.1887 30.2717C84.9373 30.2651 85.6856 30.3042 86.4299 30.3887C84.9403 30.5447 83.4398 30.5447 81.9502 30.3887Z" fill="#EBEBEB"/>
<path d="M81.9502 31.5556C83.1466 31.4586 84.343 31.4529 85.5367 31.4386C86.7303 31.4244 87.9294 31.4586 89.1258 31.5556C87.9294 31.6526 86.7331 31.6584 85.5367 31.6726C84.3403 31.6869 83.1466 31.6526 81.9502 31.5556Z" fill="#EBEBEB"/>
<path d="M81.9502 32.7226C83.1466 32.6256 84.343 32.6199 85.5367 32.6056C86.7303 32.5914 87.9294 32.6256 89.1258 32.7226C87.9294 32.8196 86.7331 32.8282 85.5367 32.8396C84.3403 32.851 83.1466 32.8253 81.9502 32.7226Z" fill="#EBEBEB"/>
<path d="M107.326 29.6357H93.3296V47.1203H107.326V29.6357Z" fill="white"/>
<path d="M95.0374 30.9079C95.0374 30.9965 95.0125 31.0831 94.9658 31.1568C94.9191 31.2305 94.8527 31.2879 94.7751 31.3218C94.6974 31.3557 94.612 31.3646 94.5296 31.3473C94.4471 31.33 94.3714 31.2873 94.312 31.2247C94.2525 31.162 94.2121 31.0822 94.1957 30.9953C94.1793 30.9084 94.1877 30.8183 94.2198 30.7365C94.252 30.6546 94.3065 30.5847 94.3764 30.5355C94.4462 30.4862 94.5284 30.46 94.6125 30.46C94.7252 30.46 94.8333 30.5072 94.913 30.5912C94.9927 30.6752 95.0374 30.7891 95.0374 30.9079Z" fill="#A6A6A6"/>
<path d="M95.2861 33.9981C95.8003 33.9156 96.3198 33.8756 96.8398 33.8782C97.359 33.8741 97.8777 33.9142 98.3908 33.9981C97.3612 34.154 96.3157 34.154 95.2861 33.9981Z" fill="#EBEBEB"/>
<path d="M95.2861 35.3164C95.9536 35.2339 96.6252 35.1938 97.2973 35.1966C97.9685 35.1924 98.6392 35.2324 99.3057 35.3164C97.9699 35.4724 96.6219 35.4724 95.2861 35.3164Z" fill="#EBEBEB"/>
<path d="M95.2861 36.6348C95.9037 36.5519 96.5259 36.5128 97.1484 36.5178C97.771 36.5112 98.3932 36.5503 99.0106 36.6348C97.7736 36.7908 96.5232 36.7908 95.2861 36.6348Z" fill="#EBEBEB"/>
<path d="M95.2861 37.9615C95.9037 37.8785 96.5259 37.8394 97.1484 37.8445C97.771 37.8378 98.3932 37.8769 99.0106 37.9615C97.7736 38.1174 96.5232 38.1174 95.2861 37.9615Z" fill="#EBEBEB"/>
<path d="M95.2861 39.271C95.8238 39.1879 96.3668 39.1488 96.9102 39.1541C97.4536 39.1473 97.9967 39.1865 98.5343 39.271C97.4567 39.4281 96.3637 39.4281 95.2861 39.271Z" fill="#EBEBEB"/>
<path d="M95.2861 40.5894C95.9735 40.5063 96.665 40.4673 97.3568 40.4724C98.0487 40.4658 98.7403 40.5049 99.4275 40.5894C98.051 40.7454 96.6626 40.7454 95.2861 40.5894Z" fill="#EBEBEB"/>
<path d="M95.2861 41.9075C96.4209 41.7515 97.57 41.7515 98.7048 41.9075C97.57 42.0635 96.4209 42.0635 95.2861 41.9075Z" fill="#EBEBEB"/>
<path d="M95.2861 43.2259C96.7106 43.0699 98.1465 43.0699 99.5709 43.2259C98.1465 43.3819 96.7106 43.3819 95.2861 43.2259Z" fill="#EBEBEB"/>
<path d="M95.2861 44.5437C96.7106 44.3878 98.1465 44.3878 99.5709 44.5437C98.1465 44.6997 96.7106 44.6997 95.2861 44.5437Z" fill="#EBEBEB"/>
<path d="M101.403 33.9981C102.079 33.9155 102.759 33.8755 103.439 33.8782C104.118 33.8741 104.797 33.9141 105.472 33.9981C104.122 34.1534 102.761 34.1534 101.411 33.9981H101.403Z" fill="#EBEBEB"/>
<path d="M101.403 35.3164C101.845 35.2342 102.292 35.1941 102.74 35.1966C103.189 35.1924 103.636 35.2325 104.078 35.3164C103.192 35.4722 102.289 35.4722 101.403 35.3164Z" fill="#EBEBEB"/>
<path d="M101.403 36.6348C102.038 36.5518 102.677 36.5128 103.317 36.5178C103.957 36.5112 104.596 36.5503 105.231 36.6348C103.959 36.7908 102.675 36.7908 101.403 36.6348Z" fill="#EBEBEB"/>
<path d="M101.403 37.9614C102.021 37.8785 102.643 37.8394 103.266 37.8445C103.888 37.8379 104.51 37.877 105.128 37.9614C103.891 38.1174 102.64 38.1174 101.403 37.9614Z" fill="#EBEBEB"/>
<path d="M101.403 39.271C102.079 39.188 102.759 39.1489 103.439 39.154C104.118 39.1475 104.797 39.1865 105.472 39.271C104.122 39.4264 102.761 39.4264 101.411 39.271H101.403Z" fill="#EBEBEB"/>
<path d="M101.403 40.589C101.941 40.5057 102.484 40.4666 103.027 40.472C103.571 40.465 104.114 40.5041 104.651 40.589C103.574 40.7463 102.481 40.7463 101.403 40.589Z" fill="#EBEBEB"/>
<path d="M101.403 41.9075C102.675 41.7515 103.959 41.7515 105.231 41.9075C103.959 42.0635 102.675 42.0635 101.403 41.9075Z" fill="#EBEBEB"/>
<path d="M101.403 43.2259C102.385 43.0699 103.383 43.0699 104.365 43.2259C103.383 43.3819 102.385 43.3819 101.403 43.2259Z" fill="#EBEBEB"/>
<path d="M101.403 44.5438C102.344 44.3878 103.302 44.3878 104.243 44.5438C103.302 44.6997 102.344 44.6997 101.403 44.5438Z" fill="#EBEBEB"/>
<path d="M97.5573 16.3594H90.4385V23.8634H97.5573V16.3594Z" fill="#A6A6A6"/>
<path d="M94.4227 17.1325C94.4227 17.2211 94.3978 17.3077 94.3511 17.3814C94.3044 17.4551 94.238 17.5125 94.1603 17.5464C94.0827 17.5803 93.9972 17.5892 93.9148 17.5719C93.8324 17.5546 93.7567 17.5119 93.6972 17.4493C93.6378 17.3866 93.5973 17.3068 93.5809 17.2199C93.5645 17.133 93.5729 17.043 93.6051 16.9611C93.6373 16.8792 93.6917 16.8093 93.7616 16.7601C93.8315 16.7108 93.9137 16.6846 93.9977 16.6846C94.1104 16.6846 94.2185 16.7318 94.2982 16.8158C94.3779 16.8998 94.4227 17.0137 94.4227 17.1325Z" fill="#EBEBEB"/>
<path d="M110.195 13.3291H109.234V53.4883H110.195V13.3291Z" fill="#C7C7C7"/>
<path d="M33.189 24.3457C36.9402 18.8083 35.7226 11.1138 30.4695 7.15967C25.2163 3.2055 17.9169 4.48896 14.1657 10.0264C10.4145 15.5638 11.6321 23.2582 16.8852 27.2124C22.1384 31.1666 29.4378 29.8831 33.189 24.3457Z" fill="#EBEBEB"/>
<path d="M33.1313 24.5093C36.8267 19.3155 35.8282 11.9472 30.9009 8.05186C25.9737 4.15648 18.9837 5.20907 15.2883 10.4029C11.5929 15.5967 12.5915 22.965 17.5187 26.8603C22.4459 30.7557 29.4359 29.7031 33.1313 24.5093Z" fill="#DBDBDB"/>
<path d="M30.2691 26.4314C34.9697 22.9035 36.0673 16.0268 32.7205 11.0718C29.3738 6.11685 22.8501 4.95991 18.1495 8.48776C13.4488 12.0156 12.3513 18.8923 15.698 23.8473C19.0448 28.8023 25.5685 29.9592 30.2691 26.4314Z" fill="white"/>
<path opacity="0.5" d="M34.4222 15.1357C29.6637 18.1744 21.8438 23.159 17.4751 25.8924C16.2348 24.7913 15.2544 23.4013 14.6113 21.8322L29.0736 7.71729C30.425 8.46692 31.6043 9.51959 32.5283 10.8012C33.4524 12.0829 34.0988 13.5624 34.4222 15.1357Z" fill="#EBEBEB"/>
<path opacity="0.5" d="M34.6414 17.8462C34.6052 19.0667 34.3756 20.2721 33.962 21.4127L20.9289 27.9095C20.3615 27.7103 19.811 27.4612 19.2832 27.1648C23.2215 24.7767 30.4134 20.4141 34.6414 17.8462Z" fill="#EBEBEB"/>
<path d="M24.3124 7.24609H24.1094V8.91523H24.3124V7.24609Z" fill="#C7C7C7"/>
<path d="M19.4546 8.55707L19.2788 8.66406L20.0705 10.1096L20.2463 10.0026L19.4546 8.55707Z" fill="#C7C7C7"/>
<path d="M15.9516 12.1517L15.8501 12.3379L17.2277 13.1725L17.3292 12.9863L15.9516 12.1517Z" fill="#C7C7C7"/>
<path d="M16.1054 17.355H14.522V17.569H16.1054V17.355Z" fill="#C7C7C7"/>
<path d="M17.1378 21.6422L15.7666 22.4771L15.8681 22.6624L17.2393 21.8275L17.1378 21.6422Z" fill="#C7C7C7"/>
<path d="M20.0686 24.812L19.2773 26.2578L19.4532 26.3647L20.2444 24.9189L20.0686 24.812Z" fill="#C7C7C7"/>
<path d="M24.3124 26.0063H24.1094V27.6755H24.3124V26.0063Z" fill="#C7C7C7"/>
<path d="M28.3511 24.8051L28.1753 24.9121L28.967 26.3576L29.1428 26.2506L28.3511 24.8051Z" fill="#C7C7C7"/>
<path d="M31.2822 21.6423L31.1807 21.8276L32.5518 22.6625L32.6534 22.4772L31.2822 21.6423Z" fill="#C7C7C7"/>
<path d="M33.8994 17.355H32.3159V17.569H33.8994V17.355Z" fill="#C7C7C7"/>
<path d="M32.5512 12.2606L31.1802 13.0957L31.2817 13.281L32.6528 12.4459L32.5512 12.2606Z" fill="#C7C7C7"/>
<path d="M28.9687 8.55941L28.1777 10.0054L28.3536 10.1123L29.1446 8.66631L28.9687 8.55941Z" fill="#C7C7C7"/>
<path d="M24.3635 8.00236L24.7073 18.2027L23.7139 18.1913L24.0928 7.99951L24.3635 8.00236Z" fill="#C7C7C7"/>
<path d="M30.3919 13.903L23.8794 18.2827L23.4058 17.3668L30.262 13.6548L30.3919 13.903Z" fill="#A6A6A6"/>
<path d="M24.5478 17.4612C24.5478 17.5317 24.5279 17.6007 24.4908 17.6593C24.4536 17.718 24.4007 17.7637 24.3389 17.7907C24.2771 17.8177 24.2091 17.8247 24.1434 17.811C24.0778 17.7972 24.0175 17.7632 23.9702 17.7133C23.9229 17.6635 23.8906 17.5999 23.8776 17.5307C23.8645 17.4616 23.8712 17.3898 23.8968 17.3247C23.9225 17.2595 23.9658 17.2038 24.0215 17.1646C24.0771 17.1254 24.1425 17.1045 24.2094 17.1045C24.254 17.1041 24.2981 17.1131 24.3393 17.1309C24.3806 17.1487 24.418 17.1749 24.4495 17.2081C24.481 17.2413 24.5059 17.2808 24.5228 17.3242C24.5396 17.3677 24.5481 17.4142 24.5478 17.4612Z" fill="#C7C7C7"/>
<path d="M116.919 113.857L102.305 113.928L87.6911 113.951L58.4607 114L29.2304 113.954L14.6165 113.928L0 113.857L14.6165 113.789L29.2304 113.763L58.4607 113.714L87.6911 113.763L102.305 113.789L116.919 113.857Z" fill="#263238"/>
<path d="M103.789 30.6086C103.769 29.7352 103.8 28.8614 103.883 27.9922C103.955 27.1225 104.077 26.2583 104.249 25.4043C104.269 26.2777 104.237 27.1515 104.154 28.0207C104.082 28.8904 103.96 29.7546 103.789 30.6086Z" fill="#263238"/>
<path d="M102.327 30.9079C101.897 30.1612 101.511 29.3875 101.171 28.591C100.819 27.8007 100.514 26.9878 100.259 26.1572C101.111 27.6561 101.805 29.2492 102.327 30.9079Z" fill="#263238"/>
<path d="M101.206 31.938C100.48 31.5181 99.7786 31.0522 99.1058 30.5428C98.4253 30.0433 97.7753 29.4992 97.1597 28.9136C98.6088 29.7638 99.9657 30.7779 101.206 31.938Z" fill="#263238"/>
<path d="M100.722 33.4189C99.0642 33.448 97.4086 33.2854 95.7847 32.9338C96.6123 32.9128 97.4404 32.9461 98.2641 33.0337C99.09 33.1095 99.9107 33.2381 100.722 33.4189Z" fill="#263238"/>
<path d="M105.97 35.3223C107.424 36.1723 108.785 37.1864 110.03 38.3467C109.303 37.9289 108.601 37.4629 107.93 36.9515C107.246 36.4511 106.591 35.907 105.97 35.3223Z" fill="#263238"/>
<path d="M106.455 33.8412C108.113 33.8122 109.77 33.9749 111.394 34.3262C110.566 34.3473 109.737 34.314 108.912 34.2264C108.086 34.1506 107.266 34.0219 106.455 33.8412Z" fill="#263238"/>
<path d="M106.17 32.3005C106.879 31.8473 107.613 31.4405 108.368 31.0821C109.118 30.7109 109.889 30.3898 110.677 30.1206C109.97 30.5741 109.236 30.9819 108.482 31.3418C107.731 31.7116 106.959 32.0318 106.17 32.3005Z" fill="#263238"/>
<path d="M105.193 31.1137C105.592 30.3475 106.035 29.608 106.52 28.8996C106.992 28.1816 107.507 27.4964 108.063 26.8481C107.257 28.3806 106.295 29.8157 105.193 31.128V31.1137Z" fill="#263238"/>
<path d="M43.5731 95.5366C43.2727 95.9389 17.9996 97.1344 16.7978 96.7692C16.7394 96.7512 16.6831 96.7263 16.63 96.695C15.1412 95.9589 8.75327 90.8745 7.73553 88.7317C6.9235 87.0197 11.7388 77.6497 13.4197 76.0434C14.5376 74.9791 16.611 74.5597 16.611 74.5597C16.611 74.5597 22.463 56.7555 26.0712 53.0292C26.9779 52.0933 42.6501 51.7281 45.4489 53.0748C46.648 53.6455 49.5632 56.784 49.6444 57.3547C49.7121 58.1793 43.8682 95.1286 43.5731 95.5366Z" fill="#37474F"/>
<path d="M43.7469 95.5371C43.4464 95.9394 18.176 97.1349 16.9715 96.7697C16.9135 96.7507 16.8572 96.7259 16.8037 96.6955C19.2398 89.7936 30.6082 57.4094 30.933 57.2011C31.2578 56.9928 46.2317 57.087 49.8181 57.3609C49.8939 58.1798 44.05 95.1291 43.7469 95.5371Z" fill="#263238"/>
<path d="M34.4652 54.3418C34.2134 54.0907 34.0456 50.4728 34.5112 49.7509C35.0309 48.9435 41.0399 49.3429 41.3945 50.0363C41.7491 50.7296 41.9196 54.3418 41.7382 54.473C41.5569 54.6043 40.5554 54.727 40.42 54.4959C40.2847 54.2647 40.2928 51.2746 40.1873 51.1148C40.0817 50.955 35.8727 50.6697 35.7265 50.8979C35.5803 51.1262 35.9349 54.1506 35.7671 54.2819C35.5993 54.4131 34.7115 54.5872 34.4652 54.3418Z" fill="#37474F"/>
<path d="M22.0551 70.7808L20.1997 69.8643L19.1992 72.1146L21.0546 73.0311L22.0551 70.7808Z" fill="#DBDBDB"/>
<path d="M21.9654 72.5913L18.9409 71.0972L17.7992 73.6653L20.8237 75.1594L21.9654 72.5913Z" fill="#C7C7C7"/>
<path d="M21.4887 79.3678L16.2619 91.1231L9.07275 87.568L14.2968 75.8156C15.3335 73.4902 17.5179 72.3917 19.7103 73.4702C21.9028 74.5487 22.5227 77.051 21.4887 79.3678Z" fill="#FFC727"/>
<path opacity="0.1" d="M21.4887 79.3678L16.2619 91.1231L9.07275 87.568L14.2968 75.8156C15.3335 73.4902 17.5179 72.3917 19.7103 73.4702C21.9028 74.5487 22.5227 77.051 21.4887 79.3678Z" fill="black"/>
<path d="M18.9419 74.1576C18.9241 74.1964 18.8992 74.2311 18.8687 74.2598C18.8382 74.2884 18.8027 74.3105 18.7641 74.3247C18.7255 74.3388 18.6847 74.3449 18.6439 74.3424C18.6031 74.3399 18.5632 74.329 18.5264 74.3103C18.4896 74.2915 18.4567 74.2654 18.4295 74.2332C18.4023 74.2011 18.3814 74.1636 18.3679 74.1229C18.3545 74.0822 18.3488 74.0392 18.3511 73.9962C18.3534 73.9532 18.3638 73.9111 18.3816 73.8723C18.4175 73.794 18.4814 73.7339 18.5593 73.7053C18.6372 73.6767 18.7228 73.6818 18.7971 73.7197C18.8714 73.7575 18.9284 73.8249 18.9555 73.907C18.9827 73.9892 18.9778 74.0793 18.9419 74.1576Z" fill="white"/>
<path d="M21.3372 78.5773C21.3111 78.6355 21.2694 78.6841 21.2171 78.7173C21.1649 78.7504 21.1045 78.7665 21.0436 78.7635C20.9827 78.7605 20.9241 78.7385 20.875 78.7004C20.8259 78.6622 20.7887 78.6096 20.7679 78.5492C20.7472 78.4888 20.7439 78.4233 20.7584 78.3609C20.773 78.2985 20.8048 78.242 20.8497 78.1986C20.8947 78.1552 20.9509 78.1269 21.0111 78.1171C21.0714 78.1073 21.133 78.1165 21.1883 78.1436C21.2251 78.1617 21.2583 78.1873 21.2857 78.2189C21.3132 78.2505 21.3344 78.2876 21.3482 78.3279C21.3621 78.3682 21.3682 78.411 21.3663 78.4538C21.3644 78.4966 21.3545 78.5386 21.3372 78.5773Z" fill="white"/>
<path d="M18.024 77.3019C18.0066 77.3405 17.9821 77.3752 17.952 77.4038C17.9219 77.4324 17.8868 77.4546 17.8486 77.4689C17.8104 77.4832 17.7698 77.4894 17.7294 77.4872C17.6889 77.485 17.6492 77.4744 17.6126 77.456C17.5759 77.4373 17.5432 77.4111 17.5162 77.379C17.4891 77.347 17.4684 77.3096 17.4551 77.2691C17.4417 77.2285 17.4361 77.1856 17.4385 77.1428C17.4409 77.1 17.4513 77.0581 17.4691 77.0195C17.4869 76.9809 17.5117 76.9463 17.5421 76.9179C17.5725 76.8894 17.608 76.8675 17.6465 76.8534C17.6849 76.8394 17.7256 76.8335 17.7662 76.836C17.8069 76.8386 17.8466 76.8495 17.8832 76.8682C17.9558 76.9069 18.0111 76.9739 18.0374 77.0549C18.0637 77.1359 18.0589 77.2246 18.024 77.3019Z" fill="white"/>
<path d="M17.0468 80.2609C17.03 80.3 17.0058 80.3351 16.9759 80.3643C16.946 80.3934 16.9108 80.416 16.8724 80.4306C16.8341 80.4452 16.7934 80.4516 16.7527 80.4494C16.712 80.4472 16.6721 80.4365 16.6354 80.4178C16.5803 80.3904 16.5341 80.3463 16.5026 80.2913C16.4712 80.2362 16.456 80.1726 16.4588 80.1084C16.4617 80.0442 16.4825 79.9823 16.5187 79.9306C16.5549 79.8789 16.6048 79.8396 16.6621 79.8178C16.7194 79.7959 16.7816 79.7924 16.8408 79.8078C16.9 79.8231 16.9535 79.8566 16.9947 79.904C17.0358 79.9514 17.0628 80.0106 17.072 80.0741C17.0813 80.1376 17.0725 80.2026 17.0468 80.2609Z" fill="white"/>
<path d="M12.8409 81.7786C12.824 81.8177 12.7999 81.8529 12.77 81.882C12.74 81.9112 12.7048 81.9337 12.6665 81.9483C12.6282 81.963 12.5875 81.9694 12.5468 81.9671C12.506 81.9649 12.4662 81.9542 12.4295 81.9355C12.3928 81.9168 12.3601 81.8906 12.3331 81.8585C12.306 81.8265 12.2853 81.7891 12.272 81.7485C12.2586 81.708 12.253 81.6651 12.2554 81.6223C12.2578 81.5795 12.2682 81.5376 12.286 81.499C12.3038 81.4604 12.3286 81.4258 12.359 81.3974C12.3894 81.3689 12.4249 81.347 12.4634 81.3329C12.5018 81.3189 12.5425 81.313 12.5831 81.3155C12.6238 81.3181 12.6635 81.329 12.7001 81.3477C12.7364 81.366 12.7689 81.3917 12.7957 81.4234C12.8225 81.455 12.8431 81.492 12.8562 81.5321C12.8693 81.5722 12.8746 81.6146 12.872 81.6569C12.8694 81.6993 12.8588 81.7406 12.8409 81.7786Z" fill="white"/>
<path d="M13.7285 79.0165C13.7107 79.0553 13.6859 79.09 13.6554 79.1187C13.6249 79.1473 13.5893 79.1694 13.5507 79.1836C13.5122 79.1977 13.4713 79.2038 13.4305 79.2013C13.3897 79.1988 13.3498 79.1879 13.313 79.1692C13.2762 79.1504 13.2433 79.1242 13.2161 79.0921C13.1889 79.0599 13.168 79.0225 13.1545 78.9818C13.1411 78.9411 13.1354 78.8981 13.1377 78.8551C13.1401 78.8121 13.1504 78.77 13.1682 78.7312C13.2041 78.6529 13.268 78.5928 13.3459 78.5642C13.4239 78.5355 13.5094 78.5407 13.5837 78.5786C13.658 78.6164 13.715 78.6838 13.7421 78.7659C13.7693 78.8481 13.7644 78.9382 13.7285 79.0165Z" fill="white"/>
<path d="M15.0356 76.269C15.0178 76.3077 14.993 76.3425 14.9625 76.3711C14.932 76.3998 14.8964 76.4218 14.8579 76.436C14.8193 76.4502 14.7784 76.4562 14.7376 76.4537C14.6968 76.4513 14.6569 76.4404 14.6201 76.4216C14.5833 76.4029 14.5504 76.3767 14.5232 76.3445C14.496 76.3124 14.4751 76.2749 14.4617 76.2342C14.4482 76.1936 14.4425 76.1505 14.4448 76.1075C14.4472 76.0645 14.4575 76.0224 14.4753 75.9836C14.5112 75.9053 14.5751 75.8452 14.6531 75.8166C14.731 75.788 14.8165 75.7932 14.8908 75.831C14.9651 75.8688 15.0221 75.9362 15.0493 76.0184C15.0764 76.1005 15.0715 76.1906 15.0356 76.269Z" fill="white"/>
<path d="M17.0066 75.1678C16.981 75.2263 16.9395 75.2754 16.8873 75.309C16.8351 75.3425 16.7747 75.359 16.7136 75.3563C16.6526 75.3536 16.5937 75.3319 16.5443 75.2938C16.495 75.2558 16.4575 75.2032 16.4366 75.1426C16.4157 75.0821 16.4123 75.0164 16.4269 74.9538C16.4414 74.8913 16.4733 74.8347 16.5184 74.7912C16.5635 74.7478 16.6198 74.7194 16.6803 74.7097C16.7407 74.7001 16.8025 74.7095 16.8578 74.7369C16.9315 74.7735 16.9886 74.8393 17.0165 74.92C17.0444 75.0007 17.0408 75.0898 17.0066 75.1678Z" fill="white"/>
<path d="M15.9861 78.2351C15.9601 78.2932 15.9183 78.3419 15.8661 78.375C15.8138 78.4081 15.7535 78.4242 15.6926 78.4212C15.6317 78.4182 15.573 78.3962 15.5239 78.3581C15.4748 78.32 15.4376 78.2674 15.4168 78.2069C15.3961 78.1465 15.3928 78.081 15.4074 78.0186C15.4219 77.9562 15.4537 77.8997 15.4987 77.8563C15.5436 77.8129 15.5998 77.7846 15.66 77.7748C15.7203 77.765 15.7819 77.7743 15.8372 77.8014C15.8741 77.8195 15.9072 77.845 15.9346 77.8767C15.9621 77.9083 15.9833 77.9453 15.9972 77.9856C16.011 78.0259 16.0171 78.0687 16.0152 78.1115C16.0133 78.1543 16.0034 78.1963 15.9861 78.2351Z" fill="white"/>
<path d="M20.1438 76.4035C20.1178 76.4616 20.076 76.5103 20.0238 76.5434C19.9715 76.5766 19.9112 76.5926 19.8503 76.5896C19.7894 76.5866 19.7307 76.5647 19.6816 76.5265C19.6326 76.4884 19.5953 76.4358 19.5746 76.3754C19.5538 76.315 19.5505 76.2494 19.5651 76.187C19.5796 76.1246 19.6114 76.0682 19.6564 76.0248C19.7014 75.9814 19.7575 75.953 19.8178 75.9432C19.878 75.9335 19.9397 75.9427 19.9949 75.9698C20.0318 75.9879 20.0649 76.0135 20.0923 76.0451C20.1198 76.0767 20.1411 76.1137 20.1549 76.154C20.1687 76.1943 20.1749 76.2371 20.173 76.28C20.1711 76.3228 20.1611 76.3648 20.1438 76.4035Z" fill="white"/>
<path d="M19.2122 79.4392C19.1861 79.4973 19.1444 79.546 19.0921 79.5791C19.0399 79.6122 18.9795 79.6283 18.9186 79.6253C18.8577 79.6223 18.7991 79.6003 18.75 79.5622C18.7009 79.5241 18.6637 79.4715 18.6429 79.411C18.6222 79.3506 18.6189 79.2851 18.6334 79.2227C18.648 79.1603 18.6798 79.1038 18.7247 79.0604C18.7697 79.017 18.8259 78.9887 18.8861 78.9789C18.9464 78.9691 19.008 78.9784 19.0633 79.0055C19.1001 79.0236 19.1333 79.0491 19.1607 79.0808C19.1882 79.1124 19.2094 79.1494 19.2232 79.1897C19.2371 79.23 19.2432 79.2728 19.2413 79.3156C19.2394 79.3584 19.2295 79.4004 19.2122 79.4392Z" fill="white"/>
<path d="M14.9143 81.0456C14.8883 81.1037 14.8465 81.1524 14.7943 81.1855C14.7421 81.2187 14.6817 81.2347 14.6208 81.2317C14.5599 81.2287 14.5012 81.2068 14.4521 81.1686C14.4031 81.1305 14.3658 81.0779 14.3451 81.0175C14.3243 80.9571 14.321 80.8915 14.3356 80.8291C14.3502 80.7667 14.3819 80.7103 14.4269 80.6669C14.4719 80.6235 14.528 80.5951 14.5883 80.5853C14.6485 80.5756 14.7102 80.5848 14.7654 80.6119C14.8023 80.63 14.8354 80.6556 14.8629 80.6872C14.8903 80.7188 14.9116 80.7558 14.9254 80.7961C14.9392 80.8364 14.9454 80.8792 14.9435 80.922C14.9416 80.9649 14.9317 81.0068 14.9143 81.0456Z" fill="white"/>
<path d="M16.8953 84.8801C16.8692 84.9382 16.8275 84.9869 16.7752 85.02C16.723 85.0531 16.6626 85.0692 16.6017 85.0662C16.5409 85.0632 16.4822 85.0412 16.4331 85.0031C16.384 84.965 16.3468 84.9124 16.326 84.852C16.3053 84.7915 16.302 84.726 16.3165 84.6636C16.3311 84.6012 16.3629 84.5447 16.4078 84.5013C16.4528 84.458 16.509 84.4296 16.5692 84.4198C16.6295 84.41 16.6911 84.4193 16.7464 84.4464C16.7832 84.4645 16.8164 84.4901 16.8438 84.5217C16.8713 84.5533 16.8925 84.5903 16.9064 84.6306C16.9202 84.6709 16.9263 84.7137 16.9244 84.7565C16.9225 84.7993 16.9126 84.8413 16.8953 84.8801Z" fill="white"/>
<path d="M15.864 87.0803C15.838 87.1384 15.7962 87.1871 15.744 87.2202C15.6918 87.2533 15.6314 87.2694 15.5705 87.2664C15.5096 87.2634 15.4509 87.2414 15.4018 87.2033C15.3528 87.1652 15.3155 87.1126 15.2948 87.0522C15.274 86.9917 15.2707 86.9262 15.2853 86.8638C15.2999 86.8014 15.3316 86.7449 15.3766 86.7015C15.4216 86.6582 15.4777 86.6298 15.538 86.62C15.5982 86.6102 15.6599 86.6195 15.7151 86.6466C15.752 86.6647 15.7851 86.6903 15.8126 86.7219C15.84 86.7535 15.8613 86.7905 15.8751 86.8308C15.8889 86.8711 15.8951 86.9139 15.8932 86.9567C15.8913 86.9995 15.8814 87.0415 15.864 87.0803Z" fill="white"/>
<path d="M14.0209 83.525C14.0038 83.5639 13.9795 83.5988 13.9495 83.6277C13.9195 83.6566 13.8844 83.679 13.8462 83.6936C13.8079 83.7082 13.7674 83.7147 13.7267 83.7127C13.6861 83.7107 13.6463 83.7002 13.6095 83.6819C13.5544 83.6545 13.5082 83.6105 13.4768 83.5554C13.4453 83.5004 13.4301 83.4367 13.433 83.3725C13.4358 83.3084 13.4566 83.2465 13.4928 83.1948C13.529 83.143 13.5789 83.1038 13.6362 83.0819C13.6935 83.06 13.7557 83.0566 13.8149 83.0719C13.8741 83.0873 13.9276 83.1208 13.9688 83.1682C14.01 83.2156 14.0369 83.2747 14.0462 83.3383C14.0554 83.4018 14.0467 83.4668 14.0209 83.525Z" fill="white"/>
<path d="M11.1162 86.3124C11.0984 86.3512 11.0736 86.3859 11.0431 86.4146C11.0126 86.4432 10.977 86.4653 10.9384 86.4795C10.8998 86.4936 10.859 86.4996 10.8182 86.4972C10.7774 86.4947 10.7375 86.4838 10.7007 86.4651C10.6639 86.4463 10.631 86.4201 10.6038 86.388C10.5766 86.3558 10.5557 86.3184 10.5422 86.2777C10.5288 86.237 10.5231 86.194 10.5254 86.151C10.5278 86.108 10.5381 86.0659 10.5559 86.0271C10.5918 85.9488 10.6557 85.8887 10.7336 85.8601C10.8116 85.8314 10.8971 85.8366 10.9714 85.8744C11.0457 85.9123 11.1027 85.9797 11.1298 86.0618C11.157 86.144 11.1521 86.2341 11.1162 86.3124Z" fill="white"/>
<path d="M16.0618 82.9118C16.0357 82.9699 15.994 83.0186 15.9418 83.0517C15.8895 83.0849 15.8291 83.1009 15.7682 83.0979C15.7074 83.0949 15.6487 83.073 15.5996 83.0348C15.5505 82.9967 15.5133 82.9441 15.4925 82.8837C15.4718 82.8233 15.4685 82.7577 15.4831 82.6953C15.4976 82.6329 15.5294 82.5765 15.5744 82.5331C15.6193 82.4897 15.6755 82.4613 15.7357 82.4515C15.796 82.4418 15.8576 82.451 15.9129 82.4781C15.9498 82.4962 15.9829 82.5218 16.0103 82.5534C16.0378 82.585 16.059 82.622 16.0729 82.6624C16.0867 82.7027 16.0928 82.7454 16.0909 82.7883C16.089 82.8311 16.0791 82.8731 16.0618 82.9118Z" fill="white"/>
<path d="M15.03 85.3254C15.004 85.3835 14.9623 85.4322 14.91 85.4653C14.8578 85.4984 14.7974 85.5145 14.7365 85.5115C14.6756 85.5085 14.6169 85.4865 14.5679 85.4484C14.5188 85.4103 14.4815 85.3577 14.4608 85.2973C14.4401 85.2368 14.4368 85.1713 14.4513 85.1089C14.4659 85.0465 14.4976 84.99 14.5426 84.9467C14.5876 84.9033 14.6437 84.8749 14.704 84.8651C14.7642 84.8553 14.8259 84.8646 14.8812 84.8917C14.918 84.9098 14.9511 84.9354 14.9786 84.967C15.006 84.9986 15.0273 85.0356 15.0411 85.0759C15.0549 85.1162 15.0611 85.159 15.0592 85.2018C15.0573 85.2446 15.0474 85.2866 15.03 85.3254Z" fill="white"/>
<path d="M13.967 87.719C13.941 87.7771 13.8993 87.8258 13.847 87.8589C13.7948 87.892 13.7344 87.9081 13.6735 87.9051C13.6126 87.9021 13.5539 87.8801 13.5049 87.842C13.4558 87.8039 13.4185 87.7513 13.3978 87.6908C13.3771 87.6304 13.3738 87.5649 13.3883 87.5025C13.4029 87.4401 13.4347 87.3836 13.4796 87.3402C13.5246 87.2968 13.5807 87.2685 13.641 87.2587C13.7012 87.2489 13.7629 87.2581 13.8182 87.2853C13.855 87.3033 13.8881 87.3289 13.9156 87.3605C13.943 87.3922 13.9643 87.4292 13.9781 87.4695C13.992 87.5098 13.9981 87.5526 13.9962 87.5954C13.9943 87.6382 13.9844 87.6802 13.967 87.719Z" fill="white"/>
<path d="M14.9002 89.5308C14.865 89.6087 14.8021 89.6689 14.7251 89.6983C14.648 89.7277 14.5632 89.7239 14.4888 89.6877C14.452 89.669 14.4191 89.6428 14.3919 89.6106C14.3647 89.5785 14.3438 89.541 14.3303 89.5004C14.3169 89.4597 14.3112 89.4166 14.3135 89.3736C14.3158 89.3306 14.3262 89.2885 14.344 89.2498C14.3617 89.211 14.3866 89.1763 14.4171 89.1476C14.4476 89.1189 14.4831 89.0969 14.5217 89.0827C14.5603 89.0685 14.6012 89.0625 14.6419 89.065C14.6827 89.0675 14.7227 89.0784 14.7595 89.0971C14.832 89.1357 14.8873 89.2027 14.9136 89.2837C14.9399 89.3648 14.9351 89.4534 14.9002 89.5308Z" fill="white"/>
<path d="M12.083 84.0444C12.0471 84.1227 11.9831 84.1828 11.9052 84.2114C11.8273 84.24 11.7418 84.2348 11.6675 84.197C11.5932 84.1592 11.5362 84.0918 11.509 84.0096C11.4819 83.9275 11.4868 83.8374 11.5227 83.759C11.5404 83.7203 11.5653 83.6855 11.5958 83.6569C11.6263 83.6282 11.6618 83.6062 11.7004 83.592C11.739 83.5778 11.7799 83.5718 11.8207 83.5743C11.8614 83.5767 11.9014 83.5876 11.9382 83.6064C11.975 83.6251 12.0079 83.6513 12.0351 83.6835C12.0623 83.7156 12.0832 83.7531 12.0966 83.7937C12.1101 83.8344 12.1158 83.8775 12.1134 83.9205C12.1111 83.9635 12.1008 84.0056 12.083 84.0444Z" fill="white"/>
<path d="M13.011 85.799C12.985 85.8571 12.9432 85.9058 12.891 85.939C12.8387 85.9721 12.7784 85.9882 12.7175 85.9851C12.6566 85.9821 12.5979 85.9602 12.5488 85.922C12.4997 85.8839 12.4625 85.8313 12.4418 85.7709C12.421 85.7105 12.4177 85.6449 12.4323 85.5825C12.4468 85.5201 12.4786 85.4637 12.5236 85.4203C12.5685 85.3769 12.6247 85.3485 12.6849 85.3388C12.7452 85.329 12.8068 85.3382 12.8621 85.3653C12.899 85.3834 12.9321 85.409 12.9595 85.4406C12.987 85.4722 13.0082 85.5093 13.0221 85.5496C13.0359 85.5899 13.042 85.6326 13.0401 85.6755C13.0382 85.7183 13.0283 85.7603 13.011 85.799Z" fill="white"/>
<path d="M16.7248 89.0827C16.6988 89.1408 16.6571 89.1895 16.6048 89.2227C16.5526 89.2558 16.4922 89.2718 16.4313 89.2688C16.3704 89.2658 16.3118 89.2439 16.2627 89.2057C16.2136 89.1676 16.1764 89.115 16.1556 89.0546C16.1349 88.9942 16.1316 88.9286 16.1461 88.8662C16.1607 88.8038 16.1925 88.7474 16.2374 88.704C16.2824 88.6606 16.3386 88.6322 16.3988 88.6224C16.4591 88.6127 16.5207 88.6219 16.576 88.649C16.6499 88.6861 16.707 88.7525 16.7349 88.8336C16.7628 88.9148 16.7591 89.0043 16.7248 89.0827Z" fill="white"/>
<path d="M12.0422 88.1472C12.0162 88.2053 11.9745 88.254 11.9222 88.2871C11.87 88.3202 11.8096 88.3363 11.7487 88.3333C11.6878 88.3303 11.6291 88.3083 11.5801 88.2702C11.531 88.2321 11.4937 88.1795 11.473 88.1191C11.4523 88.0586 11.449 87.9931 11.4635 87.9307C11.4781 87.8683 11.5099 87.8118 11.5548 87.7684C11.5998 87.7251 11.6559 87.6967 11.7162 87.6869C11.7764 87.6771 11.8381 87.6864 11.8934 87.7135C11.9302 87.7316 11.9633 87.7571 11.9908 87.7888C12.0182 87.8204 12.0395 87.8574 12.0533 87.8977C12.0672 87.938 12.0733 87.9808 12.0714 88.0236C12.0695 88.0664 12.0596 88.1084 12.0422 88.1472Z" fill="white"/>
<path d="M18.8606 84.3952C18.8346 84.4533 18.7928 84.502 18.7406 84.5352C18.6883 84.5683 18.628 84.5843 18.5671 84.5813C18.5062 84.5783 18.4475 84.5564 18.3984 84.5182C18.3494 84.4801 18.3121 84.4275 18.2914 84.3671C18.2706 84.3067 18.2673 84.2411 18.2819 84.1787C18.2964 84.1163 18.3282 84.0599 18.3732 84.0165C18.4181 83.9731 18.4743 83.9447 18.5346 83.9349C18.5948 83.9252 18.6564 83.9344 18.7117 83.9615C18.7486 83.9796 18.7817 84.0052 18.8091 84.0368C18.8366 84.0684 18.8578 84.1054 18.8717 84.1457C18.8855 84.186 18.8917 84.2288 18.8898 84.2716C18.8879 84.3145 18.8779 84.3565 18.8606 84.3952Z" fill="white"/>
<path d="M17.8318 86.7116C17.8058 86.7697 17.764 86.8184 17.7118 86.8516C17.6595 86.8847 17.5992 86.9007 17.5383 86.8977C17.4774 86.8947 17.4187 86.8728 17.3696 86.8347C17.3206 86.7965 17.2833 86.7439 17.2626 86.6835C17.2418 86.6231 17.2385 86.5575 17.2531 86.4951C17.2676 86.4327 17.2994 86.3763 17.3444 86.3329C17.3893 86.2895 17.4455 86.2611 17.5057 86.2513C17.566 86.2416 17.6276 86.2508 17.6829 86.2779C17.7198 86.296 17.7529 86.3216 17.7803 86.3532C17.8078 86.3848 17.829 86.4219 17.8429 86.4622C17.8567 86.5025 17.8628 86.5452 17.8609 86.5881C17.859 86.6309 17.8491 86.6729 17.8318 86.7116Z" fill="white"/>
<path d="M18.0295 82.489C18.0035 82.5471 17.9618 82.5958 17.9095 82.6289C17.8573 82.662 17.7969 82.6781 17.736 82.6751C17.6751 82.6721 17.6164 82.6501 17.5674 82.612C17.5183 82.5739 17.481 82.5213 17.4603 82.4608C17.4396 82.4004 17.4363 82.3349 17.4508 82.2725C17.4654 82.2101 17.4972 82.1536 17.5421 82.1102C17.5871 82.0669 17.6432 82.0385 17.7035 82.0287C17.7637 82.0189 17.8254 82.0282 17.8807 82.0553C17.9175 82.0734 17.9506 82.0989 17.9781 82.1306C18.0055 82.1622 18.0268 82.1992 18.0406 82.2395C18.0545 82.2798 18.0606 82.3226 18.0587 82.3654C18.0568 82.4082 18.0469 82.4502 18.0295 82.489Z" fill="white"/>
<path d="M20.2004 81.7673C20.1744 81.8254 20.1327 81.8741 20.0804 81.9072C20.0282 81.9403 19.9678 81.9564 19.9069 81.9534C19.846 81.9504 19.7873 81.9284 19.7383 81.8903C19.6892 81.8522 19.6519 81.7996 19.6312 81.7392C19.6105 81.6787 19.6072 81.6132 19.6217 81.5508C19.6363 81.4884 19.6681 81.4319 19.713 81.3886C19.758 81.3452 19.8141 81.3168 19.8744 81.307C19.9346 81.2972 19.9963 81.3065 20.0516 81.3336C20.0884 81.3517 20.1215 81.3773 20.149 81.4089C20.1764 81.4405 20.1977 81.4775 20.2115 81.5178C20.2254 81.5581 20.2315 81.6009 20.2296 81.6437C20.2277 81.6865 20.2178 81.7285 20.2004 81.7673Z" fill="white"/>
<path d="M8.23089 87.7363C8.83721 90.8748 15.4525 94.2588 15.9046 94.2445C16.3566 94.2302 20.747 82.7745 20.747 82.7745C20.747 82.7745 15.3957 80.9199 12.9867 77.6216C12.9867 77.6216 8.04142 86.7519 8.23089 87.7363Z" fill="#455A64"/>
<path d="M59.297 113.743H33.6937C32.1346 107.466 30.7027 101.928 29.7905 98.4301C29.2167 96.2302 28.8486 94.835 28.7782 94.5725C28.7744 94.5571 28.7699 94.5418 28.7646 94.5269H55.3911L56.2031 98.4615C56.5253 100.054 56.934 102.062 57.405 104.359C57.4428 104.559 57.4862 104.761 57.5268 104.973C58.0627 107.603 58.6663 110.585 59.297 113.743Z" fill="#455A64"/>
<path d="M37.5754 113.743H37.0936C35.7835 108.655 34.5051 103.557 33.2581 98.4501L33.1553 98.0193C33.1309 97.9023 33.296 97.8481 33.3285 97.9651C33.3745 98.1277 33.4205 98.2875 33.4638 98.4501C34.8768 103.535 36.2356 108.636 37.5754 113.743Z" fill="#263238"/>
<path d="M53.3176 94.5726C53.1088 95.9064 52.8048 97.2217 52.4081 98.5072C52.1104 99.5287 51.7504 100.633 51.3444 101.771C51.2578 102.031 51.1603 102.282 51.0737 102.539C49.7826 106.005 48.0963 109.538 46.3531 111.215H46.3396C46.1352 111.422 45.9122 111.606 45.6737 111.766L44.1904 112.733C44.192 112.741 44.192 112.749 44.1904 112.756C44.1904 112.85 44.1227 113.19 44.0388 113.738H19.0473C18.4085 107.638 19.7402 101.931 20.9014 98.3531C21.3078 97.0597 21.7924 95.795 22.3522 94.5669L53.3176 94.5726Z" fill="#455A64"/>
<path d="M50.3403 109.729C48.7699 110.638 47.1523 111.453 45.4952 112.171C45.054 112.371 44.6128 112.568 44.1635 112.759C44.1364 112.759 44.1093 112.785 44.0823 112.793C43.6961 112.963 43.309 113.125 42.9211 113.281C42.5421 113.435 42.1659 113.595 41.7815 113.743H40.937C41.519 113.435 42.128 113.173 42.7208 112.887C43.5436 112.507 44.3692 112.127 45.1975 111.746C45.5737 111.575 45.9499 111.401 46.3235 111.224H46.337C47.6281 110.619 48.9139 110.014 50.2429 109.512C50.3755 109.444 50.4621 109.655 50.3403 109.729Z" fill="#263238"/>
<path d="M44.1769 112.779C44.1769 112.985 44.1606 113.324 44.1227 113.743H43.8521C43.9387 113.35 44.0172 113.027 44.093 112.793C44.0922 112.785 44.0922 112.776 44.093 112.768C44.1065 112.731 44.1552 112.728 44.166 112.768C44.166 112.768 44.1769 112.771 44.1769 112.779Z" fill="#263238"/>
<path d="M24.7694 96.2132C24.431 96.9265 24.1252 97.6398 23.841 98.3874C22.1172 102.855 21.4663 107.703 21.9462 112.499C21.9922 112.916 22.0491 113.33 22.1086 113.743H21.6755C21.5046 112.539 21.4052 111.324 21.3778 110.106C21.2884 106.077 22.0329 102.076 23.5595 98.3817C23.8788 97.6142 24.2334 96.8609 24.6205 96.1276C24.6258 96.1173 24.633 96.1082 24.6417 96.1009C24.6504 96.0935 24.6603 96.088 24.671 96.0847C24.6817 96.0814 24.6929 96.0803 24.704 96.0816C24.715 96.0828 24.7258 96.0863 24.7355 96.092C24.7453 96.0976 24.7539 96.1052 24.7609 96.1143C24.7679 96.1235 24.7731 96.134 24.7763 96.1452C24.7794 96.1565 24.7804 96.1683 24.7792 96.1799C24.7781 96.1916 24.7747 96.2029 24.7694 96.2132Z" fill="#263238"/>
<path d="M43.5489 105.435C43.5733 104.419 43.6409 103.406 43.6897 102.394C43.8006 100.003 43.89 97.5973 44.1011 95.2148C44.1011 95.1951 44.1085 95.1763 44.1217 95.1624C44.1349 95.1484 44.1528 95.1406 44.1715 95.1406C44.1901 95.1406 44.208 95.1484 44.2212 95.1624C44.2344 95.1763 44.2418 95.1951 44.2418 95.2148C44.2689 97.0637 44.2012 98.924 44.1661 100.77C44.1471 101.695 44.1228 102.622 44.0984 103.546C44.051 104.429 44.0456 105.314 44.0821 106.197C44.1282 106.865 44.2662 108.16 45.0918 108.24C45.8713 108.317 46.4858 107.432 46.6806 106.785C47.1733 105.135 47.3492 103.361 47.5089 101.649C47.6036 100.636 47.7146 96.513 47.6632 95.4802C47.6632 95.4145 47.7552 95.4174 47.7606 95.4802C47.8148 96.5244 47.9501 97.563 47.9826 98.6187C48.0151 99.6744 48.0178 100.707 47.9555 101.757C47.8933 102.756 47.8148 103.755 47.6713 104.75C47.575 105.656 47.3704 106.544 47.0623 107.395C46.7754 108.097 46.2827 108.742 45.5357 108.896C45.4462 108.912 45.3557 108.922 45.265 108.925C45.265 109.139 45.2271 109.355 45.2136 109.567C45.1919 109.903 45.1513 110.234 45.108 110.568C45.0643 110.896 45.0001 111.22 44.9158 111.538C44.8479 111.86 44.7386 112.171 44.591 112.463C44.5854 112.472 44.5772 112.479 44.5675 112.482C44.5579 112.486 44.5474 112.487 44.5375 112.484C44.5276 112.481 44.5188 112.475 44.5124 112.467C44.506 112.458 44.5022 112.448 44.5017 112.437C44.4944 112.116 44.5198 111.796 44.5775 111.481C44.6208 111.156 44.6641 110.825 44.7264 110.505C44.7886 110.186 44.8455 109.869 44.9077 109.552C44.9483 109.341 44.9754 109.121 45.0133 108.907C44.7721 108.863 44.5453 108.756 44.353 108.596C44.1607 108.436 44.0091 108.228 43.9116 107.992C43.557 107.201 43.53 106.28 43.5489 105.435Z" fill="#263238"/>
<path d="M43.0884 59.5606C46.3176 63.8262 58.9799 78.9626 66.0175 80.3749C70.757 81.3308 85.9826 73.162 89.3173 70.2031C90.6707 68.9934 83.0566 57.0184 81.197 57.5006C79.1832 58.0227 68.2262 65.7008 66.8024 65.6123C65.3787 65.5239 54.1645 58.8787 47.3624 55.937C43.2752 54.1566 41.2695 57.161 43.0884 59.5606Z" fill="#AD6359"/>
<path d="M85.1356 73.056C88.0644 71.8662 96.9453 65.3009 98.4205 63.5947C99.8957 61.8885 103.804 56.6642 102.678 55.3403C101.552 54.0164 100.296 55.4516 100.296 55.4516C100.296 55.4516 101.777 52.7553 100.369 51.7424C99.246 50.9349 97.3702 52.8551 97.3702 52.8551C97.3702 52.8551 98.8454 49.8107 97.3269 48.9976C95.9438 48.2557 94.4199 50.8636 94.4199 50.8636C94.4199 50.8636 95.4078 48.1844 93.9462 47.7421C92.1868 47.2057 90.4734 51.8422 88.7113 53.597C88.3107 53.9936 76.4902 60.108 76.4902 60.108L85.1356 73.056Z" fill="#AD6359"/>
<path d="M94.3547 50.7301C92.7307 54.0655 91.9728 55.3951 89.2119 57.5294C89.1577 57.5693 89.2119 57.6635 89.266 57.6264C92.1406 55.7946 93.1529 54.2852 94.5063 50.7786C94.5794 50.616 94.4305 50.576 94.3547 50.7301Z" fill="#263238"/>
<path d="M97.3377 52.8557C95.7272 56.2796 94.4956 57.5664 91.7699 60.023C91.7293 60.0572 91.7699 60.1314 91.8241 60.1C94.6905 57.923 96.2713 56.5221 97.4541 52.8842C97.5083 52.7216 97.4108 52.7016 97.3377 52.8557Z" fill="#263238"/>
<path d="M100.161 55.5746C98.3747 58.7645 97.1268 60.3338 94.1873 62.3596C94.1722 62.3686 94.1612 62.3837 94.1566 62.4013C94.152 62.419 94.1543 62.4378 94.1629 62.4537C94.1715 62.4696 94.1858 62.4812 94.2025 62.4861C94.2193 62.4909 94.2372 62.4885 94.2523 62.4794C97.4381 60.7189 99.0135 58.7702 100.248 55.6316C100.332 55.4291 100.272 55.3663 100.161 55.5746Z" fill="#263238"/>
<path d="M111.954 64.9931C104.183 67.3841 96.5257 69.7779 89.0821 72.1689C84.6241 61.612 83.9663 51.055 80.9131 40.4981C88.695 38.1042 96.3417 35.7132 103.815 33.3193C108.265 43.8734 108.909 54.4333 111.954 64.9931Z" fill="white"/>
<path d="M111.955 64.9929C108.08 66.2065 104.242 67.4181 100.44 68.6279C96.6379 69.8377 92.8638 71.0465 89.1176 72.2544L89.0419 72.28L89.004 72.1944C84.527 61.6375 83.8611 51.0805 80.7835 40.5236C80.77 40.4779 80.7591 40.4323 80.7456 40.3866L80.8728 40.3467C88.6548 37.9671 96.3014 35.5875 103.775 33.2136L103.864 33.1851L103.905 33.2821C106.124 38.5748 107.388 43.8676 108.479 49.1603C109.57 54.453 110.455 59.7173 111.955 64.9929ZM111.955 64.9929C110.409 59.7116 109.462 54.4359 108.341 49.146C107.22 43.8561 105.954 38.6091 103.74 33.342L103.867 33.4105C96.4043 35.8157 88.7468 38.2239 80.9649 40.6291L81.0542 40.4522C84.0939 51.0092 84.7354 61.5804 89.1745 72.1431L89.0635 72.0832C92.788 70.9 96.5585 69.7169 100.375 68.5337C104.192 67.3506 108.051 66.1703 111.955 64.9929Z" fill="#263238"/>
<path d="M84.5918 45.0946C88.9822 43.7631 93.3464 42.4316 97.6844 41.1001C97.7602 41.3712 97.836 41.6422 97.9091 41.9133C93.562 43.2448 89.1852 44.5763 84.7786 45.9078C84.7163 45.6482 84.6541 45.3799 84.5918 45.0946Z" fill="#DBDBDB"/>
<path d="M85.0571 47.1605C89.4692 45.829 93.8613 44.4975 98.2337 43.166L98.4367 43.9792C94.0589 45.3107 89.6577 46.6422 85.2331 47.9737C85.1762 47.7027 85.1167 47.4316 85.0571 47.1605Z" fill="#DBDBDB"/>
<path d="M85.4956 49.2147C89.9239 47.8832 94.3368 46.5517 98.7344 45.2202C98.7967 45.5055 98.8616 45.7623 98.9212 46.0334C94.52 47.3649 90.0989 48.6964 85.658 50.0279C85.6093 49.7569 85.5524 49.4858 85.4956 49.2147Z" fill="#DBDBDB"/>
<path d="M85.918 51.2662C92.4142 49.3184 98.8906 47.3696 105.347 45.4199L105.534 46.2359C99.081 48.1819 92.582 50.1306 86.0831 52.0794C86.0262 51.8083 85.9721 51.5373 85.918 51.2662Z" fill="#DBDBDB"/>
<path d="M86.3403 53.3204C92.8366 51.3707 99.3283 49.4219 105.816 47.4741C105.875 47.7452 105.935 48.0162 105.991 48.2873C99.5115 50.237 93.0152 52.1858 86.5027 54.1336C86.4405 53.8625 86.3863 53.5915 86.3403 53.3204Z" fill="#DBDBDB"/>
<path d="M86.749 55.3664L106.238 49.5229C106.295 49.8083 106.351 50.0651 106.406 50.3361C99.9093 52.2849 93.4131 54.2308 86.9168 56.1795C86.86 55.9142 86.8059 55.6517 86.749 55.3664Z" fill="#DBDBDB"/>
<path d="M87.1792 57.4264C93.6556 55.4766 100.152 53.5279 106.668 51.5801C106.725 51.8654 106.779 52.1222 106.833 52.3933C100.337 54.3411 93.846 56.2898 87.3605 58.2395C87.2956 57.9685 87.236 57.6974 87.1792 57.4264Z" fill="#DBDBDB"/>
<path d="M87.6313 59.4777C94.0816 57.5289 100.578 55.583 107.077 53.6343C107.134 53.9053 107.188 54.1764 107.242 54.4475C100.746 56.3972 94.272 58.345 87.8208 60.2909C87.7559 60.0198 87.6936 59.7488 87.6313 59.4777Z" fill="#DBDBDB"/>
<path d="M88.1187 61.5323C94.5337 59.5826 100.993 57.6338 107.496 55.686C107.553 55.9571 107.607 56.2282 107.664 56.4992C101.179 58.4489 94.7322 60.3977 88.3244 62.3455C88.254 62.0744 88.1863 61.8034 88.1187 61.5323Z" fill="#DBDBDB"/>
<path d="M88.6489 63.5836C95.0152 61.6377 101.442 59.6899 107.929 57.7402C107.989 58.0256 108.046 58.2823 108.108 58.5534C101.644 60.5022 95.2182 62.4509 88.8736 64.3997C88.7978 64.1258 88.722 63.8547 88.6489 63.5836Z" fill="#DBDBDB"/>
<path d="M89.231 65.6383C95.5467 63.6905 101.932 61.7417 108.387 59.792C108.449 60.0773 108.511 60.3341 108.576 60.6052C102.145 62.5549 95.7795 64.5036 89.48 66.4514C89.3961 66.1804 89.3176 65.9236 89.231 65.6383Z" fill="#DBDBDB"/>
<path d="M89.8779 67.6925C96.1251 65.7447 102.459 63.7959 108.879 61.8462C108.947 62.1172 109.015 62.3883 109.085 62.6594C102.697 64.6072 96.3868 66.5559 90.154 68.5056L89.8779 67.6925Z" fill="#DBDBDB"/>
<path d="M99.9201 45.3516C99.6305 43.1346 99.2759 40.9176 98.8022 38.7007C100.283 40.2899 101.698 41.8792 103.076 43.4684L102.67 43.8593C101.707 42.7409 100.724 41.6224 99.7117 40.5039C100.007 42.0875 100.253 43.6682 100.456 45.2517L99.9201 45.3516Z" fill="#FFC727"/>
<path d="M99.5332 44.1987L99.2192 43.745C100.183 42.9841 101.137 42.2233 102.083 41.4624L102.408 41.9161C101.46 42.6807 100.502 43.4416 99.5332 44.1987Z" fill="#FFC727"/>
<path d="M98.6883 37.8302C98.243 38.1779 97.8482 38.5921 97.5163 39.0599C96.8621 40.0077 96.5199 41.155 96.5419 42.3269C96.5465 42.8952 96.6645 43.4561 96.8883 43.9732C97.1187 44.472 97.4535 44.9092 97.8675 45.2517C98.2816 45.5942 98.764 45.8332 99.2784 45.9505C100.312 46.1645 101.419 45.7736 102.345 45.1287C103.293 44.5318 104.012 43.6026 104.375 42.5038C104.546 41.9648 104.599 41.3921 104.531 40.8284C104.462 40.2647 104.274 39.7245 103.98 39.2482C103.656 38.7773 103.237 38.3876 102.754 38.1069C102.271 37.8125 101.734 37.6306 101.179 37.5734C100.627 37.5146 100.07 37.5958 99.5545 37.8102C99.0427 38.0325 98.5711 38.3462 98.1605 38.7375C98.3504 38.5216 98.5549 38.3204 98.7723 38.1355C98.9985 37.958 99.2405 37.8042 99.495 37.6761C100.018 37.4083 100.595 37.279 101.176 37.2995C101.787 37.331 102.384 37.5001 102.927 37.7954C103.471 38.0907 103.948 38.5054 104.327 39.0114C104.689 39.5343 104.923 40.1443 105.006 40.7861C105.092 41.4197 105.044 42.0655 104.868 42.6778C104.473 43.9078 103.678 44.9509 102.624 45.6223C102.114 45.9766 101.555 46.2451 100.967 46.4184C100.377 46.5952 99.7562 46.6235 99.1539 46.5011C98.5659 46.3705 98.0186 46.0859 97.5623 45.6737C97.1105 45.2687 96.7483 44.7642 96.5013 44.1957C96.0673 43.018 96.0741 41.7105 96.5202 40.5379C96.9283 39.4007 97.6934 38.4452 98.6883 37.8302Z" fill="#FFC727"/>
<path d="M101.658 39.959C101.347 39.5101 101.031 39.0622 100.708 38.6152L101.132 38.2842C101.457 38.7312 101.777 39.1791 102.091 39.628L101.658 39.959Z" fill="#FFC727"/>
<path d="M100.957 39.8191L100.635 39.3512L101.853 38.4268C101.964 38.5837 102.072 38.7406 102.183 38.8947L100.957 39.8191Z" fill="#FFC727"/>
<path d="M76.4902 60.1113C76.4902 60.1113 79.3675 57.0041 80.6614 55.4605C81.9552 53.9169 85.0463 49.0179 86.7245 49.1349C88.6193 49.2661 87.2496 54.4276 84.957 57.201C84.957 57.201 88.0021 62.3197 85.9206 65.0959C85.4686 65.695 82.188 67.5953 81.3732 67.4184L76.4902 60.1113Z" fill="#AD6359"/>
<path d="M84.819 57.5718C86.0723 59.5177 86.9438 62.4822 86.0452 64.6307C86.0409 64.6429 86.041 64.6563 86.0453 64.6685C86.0497 64.6806 86.058 64.6907 86.0688 64.697C86.0797 64.7032 86.0923 64.7051 86.1043 64.7024C86.1164 64.6996 86.1271 64.6924 86.1345 64.682C87.3932 62.5164 86.4052 59.0754 85.198 57.4063C84.9625 57.0782 84.4942 57.0782 84.819 57.5718Z" fill="#263238"/>
<path d="M76.4901 60.1113L85.1355 73.0564C85.1609 73.8784 84.9471 74.6888 84.5227 75.3789C84.0984 76.069 83.4838 76.6057 82.7617 76.9168C80.1821 78.1066 69.512 82.1639 65.2868 80.6603C61.0615 79.1566 49.0083 68.2059 43.8086 60.9273C38.6089 53.6487 46.2934 55.0953 47.7578 55.7915C49.2221 56.4877 66.4128 65.0274 67.0245 65.0132C67.6363 64.9989 71.626 61.8004 73.5208 60.8075C75.4155 59.8146 76.4901 60.1113 76.4901 60.1113Z" fill="#743D3E"/>
<path opacity="0.1" d="M71.4528 80.5603C69.0167 81.031 66.7619 81.1851 65.2922 80.6601C61.0642 79.1536 49.011 68.2086 43.8113 60.9243C43.481 60.465 43.2049 60.037 42.9722 59.6489L71.4528 80.5603Z" fill="black"/>
<path d="M81.7687 75.7298C80.9756 74.7055 80.3151 73.567 79.6249 72.4714C78.9347 71.3758 78.2715 70.3086 77.603 69.2187C76.2496 67.0246 74.8502 64.8447 73.6403 62.5678C73.6365 62.5574 73.6362 62.5459 73.6395 62.5354C73.6428 62.5248 73.6494 62.5157 73.6583 62.5097C73.6672 62.5036 73.6778 62.501 73.6883 62.5023C73.6988 62.5035 73.7086 62.5085 73.716 62.5165C75.2778 64.5908 76.6394 66.8334 78.009 69.039C78.6965 70.1441 79.3687 71.2588 80.0255 72.3829C80.6925 73.4485 81.3025 74.5525 81.8526 75.6898C81.877 75.7441 81.8012 75.7726 81.7687 75.7298Z" fill="#263238"/>
<g opacity="0.1">
<path d="M78.9971 78.412L78.02 78.7629C77.9688 78.3849 77.9444 78.0035 77.9469 77.6217C77.9469 76.8998 78.001 76.195 77.9929 75.5074C77.9952 74.8196 77.9317 74.1332 77.8034 73.4588C77.6727 72.7978 77.453 72.1598 77.1511 71.5642C77.078 71.4159 76.9941 71.2789 76.9156 71.1363C76.8371 70.9936 76.7478 70.8738 76.6585 70.7425C76.4663 70.4829 76.266 70.2147 76.0576 69.9522L74.8125 68.3572C74.3902 67.8208 73.9734 67.2815 73.5619 66.7309C73.1505 66.1802 72.7499 65.6095 72.3791 65.0189C71.9942 64.4084 71.6617 63.763 71.3857 63.0901C71.2908 62.8442 71.2095 62.5927 71.1421 62.3369C71.4913 62.0944 71.835 61.8604 72.1598 61.6436C72.267 61.9513 72.3908 62.2523 72.5307 62.5452C72.8295 63.1219 73.1593 63.6801 73.5186 64.2172C74.244 65.3299 75.0073 66.4513 75.7734 67.584C76.155 68.1546 76.5475 68.7253 76.9048 69.3159C77.0834 69.6155 77.2621 69.9179 77.4218 70.246C77.5003 70.4115 77.5788 70.5742 77.6492 70.7568C77.7195 70.9394 77.771 71.1049 77.8197 71.2818C78.2203 72.6856 78.2798 74.1008 78.4341 75.4846C78.5386 76.4761 78.727 77.4558 78.9971 78.412Z" fill="black"/>
<path d="M75.5811 79.5276C75.3104 79.6075 75.056 79.6846 74.788 79.7587C74.4632 78.5775 74.4442 77.4134 74.4199 76.2635V74.4831C74.4199 74.1978 74.4199 73.8982 74.3982 73.61C74.3923 73.3306 74.3661 73.0521 74.3197 72.7769C74.3101 72.7146 74.2947 72.6534 74.2737 72.5943L74.206 72.4003L74.1248 72.212C74.095 72.1492 74.0599 72.0893 74.0301 72.0265C73.8926 71.7805 73.7292 71.5518 73.5429 71.3446C73.1538 70.9279 72.712 70.5697 72.2301 70.2803C71.9892 70.1262 71.7402 69.995 71.4884 69.8552L70.7278 69.4472C70.1834 69.1799 69.692 68.8061 69.2797 68.3458C69.1776 68.217 69.087 68.0785 69.009 67.9321C68.9684 67.8579 68.9332 67.778 68.8981 67.701L68.8141 67.4727C68.7167 67.1716 68.6433 66.8624 68.5949 66.5483C68.5029 65.9409 68.4685 65.3254 68.492 64.7108C68.492 64.5311 68.5083 64.3513 68.5218 64.1715L69.0632 63.7949C69.0632 64.1002 69.0632 64.4027 69.0875 64.7051C69.1097 65.2797 69.1713 65.8518 69.2716 66.417C69.324 66.6883 69.3946 66.9552 69.4827 67.2159L69.5531 67.4043C69.5802 67.4585 69.5991 67.5155 69.6289 67.5726C69.6855 67.6848 69.7497 67.7926 69.8211 67.895C70.152 68.3343 70.5381 68.724 70.9687 69.0534C71.4099 69.4101 71.889 69.7325 72.3627 70.0606C72.8522 70.3746 73.3182 70.7275 73.7567 71.1163C73.9816 71.3183 74.1874 71.5429 74.3711 71.7868C74.4636 71.912 74.5495 72.0425 74.6283 72.1777L74.7393 72.386C74.7759 72.4626 74.8075 72.5417 74.834 72.6228C74.9282 72.9235 74.9944 73.2331 75.0316 73.5473C75.0776 73.8497 75.102 74.1522 75.1263 74.4517C75.1723 75.0509 75.1994 75.6444 75.2373 76.2322C75.2752 76.8199 75.3158 77.4077 75.3699 77.984C75.4071 78.503 75.4777 79.0187 75.5811 79.5276Z" fill="black"/>
</g>
<path d="M19.6078 100.237C19.6348 100.274 56.5741 98.4533 56.815 98.2137C56.926 98.1024 57.4051 95.8854 56.8393 92.8068C55.1422 83.5766 50.0562 64.7224 45.5711 56.7448C44.4505 54.7475 39.3997 51.8116 35.7347 55.5835C28.3046 63.2302 22.4715 82.6892 20.1735 93.3774C19.0475 98.6017 19.4562 100.014 19.6078 100.237Z" fill="#743D3E"/>
<g opacity="0.1">
<path d="M56.6738 91.9249C56.5628 91.9249 56.4518 91.9249 56.3436 91.942C55.2935 92.0479 54.2504 92.2203 53.22 92.4584C51.0952 92.915 48.9324 93.4285 46.7535 93.9393C45.6708 94.1932 44.5718 94.4614 43.4485 94.6554C42.8855 94.7496 42.3198 94.8437 41.7324 94.8894C41.4347 94.9094 41.1424 94.9322 40.823 94.9265C40.5036 94.9208 40.2329 94.8951 39.9379 94.858C37.5965 94.5927 35.4663 93.7567 33.3144 93.0976C31.1625 92.4385 28.943 91.9877 26.967 91.9962C26.4798 91.9962 25.9547 92.039 25.4269 92.0904C24.8991 92.1417 24.3712 92.2245 23.838 92.3072C22.7743 92.487 21.6997 92.7124 20.6278 92.9578L20.2407 93.0491C20.3706 92.4499 20.5114 91.8222 20.6657 91.1745C21.5947 90.851 22.5399 90.5814 23.497 90.367C24.06 90.2377 24.632 90.135 25.2131 90.0589C25.5054 90.0218 25.7977 89.9904 26.0928 89.9733C26.3992 89.9518 26.7066 89.9518 27.0131 89.9733C28.209 90.0588 29.3807 90.37 30.4723 90.892C31.5388 91.36 32.5349 91.9135 33.5634 92.3614C34.5793 92.8197 35.6367 93.1677 36.7195 93.4C37.7841 93.6215 38.8733 93.682 39.9541 93.5798C40.2248 93.5598 40.4955 93.517 40.7418 93.4799C40.9881 93.4428 41.2371 93.3743 41.4915 93.3116C42.0058 93.166 42.5309 93.0262 43.0534 92.8493L46.2392 91.8536C47.3057 91.514 48.383 91.1831 49.4684 90.872C50.5538 90.561 51.6582 90.2843 52.7869 90.0646C53.9178 89.8385 55.0654 89.7182 56.2164 89.7051C56.3842 90.4812 56.5358 91.2259 56.6738 91.9249Z" fill="black"/>
<path d="M55.0632 84.6865C54.3111 84.4047 53.5426 84.1741 52.7624 83.996C52.327 83.9008 51.8855 83.8398 51.4415 83.8134H51.1194C51.0193 83.8134 50.9218 83.8134 50.8217 83.8276C50.6177 83.8484 50.4152 83.8827 50.2154 83.9303C49.3482 84.1849 48.5178 84.5621 47.7468 85.0517C46.9348 85.5424 46.1227 86.1131 45.3378 86.6809C44.5496 87.2767 43.7199 87.8089 42.8557 88.273C42.4088 88.5082 41.9421 88.6993 41.4617 88.8436C41.2157 88.9132 40.9663 88.9685 40.7146 89.0091L40.3248 89.0348C40.187 89.0448 40.0486 89.0448 39.9107 89.0348C39.404 88.9921 38.9026 88.8966 38.4139 88.7494C37.9375 88.6239 37.4746 88.4641 37.0172 88.3072C36.0996 87.9876 35.2036 87.6424 34.3104 87.3143C33.4172 86.9862 32.5212 86.6666 31.6334 86.3756C30.7705 86.0773 29.8874 85.8484 28.9916 85.6908C28.5731 85.6243 28.1483 85.6147 27.7275 85.6623C27.2846 85.7153 26.8458 85.802 26.4148 85.9219C25.5179 86.1741 24.6373 86.4867 23.7784 86.8578C23.0042 87.1887 22.2337 87.5425 21.4668 87.9192C21.5507 87.591 21.6373 87.2601 21.7375 86.9234C22.2788 86.5753 22.8283 86.2462 23.3859 85.9362C24.2562 85.4499 25.1612 85.0358 26.0927 84.6979C26.5754 84.5291 27.0694 84.3985 27.5706 84.307C28.0951 84.2107 28.6295 84.1896 29.1594 84.2442C31.2166 84.461 33.0274 85.2257 34.8084 85.9761L37.4503 87.1174C37.886 87.3086 38.3245 87.4883 38.7576 87.6624C39.174 87.8352 39.6019 87.9754 40.0379 88.0818C40.1379 88.104 40.2392 88.1192 40.3411 88.1274L40.6713 88.1417H41.0042C41.1179 88.1417 41.2289 88.1189 41.3399 88.1075C41.7939 88.0446 42.2397 87.9278 42.6689 87.7594C43.5393 87.3921 44.3588 86.9026 45.105 86.3042C45.4866 86.0189 45.8493 85.6851 46.2202 85.3684L47.3245 84.384C48.0743 83.7392 48.8809 83.0829 49.9095 82.7348C50.1681 82.6443 50.4347 82.5812 50.7053 82.5465C50.8433 82.5266 50.976 82.5237 51.1221 82.5151H51.5146C52.024 82.5532 52.5293 82.6372 53.025 82.7662C53.6093 82.9128 54.1828 83.1035 54.7411 83.3369L55.0632 84.6865Z" fill="black"/>
</g>
<path d="M31.8559 56.5075C19.7973 61.8972 10.4346 66.5908 11.7934 71.4755C12.3347 73.3929 15.4746 78.5658 19.5185 78.5601C22.6962 78.5601 28.3615 73.1846 34.8171 63.7832C38.16 58.9184 39.4701 53.1007 31.8559 56.5075Z" fill="#743D3E"/>
<path d="M33.9938 66.3628C33.4795 66.8107 32.9679 67.2701 32.4672 67.738L32.7893 67.3443C33.6527 66.2658 34.5053 65.1787 35.358 64.0916C35.3742 64.0688 35.339 64.0403 35.3201 64.0631C33.696 65.8834 32.072 67.6867 30.429 69.5013C28.786 71.316 24.5011 75.9126 23.459 76.8142C23.4374 76.8341 23.459 76.8712 23.4861 76.8541C24.4281 76.078 27.0726 73.7441 27.9171 72.8739C29.1929 71.5576 30.419 70.1994 31.5956 68.7994C32.4541 68.0535 33.2736 67.2592 34.0506 66.4198C34.0804 66.3885 34.029 66.3314 33.9938 66.3628Z" fill="#263238"/>
<path d="M16.105 75.6043C10.8322 73.3217 7.41624 56.462 6.12241 45.1146C5.87609 42.9548 22.0734 40.8747 22.0923 43.2001C22.1573 56.4734 21.8812 78.098 16.105 75.6043Z" fill="#AD6359"/>
<path d="M4.08699 36.2697C4.18173 39.8904 7.12398 48.9551 8.48007 50.436C9.83616 51.9168 20.1192 46.7268 20.6849 44.7295C21.2506 42.7322 21.7378 30.8571 19.4723 28.0381C17.2067 25.2191 3.98684 32.5205 4.08699 36.2697Z" fill="#AD6359"/>
<path d="M22.1329 33.1111C21.2343 34.7803 19.8836 32.7088 19.8836 32.7088C19.8836 32.7088 21.1477 36.184 19.5913 37.5279C18.0863 38.8176 16.5353 36.2554 16.4244 36.0728C16.4893 36.2582 17.572 39.4966 15.883 40.6636C14.1182 41.8877 12.9814 39.0344 12.9056 38.849C12.9056 39.0458 13.0057 41.6194 11.5224 42.2072C8.97535 43.2173 8.57474 36.6377 6.86136 35.1769C6.86136 35.1769 4.18437 36.4893 4.08963 36.5521C4.08963 36.5521 3.58888 31.7701 5.58377 29.4419C5.86865 29.0981 6.25664 28.8676 6.68314 28.7887C7.10964 28.7098 7.54892 28.7872 7.92783 29.0082C7.92783 29.0082 7.557 27.0109 8.86437 26.0379C9.53565 25.5386 10.8917 26.232 10.8917 26.232C10.8917 26.232 10.6562 24.6199 11.8689 23.8295C12.8379 23.1961 14.0343 23.9893 14.0343 23.9893C14.0343 23.9893 14.489 22.3316 15.6773 22.0206C18.0782 21.3843 24.052 29.5275 22.1329 33.1111Z" fill="#AD6359"/>
<path d="M14.2482 24.075C14.2454 24.0697 14.2441 24.0636 14.2448 24.0575C14.2455 24.0515 14.2479 24.0458 14.2519 24.0413C14.2558 24.0369 14.261 24.0339 14.2667 24.0327C14.2723 24.0316 14.2782 24.0324 14.2834 24.035C16.8684 26.2064 19.0771 29.4276 19.9676 32.803C19.9974 32.9143 19.8377 33.0142 19.7836 32.8972C18.2353 29.6017 16.6112 26.8055 14.2482 24.075Z" fill="#263238"/>
<path d="M10.8701 26.1693C10.8458 26.1408 10.8918 26.0952 10.9243 26.1208C13.5769 28.3749 15.9697 32.0755 16.5597 36.1072C16.5814 36.2441 16.4677 36.3925 16.4325 36.2327C15.8479 33.5792 13.0085 28.6174 10.8701 26.1693Z" fill="#263238"/>
<path d="M12.8518 39.1372C12.1426 35.3053 10.3399 32.0983 8.03912 29.0853C8.00935 29.0453 8.06619 29.0054 8.09867 29.0311C9.60634 30.1724 10.8812 32.2638 11.7447 33.9729C12.5756 35.5397 13.0039 37.3081 12.9871 39.103C12.9871 39.1829 12.8653 39.22 12.8518 39.1372Z" fill="#263238"/>
<path d="M19.8836 32.7002C20.0675 33.3896 20.1907 34.0955 20.2517 34.8087C20.3352 35.5002 20.2417 36.2025 19.981 36.8431C19.8494 37.131 19.6207 37.3569 19.3395 37.4765C19.0549 37.5939 18.7463 37.6322 18.4436 37.5878C18.1452 37.5187 17.8641 37.3838 17.6188 37.192C17.3734 37.0002 17.1693 36.7559 17.0198 36.475L16.2349 35.1369L16.5326 36.6805C16.6689 37.3651 16.6991 38.0685 16.6219 38.7633C16.538 39.4395 16.2836 40.0901 15.7937 40.4325C15.567 40.6158 15.2876 40.7119 15.002 40.7046C14.7164 40.6974 14.4417 40.5872 14.2237 40.3925C13.7442 39.9455 13.3808 39.3769 13.1681 38.7405L12.5212 37.0057L12.5916 38.8603C12.6136 39.3765 12.5718 39.8935 12.467 40.3982C12.3863 40.8805 12.1726 41.3271 11.8526 41.6822C11.7017 41.8351 11.5134 41.9407 11.3088 41.987C11.1041 42.0334 10.8913 42.0187 10.6941 41.9447C10.2775 41.7095 9.93294 41.3542 9.70073 40.9204C9.19081 39.988 8.75097 39.0149 8.38524 38.0101C8.18223 37.5079 7.97652 37.0057 7.74915 36.5121C7.54619 36.0033 7.24365 35.5454 6.86133 35.1682C7.19672 35.5804 7.45318 36.0571 7.61652 36.572C7.80599 37.0771 7.97381 37.5935 8.14163 38.1099C8.45431 39.1639 8.86125 40.1843 9.35697 41.1572C9.61748 41.6894 10.019 42.1305 10.5128 42.4269C10.7981 42.5561 11.1129 42.5947 11.4188 42.5379C11.7246 42.4812 12.008 42.3315 12.2343 42.1073C12.6483 41.6809 12.9312 41.1332 13.0463 40.5352C13.1708 39.9744 13.2254 39.3989 13.2087 38.8232L12.6349 38.9431C12.8752 39.7007 13.2998 40.3785 13.8664 40.9089C14.188 41.1943 14.5938 41.3527 15.0141 41.3569C15.4265 41.346 15.8263 41.2049 16.1618 40.9517C16.8466 40.4496 17.1281 39.5965 17.2093 38.8404C17.285 38.077 17.2402 37.3057 17.0767 36.5578L16.5867 36.7661C16.7849 37.1068 17.0514 37.3978 17.3674 37.6186C17.6835 37.8394 18.0416 37.9847 18.4165 38.0443C18.7937 38.0803 19.1733 38.0125 19.5182 37.8474C19.8701 37.6726 20.1493 37.3682 20.3031 36.9915C20.6009 36.2639 20.5386 35.4992 20.4439 34.7859C20.3318 34.0707 20.1439 33.3711 19.8836 32.7002Z" fill="#263238"/>
<path d="M21.0041 45.4941C21.0041 45.4941 29.3571 29.3733 21.5454 29.1593C19.6507 29.1079 12.1232 32.3264 12.6672 33.9328C13.371 36.0099 16.7274 35.3736 18.7953 34.6204C18.7953 34.6204 16.3241 39.2084 18.8413 41.976C19.7793 42.9835 20.5148 44.1801 21.0041 45.4941Z" fill="#AD6359"/>
<path d="M22.0869 29.1506C21.3429 29.12 20.5988 29.2046 19.8781 29.4017C19.1523 29.5774 18.4388 29.8052 17.7425 30.0836C16.3371 30.617 14.9786 31.2786 13.6824 32.0609C13.3397 32.2689 13.0263 32.5263 12.7512 32.8256C12.5945 32.9997 12.4762 33.2082 12.4048 33.4362C12.3644 33.562 12.3451 33.6943 12.3479 33.8271C12.3514 33.9575 12.3742 34.0865 12.4156 34.2094C12.5706 34.6513 12.8687 35.0212 13.2574 35.2537C13.6191 35.4545 14.011 35.5877 14.4159 35.6475C15.1829 35.7448 15.9601 35.7033 16.7139 35.5248C17.4498 35.3648 18.1735 35.1483 18.8793 34.8771L18.5735 34.4805C18.3101 35.0152 18.0953 35.575 17.932 36.1525C17.7646 36.7229 17.653 37.3099 17.599 37.9044C17.5518 38.5009 17.5865 39.1015 17.7019 39.6876C17.8179 40.2671 18.0375 40.8181 18.3488 41.3111C18.1062 40.7899 17.9479 40.2296 17.8806 39.6534C17.8216 39.0833 17.8362 38.5074 17.9239 37.9414C18.0061 37.3778 18.1421 36.8243 18.3299 36.2894C18.5139 35.7566 18.744 35.2427 19.0174 34.7544L19.3612 34.1581L18.7115 34.3606C18.0228 34.5936 17.3202 34.7785 16.6084 34.9142C15.9164 35.0625 15.2062 35.0924 14.5052 35.0026C13.8475 34.8971 13.1708 34.5718 12.9867 34.004C12.781 33.5189 13.4063 32.974 13.9882 32.5774C14.6003 32.169 15.2328 31.7957 15.883 31.4589C16.5353 31.1051 17.193 30.7627 17.8643 30.4574C19.2339 29.8782 20.6117 29.2733 22.0869 29.1506Z" fill="#263238"/>
<path d="M22.7313 46.4785L5.88713 50.3589C5.88713 50.3589 4.77736 53.7257 5.75721 57.2209C7.61676 63.8518 13.1629 78.0866 17.6372 77.7642C22.4823 77.4075 23.6598 59.6148 23.5921 50.901C23.5434 47.9479 22.7313 46.4785 22.7313 46.4785Z" fill="#743D3E"/>
<g opacity="0.1">
<path d="M23.5731 53.4033C23.5731 53.7771 23.5731 54.1623 23.5488 54.5446C23.1427 54.7586 22.7367 54.9612 22.2982 55.1352C21.9815 55.2665 21.6567 55.3863 21.3265 55.489C21.1587 55.5404 20.9909 55.5917 20.8203 55.6317C20.6419 55.6762 20.4612 55.7095 20.279 55.7316C19.5732 55.8032 18.861 55.7413 18.1758 55.549C17.5127 55.3863 16.8793 55.1638 16.2378 55.0097C15.6044 54.8456 14.9569 54.75 14.3052 54.7244C13.6667 54.7049 13.0287 54.7807 12.4104 54.9498C12.2588 54.9897 12.1046 55.0411 11.9611 55.0896C11.8176 55.1381 11.6904 55.2009 11.5388 55.2636C11.2546 55.4006 10.9623 55.5489 10.67 55.6945L8.90786 56.6018C8.31779 56.9071 7.71959 57.2124 7.11598 57.5034C6.75057 57.686 6.37704 57.8544 5.99809 58.017C5.91418 57.7317 5.83568 57.4663 5.7626 57.2067C5.70576 57.0098 5.65704 56.8129 5.61914 56.6161C6.54215 56.2337 7.47598 55.8343 8.41252 55.432C9.02696 55.1752 9.63598 54.9041 10.2748 54.6759C10.5942 54.5646 10.9136 54.4505 11.2519 54.3649C11.4224 54.3221 11.593 54.2793 11.7933 54.2507C11.9936 54.2222 12.1397 54.2079 12.313 54.1994C13.7043 54.1138 15.0197 54.382 16.3352 54.5446C17.5968 54.7304 18.8767 54.7304 20.1382 54.5446C20.4089 54.4933 20.7229 54.4162 21.0261 54.3306C21.3292 54.245 21.6297 54.1452 21.9328 54.0453C22.4606 53.8513 23.0209 53.6344 23.5731 53.4033Z" fill="black"/>
<path d="M23.4812 56.5078C23.4812 56.7132 23.4649 56.9187 23.4541 57.127C23.2322 57.3238 23.0075 57.515 22.7747 57.6976C22.3137 58.0684 21.8269 58.4022 21.3185 58.6962C21.0566 58.8428 20.7853 58.9696 20.5064 59.0757C20.2092 59.1842 19.8998 59.2513 19.5861 59.2754C18.3654 59.3582 17.2421 59.0985 16.1323 58.8446L14.4866 58.4452C14.2159 58.3795 13.9452 58.3196 13.6746 58.2625C13.4158 58.2047 13.1535 58.1666 12.8896 58.1484C12.8301 58.1441 12.7704 58.1441 12.711 58.1484L12.5161 58.1741L12.3212 58.214C12.2589 58.214 12.194 58.2511 12.129 58.2683C11.8612 58.356 11.6041 58.4767 11.363 58.6278C10.8872 58.9291 10.4536 59.2988 10.0746 59.7263C9.87696 59.9374 9.69561 60.1628 9.50884 60.3854L8.96749 61.073C8.59497 61.5694 8.13554 61.9859 7.61411 62.2999C7.55936 62.332 7.50235 62.3597 7.44358 62.3826C7.35967 62.1515 7.27847 61.9232 7.19727 61.695C7.23787 61.6779 7.28118 61.6636 7.32178 61.6436C7.80331 61.4059 8.25218 61.1007 8.65621 60.7363C9.0893 60.3654 9.49802 59.9517 9.90945 59.5408C10.3142 59.1117 10.7495 58.7159 11.2114 58.3567C11.4494 58.1742 11.7031 58.0156 11.9693 57.8831C12.1073 57.8174 12.24 57.7632 12.3916 57.7119L12.6108 57.6463C12.6866 57.6291 12.7759 57.612 12.8517 57.6035C13.1506 57.5733 13.4515 57.5733 13.7503 57.6035C14.04 57.6291 14.3242 57.6719 14.6057 57.7176C15.1687 57.8117 15.7236 57.9202 16.2758 58.02C16.8279 58.1199 17.3774 58.214 17.9215 58.2911C18.4518 58.3766 18.9874 58.4195 19.5239 58.4195C19.7747 58.4147 20.0239 58.3764 20.2655 58.3053C20.5181 58.2293 20.7651 58.1339 21.0045 58.02C21.5046 57.7819 21.9892 57.5093 22.4553 57.204C22.8018 56.9891 23.1437 56.757 23.4812 56.5078Z" fill="black"/>
</g>
<path d="M22.5227 51.2574C14.1913 53.7226 8.17686 54.8668 7.00483 55.0579C6.99837 55.0579 6.99217 55.0552 6.9876 55.0504C6.98304 55.0456 6.98047 55.0391 6.98047 55.0323C6.98047 55.0254 6.98304 55.0189 6.9876 55.0141C6.99217 55.0093 6.99837 55.0066 7.00483 55.0066C12.7946 53.1349 21.9543 51.2004 22.5173 51.1519C22.5288 51.1539 22.5393 51.1601 22.547 51.1692C22.5548 51.1784 22.5594 51.1901 22.56 51.2024C22.5606 51.2146 22.5573 51.2268 22.5505 51.2368C22.5437 51.2468 22.5339 51.2541 22.5227 51.2574Z" fill="#263238"/>
<path d="M23.343 61.8145C23.1454 63.4779 22.6961 66.1171 22.3334 67.7492C22.309 67.8519 22.2846 67.9546 22.263 68.0573C22.3658 68.6427 22.4174 69.2368 22.4173 69.8321C22.4173 70.5282 22.3604 71.2159 22.2928 71.9063C22.2928 71.9349 22.2467 71.932 22.2495 71.9063C22.2928 71.2193 22.2873 70.5297 22.2332 69.8435C22.2034 69.4354 22.171 69.0246 22.1385 68.6137C21.7839 70.1716 21.4104 71.7294 20.9502 73.2559C20.9502 73.2845 20.9015 73.2559 20.9096 73.2388C21.2561 71.5811 21.6269 69.9262 21.9165 68.2571C22.2061 66.5879 22.8693 62.6704 23.1454 61.0127C23.3646 59.6974 23.4052 61.2923 23.343 61.8145Z" fill="#263238"/>
<path d="M38.7008 54.884C38.8984 55.4917 42.0897 59.2437 44.7748 58.8329C45.6518 58.6959 45.1619 53.6314 45.1619 53.6314L45.2079 53.2491L45.8359 47.8907L38.736 44.1045C38.736 44.1045 38.6169 54.6244 38.7008 54.884Z" fill="#AD6359"/>
<path d="M45.8308 47.8936L45.1974 53.2462L45.1541 53.6314C45.1541 53.6314 45.2407 54.5502 45.2759 55.6116C41.546 55.4147 39.5917 52.6756 38.6714 50.7411C38.6876 47.7024 38.7282 44.1045 38.7282 44.1045L45.8308 47.8936Z" fill="#263238"/>
<path d="M53.7479 38.7608C56.341 49.9968 50.2481 52.9014 47.9473 53.4892C45.8604 54.0199 38.6902 55.5521 35.0117 44.6584C31.3332 33.7648 35.4691 28.9428 40.1816 27.4591C44.8941 25.9755 51.1521 27.5219 53.7479 38.7608Z" fill="#AD6359"/>
<path d="M50.6866 39.0829C50.4336 39.0867 50.1806 39.0763 49.9287 39.0515C49.661 39.0806 49.3916 39.0154 49.1627 38.866C49.0993 38.8042 49.0571 38.7218 49.0429 38.632C49.0287 38.5421 49.0432 38.4498 49.0842 38.3696C49.1863 38.2233 49.3239 38.1087 49.4825 38.0379C49.6411 37.9672 49.8149 37.9427 49.9856 37.9673C50.3384 37.9572 50.6821 38.0864 50.9492 38.3296C51.0069 38.3888 51.0471 38.4644 51.0649 38.5472C51.0827 38.6299 51.0775 38.7164 51.0497 38.796C51.0219 38.8757 50.9729 38.9452 50.9084 38.9961C50.844 39.047 50.767 39.0771 50.6866 39.0829Z" fill="#263238"/>
<path d="M43.1023 40.795C43.3421 40.7125 43.5779 40.6172 43.8087 40.5097C44.07 40.4434 44.3032 40.2879 44.4719 40.0674C44.513 39.987 44.5274 39.8944 44.5126 39.8044C44.4979 39.7144 44.455 39.6322 44.3907 39.5709C44.2482 39.469 44.0824 39.4091 43.9106 39.3976C43.7387 39.386 43.5671 39.4232 43.4135 39.5053C43.0776 39.6198 42.7939 39.8618 42.6177 40.1844C42.5842 40.2601 42.5719 40.3443 42.5821 40.4272C42.5924 40.51 42.6249 40.5881 42.6757 40.6522C42.7266 40.7163 42.7937 40.7637 42.8693 40.789C42.9448 40.8143 43.0256 40.8164 43.1023 40.795Z" fill="#263238"/>
<path d="M46.3125 48.5557C46.5101 48.7183 46.7131 48.9494 46.9837 48.9437C47.2597 48.9075 47.5254 48.8103 47.7633 48.6584C47.7682 48.6563 47.7736 48.6558 47.7788 48.6569C47.784 48.6581 47.7887 48.6608 47.7925 48.6647C47.7962 48.6687 47.7988 48.6737 47.7999 48.6792C47.8009 48.6846 47.8004 48.6903 47.7985 48.6955C47.7081 48.8612 47.5768 48.9981 47.4186 49.0915C47.2604 49.185 47.0811 49.2315 46.8998 49.2262C46.744 49.2026 46.5985 49.1306 46.4818 49.0192C46.3651 48.9079 46.2825 48.7624 46.2448 48.6013C46.2286 48.5557 46.28 48.5186 46.3125 48.5557Z" fill="#263238"/>
<path d="M49.0032 46.6871C48.8092 47.202 48.4933 47.6558 48.0856 48.0053C47.8568 48.1849 47.5804 48.2846 47.2952 48.2907C46.67 48.3078 46.5021 47.7486 46.4832 47.235C46.4725 46.9613 46.4934 46.6873 46.5454 46.4189C47.3166 46.7822 48.1778 46.8761 49.0032 46.6871Z" fill="white"/>
<path d="M48.6297 47.4141C48.5999 47.4569 48.5674 47.5054 48.5322 47.5482C48.3353 47.5724 48.1364 47.5724 47.9395 47.5482C48.1749 47.5025 48.405 47.4597 48.6297 47.4141Z" fill="#DBDBDB"/>
<path d="M47.3112 47.4944C47.1591 47.4958 47.0074 47.4786 46.8592 47.443C46.7298 47.4078 46.6039 47.3601 46.4829 47.3004C46.4829 47.2833 46.4829 47.2604 46.4829 47.2433C46.4829 47.2262 46.4829 47.1862 46.4829 47.1577C46.752 47.2882 47.0286 47.4007 47.3112 47.4944Z" fill="#DBDBDB"/>
<path d="M48.9517 45.2087C48.9517 45.2087 49.2846 46.35 49.3712 46.8893C49.3712 46.9406 49.2575 46.9863 49.0843 47.0262C49.0843 47.0262 49.0708 47.0262 49.0626 47.0262C48.6306 47.1896 48.1642 47.2247 47.7145 47.1276C47.2649 47.0304 46.8491 46.8049 46.5129 46.4755C46.5014 46.4665 46.4938 46.4529 46.4918 46.438C46.4897 46.423 46.4934 46.4078 46.502 46.3956C46.5107 46.3835 46.5235 46.3755 46.5377 46.3734C46.5519 46.3713 46.5663 46.3752 46.5778 46.3842C47.3156 46.746 48.1446 46.8461 48.9408 46.6696C48.9408 46.5126 48.302 44.7294 48.3859 44.7294C48.7405 44.7294 49.3739 44.7836 49.6094 44.8035C49.4064 44.0617 48.7351 41.9874 48.3697 40.635C48.3481 40.5522 48.4699 40.5009 48.4996 40.5779C49.1676 42.0693 49.7409 43.6058 50.2157 45.1773C50.2509 45.3086 49.1736 45.2629 48.9517 45.2087Z" fill="#263238"/>
<path d="M43.6949 42.8977C43.6984 42.6958 43.7535 42.4986 43.8546 42.3271C43.9142 42.2375 43.9906 42.1616 44.079 42.1042C44.1675 42.0468 44.2661 42.0091 44.3688 41.9932C44.4741 41.9801 44.5808 41.9932 44.6805 42.0313C44.7801 42.0695 44.8699 42.1317 44.9427 42.2129C45.0684 42.3572 45.161 42.53 45.2134 42.7179C45.2415 42.8306 45.2632 42.9449 45.2783 43.0603C45.3103 43.3007 45.29 43.5456 45.2188 43.7765C45.2064 43.6013 45.1755 43.4281 45.1267 43.2601C45.0852 43.109 45.0336 42.9613 44.9725 42.8178C44.8398 42.5325 44.6395 42.2957 44.4094 42.3413C44.1794 42.387 44.0143 42.6038 43.9547 42.912C43.9042 43.2439 43.8843 43.5803 43.8952 43.9163C43.7561 43.5971 43.6876 43.2488 43.6949 42.8977Z" fill="#263238"/>
<path d="M51.0685 41.3856C50.9936 41.2028 50.8729 41.045 50.7193 40.9291C50.6323 40.8693 50.5345 40.829 50.432 40.8108C50.3295 40.7927 50.2246 40.797 50.1238 40.8235C50.0216 40.8526 49.9273 40.9069 49.8487 40.9817C49.7702 41.0566 49.7095 41.15 49.6718 41.2544C49.6065 41.4362 49.5833 41.6318 49.6041 41.825C49.6166 41.9406 49.6374 42.0551 49.6664 42.1674C49.7201 42.4036 49.8269 42.6228 49.9776 42.8065C49.9249 42.6402 49.8913 42.4677 49.8775 42.2929C49.8654 42.1353 49.8654 41.9769 49.8775 41.8193C49.8937 41.4969 49.9966 41.2058 50.2267 41.1573C50.4567 41.1088 50.6868 41.2401 50.8546 41.514C51.02 41.8017 51.1587 42.1056 51.2688 42.4213C51.2814 42.0642 51.2127 41.7091 51.0685 41.3856Z" fill="#263238"/>
<path d="M33.9563 45.6655C37.2179 45.7026 38.685 41.5141 37.7457 38.2785C37.7457 38.2785 46.4507 38.9461 46.4534 31.6133C47.1155 32.5634 47.9893 33.3272 48.9975 33.8372C50.0058 34.3472 51.1177 34.5879 52.2351 34.5379L53.353 37.1714C54.2245 36.8462 55.0176 34.1356 52.7331 32.1868C52.7331 32.1868 52.3812 28.5547 49.7097 26.526C48.9865 25.9411 48.1184 25.589 47.2098 25.5121C46.3012 25.4351 45.3909 25.6366 44.5884 26.0923C43.0206 25.0396 41.1258 24.6713 39.3048 25.0652C36.1596 25.6929 35.02 28.8314 35.02 28.8314C35.02 28.8314 30.7894 29.9727 30.2426 33.2083C30.0662 34.131 30.0775 35.0827 30.2758 36.0005C30.4741 36.9183 30.8549 37.7812 31.393 38.5324C31.393 38.5324 30.3915 39.8592 31.0898 42.5583C31.5283 44.2788 32.9791 45.6655 33.9563 45.6655Z" fill="#263238"/>
<path d="M46.2205 30.9824C46.3195 31.5708 46.3594 32.1685 46.3396 32.7657C46.3358 33.3549 46.2631 33.9414 46.1231 34.5119C45.8562 35.6409 45.1951 36.6221 44.2717 37.2595C43.3757 37.9472 42.2281 38.1155 41.1345 38.2981C40.5742 38.3152 40.0112 38.3751 39.4455 38.358C38.8798 38.3409 38.3141 38.2953 37.7402 38.2838C38.3005 38.3894 38.8663 38.4722 39.4347 38.5692C40.0031 38.6662 40.5796 38.6063 41.1589 38.6262C42.2957 38.5064 43.4921 38.3409 44.4909 37.6133C45.4852 36.9101 46.1789 35.8245 46.4235 34.5889C46.6451 33.3879 46.5752 32.1474 46.2205 30.9824Z" fill="#263238"/>
<path d="M35.0199 28.8311C33.923 28.9085 32.853 29.2242 31.8774 29.7584C30.8591 30.2875 30.051 31.1788 29.5956 32.2749C29.4045 32.8329 29.2994 33.4195 29.2843 34.0125C29.2488 34.6011 29.3092 35.1917 29.4629 35.7587C29.7521 36.9063 30.4413 37.8966 31.3929 38.532C30.5727 37.8021 30.0022 36.8089 29.7688 35.7045C29.5403 34.6228 29.6117 33.4947 29.9745 32.4547C30.1619 31.9488 30.4373 31.4843 30.7865 31.0851C31.1573 30.6921 31.5728 30.349 32.0235 30.0637C32.9541 29.488 33.9655 29.0719 35.0199 28.8311Z" fill="#263238"/>
<path d="M44.5991 26.1036C45.3962 25.7398 46.2432 25.5125 47.1083 25.4303C47.9514 25.3439 48.8015 25.4873 49.5769 25.8469C50.3352 26.2401 50.9869 26.829 51.4716 27.5588C51.9719 28.3077 52.3658 29.1295 52.6409 29.9983C52.511 29.0679 52.1995 28.1761 51.726 27.379C51.2676 26.538 50.5735 25.8671 49.739 25.4585C48.9044 25.0498 47.9704 24.9233 47.065 25.0965C46.1836 25.2402 45.3423 25.5838 44.5991 26.1036Z" fill="#263238"/>
<path d="M50.9111 34.9288C49.9454 34.6488 49.0307 34.2014 48.2043 33.605C47.8005 33.3075 47.4364 32.9544 47.1216 32.555C46.8036 32.1428 46.5312 31.6939 46.3096 31.2168C46.3848 31.7614 46.5693 32.2827 46.8509 32.7461C47.1332 33.2178 47.5012 33.6261 47.9336 33.9473C48.3625 34.268 48.8365 34.5155 49.3384 34.6806C49.8451 34.8585 50.3772 34.9425 50.9111 34.9288Z" fill="#263238"/>
<path d="M44.0497 47.1719C43.334 47.225 42.6185 47.0653 41.9847 46.711C41.3509 46.3566 40.8241 45.8219 40.4644 45.1675C40.1046 44.5132 39.9264 43.7656 39.9498 43.0097C39.9733 42.2538 40.1975 41.5201 40.597 40.8919C40.9965 40.2637 41.5553 39.7664 42.2097 39.4564C42.8642 39.1465 43.588 39.0364 44.2989 39.1387C45.0097 39.241 45.6791 39.5515 46.2308 40.035C46.7825 40.5184 47.1944 41.1554 47.4196 41.8735C47.7365 42.891 47.6581 43.9993 47.2015 44.956C46.7449 45.9127 45.9474 46.6397 44.9835 46.9779C44.6808 47.0822 44.3672 47.1473 44.0497 47.1719ZM43.5489 39.6508C43.2727 39.6719 43 39.7284 42.7369 39.8192C41.9353 40.0984 41.2648 40.6892 40.862 41.4713C40.4591 42.2534 40.3542 43.1679 40.5685 44.0286C40.7828 44.8894 41.3003 45.6317 42.0156 46.1044C42.731 46.577 43.5903 46.7446 44.4186 46.5728C45.247 46.4011 45.9821 45.903 46.4744 45.18C46.9666 44.457 47.1789 43.5634 47.068 42.6812C46.9572 41.799 46.5315 40.9945 45.8777 40.4315C45.2239 39.8685 44.3911 39.5893 43.5489 39.6508Z" fill="#FFC727"/>
<path d="M52.3483 45.4256C50.8839 45.5341 49.4547 44.0532 49.0812 41.9818C48.8892 40.9952 48.9932 39.9701 49.379 39.0487C49.5225 38.6425 49.7631 38.2823 50.0775 38.003C50.3919 37.7236 50.7694 37.5346 51.1735 37.4543C51.5775 37.3739 51.9944 37.4049 52.3838 37.5443C52.7731 37.6837 53.1217 37.9267 53.3958 38.2498C54.074 38.9578 54.5255 39.8716 54.6869 40.8633C55.0794 43.0518 54.1456 45.0833 52.5973 45.3914C52.5151 45.4084 52.4319 45.4199 52.3483 45.4256ZM51.4605 37.9616C51.3955 37.9616 51.3332 37.9616 51.2683 37.9873C50.9496 38.0673 50.6537 38.2266 50.4055 38.452C50.1573 38.6774 49.964 38.9622 49.8418 39.2826C49.5005 40.1005 49.4106 41.0104 49.5847 41.8848C49.9257 43.7793 51.2304 45.1175 52.5026 44.8636C53.7747 44.6096 54.5245 42.8663 54.1835 40.9689C54.0433 40.0873 53.6448 39.2742 53.0439 38.6435C52.8398 38.4195 52.5935 38.2432 52.3207 38.1257C52.048 38.0082 51.7549 37.9523 51.4605 37.9616Z" fill="#FFC727"/>
<path d="M47.4113 42.3499L47.0757 42.0645C47.4817 41.5424 48.4913 40.7492 49.4252 41.4682L49.1545 41.8334C48.3343 41.1858 47.4492 42.3042 47.4113 42.3499Z" fill="#FFC727"/>
<path d="M32.2481 46.2702L31.834 46.1389C31.8935 45.9364 32.4241 44.1417 33.3417 43.7907C34.2024 43.4655 39.9895 42.8948 40.2358 42.8691L40.2764 43.3228C38.6171 43.4854 34.1537 43.9648 33.4905 44.2187C32.8842 44.4527 32.3889 45.7794 32.2481 46.2702Z" fill="#FFC727"/>
<path d="M37.2743 45.1742C37.2743 45.1742 34.3889 41.99 32.9841 43.1256C31.5793 44.2612 34.1074 49.1488 36.013 49.5654C36.2533 49.6368 36.5049 49.6562 36.7526 49.6226C37.0002 49.589 37.2389 49.503 37.4543 49.3698C37.6696 49.2366 37.8573 49.0589 38.0059 48.8473C38.1545 48.6358 38.261 48.3948 38.3191 48.1388L37.2743 45.1742Z" fill="#AD6359"/>
<path d="M33.7422 44.5068C33.7368 44.5087 33.7321 44.5123 33.7288 44.5172C33.7254 44.5221 33.7236 44.5279 33.7236 44.5339C33.7236 44.5399 33.7254 44.5458 33.7288 44.5507C33.7321 44.5555 33.7368 44.5592 33.7422 44.561C35.0956 44.8949 35.9293 46.0247 36.5816 47.2317C36.135 46.798 35.5829 46.6097 35.0253 47.1832C34.9955 47.2145 35.0253 47.263 35.0713 47.2488C35.2828 47.1388 35.5213 47.1003 35.7544 47.1386C35.9874 47.1769 36.2035 47.2901 36.3732 47.4628C36.6541 47.7553 36.9046 48.0786 37.1203 48.4272C37.1961 48.5356 37.391 48.4272 37.3287 48.3102L37.3125 48.2788C37.0959 46.5754 35.4989 44.3984 33.7422 44.5068Z" fill="#263238"/>
<path d="M34.2677 55.6519C33.8238 55.0812 36.6794 53.3693 37.4211 54.0141C38.1627 54.6589 41.917 64.6966 40.6989 75.5874C39.4809 86.4782 19.4833 98.2135 18.7389 96.5843C18.4304 95.8995 18.8256 93.9907 19.3128 93.3801C19.9976 92.5242 34.4382 83.0743 35.8647 76.3207C37.1314 70.3146 35.3937 57.1355 34.2677 55.6519Z" fill="#455A64"/>
<path d="M45.525 55.4237C44.924 54.2224 48.0179 55.1897 48.3562 55.8374C48.6946 56.4851 52.8305 66.8908 53.5451 73.6929C53.8158 76.4177 54.8308 83.7534 54.8308 83.7534C54.8308 83.7534 51.8101 73.9126 49.3198 65.6725C48.2614 62.1752 46.9939 58.7521 45.525 55.4237Z" fill="#455A64"/>
<path d="M104.072 98.3812C104.072 98.3812 107.239 86.3377 109.756 82.249C112.274 78.1603 117 73.6665 117 73.6665C117 73.6665 116.9 92.2325 104.072 98.3812Z" fill="#8B732E"/>
<path d="M104.3 98.1644C105.365 96.2829 106.328 94.3385 107.182 92.3409C107.546 90.1887 108.072 88.0706 108.755 86.0067C108.769 85.9697 108.82 85.9896 108.812 86.0296C108.392 87.9298 107.902 89.8158 107.459 91.7132C108.736 88.7829 109.951 85.8156 111.473 83.0451C111.824 81.7062 112.317 80.4131 112.942 79.1904C112.959 79.1561 113.013 79.1733 112.997 79.2103C112.611 80.1525 112.281 81.1187 112.009 82.1035C112.726 80.8671 113.53 79.6893 114.415 78.5798C114.472 78.5113 114.583 78.5798 114.526 78.6625C112.49 81.4159 111.086 84.5459 109.748 87.7158C111.187 86.0616 112.515 84.3035 113.722 82.4545C113.722 82.4373 113.76 82.4545 113.749 82.4744C112.492 84.5476 111.068 86.5035 109.494 88.3207C108.52 90.6432 107.561 92.9743 106.4 95.1856C108.723 93.1056 110.509 90.415 112.277 87.8185C112.28 87.8125 112.285 87.8074 112.291 87.8035C112.297 87.7995 112.304 87.7968 112.31 87.7955C112.317 87.7941 112.324 87.7942 112.331 87.7957C112.338 87.7973 112.344 87.8002 112.35 87.8043C112.355 87.8084 112.36 87.8137 112.364 87.8198C112.368 87.8259 112.37 87.8327 112.372 87.8398C112.373 87.847 112.373 87.8543 112.371 87.8615C112.37 87.8686 112.367 87.8753 112.363 87.8813C110.593 90.7345 108.763 93.4137 106.219 95.5223C105.703 96.4933 105.136 97.4326 104.519 98.3356C104.497 98.3662 104.465 98.3866 104.429 98.3922C104.394 98.3978 104.357 98.3882 104.328 98.3655C104.299 98.3428 104.28 98.3089 104.274 98.2711C104.269 98.2334 104.278 98.195 104.3 98.1644Z" fill="#263238"/>
<path d="M103.09 99.4656C103.09 99.4656 108.774 88.3608 107.128 77.5956C105.482 66.8303 103.704 62.9956 103.704 62.9956C103.704 62.9956 94.7581 79.7412 103.09 99.4656Z" fill="#8B732E"/>
<path d="M100.754 82.0095C101.236 85.0599 101.972 88.0597 102.952 90.9743C102.968 87.0226 103.039 83.0737 103.139 79.122C102.496 76.7246 102.132 74.2536 102.056 71.7635C102.056 71.6922 102.156 71.695 102.162 71.7635C102.342 73.8976 102.676 76.0141 103.16 78.0948C103.247 74.8364 103.346 71.578 103.458 68.3197C103.458 68.3083 103.462 68.2974 103.47 68.2894C103.478 68.2814 103.488 68.2769 103.499 68.2769C103.51 68.2769 103.52 68.2814 103.527 68.2894C103.535 68.2974 103.539 68.3083 103.539 68.3197C103.539 73.4098 103.539 78.5 103.507 83.593C104.201 81.6245 104.75 79.6021 105.147 77.5442C105.149 77.5404 105.151 77.5373 105.154 77.535C105.157 77.5328 105.161 77.5316 105.165 77.5316C105.169 77.5316 105.172 77.5328 105.175 77.535C105.179 77.5373 105.181 77.5404 105.182 77.5442C105.009 79.9209 104.327 82.2206 103.501 84.4261C103.48 87.6817 103.447 90.9344 103.377 94.1899C104.341 90.7289 105.369 87.3792 105.648 83.7214C105.648 83.7165 105.649 83.7117 105.651 83.7072C105.652 83.7027 105.655 83.6986 105.658 83.6952C105.662 83.6917 105.665 83.689 105.67 83.6871C105.674 83.6853 105.679 83.6843 105.683 83.6843C105.688 83.6843 105.692 83.6853 105.697 83.6871C105.701 83.689 105.705 83.6917 105.708 83.6952C105.711 83.6986 105.714 83.7027 105.716 83.7072C105.717 83.7117 105.718 83.7165 105.718 83.7214C105.645 87.753 104.663 91.8446 103.409 95.6365C103.396 95.6739 103.373 95.7072 103.344 95.7335C103.317 96.9205 103.285 98.1093 103.247 99.3C103.247 99.3349 103.234 99.3682 103.211 99.3929C103.187 99.4175 103.156 99.4313 103.123 99.4313C103.09 99.4313 103.058 99.4175 103.034 99.3929C103.011 99.3682 102.998 99.3349 102.998 99.3C102.951 96.8672 102.932 94.4343 102.941 92.0015C101.664 88.8629 100.981 85.3848 100.697 82.0152C100.703 81.9838 100.751 81.9781 100.754 82.0095Z" fill="#263238"/>
<path d="M101.143 80.2917C101.344 81.258 101.477 82.2383 101.541 83.2249C101.541 83.2591 101.495 83.262 101.487 83.2249C101.266 82.2629 101.109 81.2856 101.019 80.3003C101.011 80.2318 101.13 80.2176 101.143 80.2917Z" fill="#263238"/>
<path d="M104.476 72.1744C104.476 72.1402 104.53 72.1516 104.53 72.1744C104.523 72.8594 104.426 73.5401 104.243 74.1974C104.229 74.2516 104.156 74.2259 104.167 74.1746C104.289 73.5155 104.365 72.845 104.476 72.1744Z" fill="#263238"/>
<path d="M101.016 100.316C101.016 100.316 101.246 88.723 98.1093 82.9623C94.9722 77.2016 89.7671 74.2656 89.7671 74.2656C89.7671 74.2656 91.8648 94.6976 101.016 100.316Z" fill="#8B732E"/>
<path d="M95.2968 90.4039C96.615 92.4154 97.9278 94.3556 99.5437 96.1104C98.9157 93.7403 98.1939 91.4102 97.3783 89.12C95.6189 87.4851 93.8757 85.7902 92.7957 83.5533C92.7795 83.5191 92.8282 83.4877 92.8472 83.5219C94.0084 85.5021 95.5539 87.0885 97.1915 88.6121C95.9336 85.1608 94.4755 81.7943 92.8255 78.5316C92.8199 78.5154 92.8199 78.4975 92.8254 78.4813C92.831 78.465 92.8417 78.4512 92.8559 78.4424C92.87 78.4336 92.8866 78.4303 92.9028 78.4331C92.919 78.4358 92.9338 78.4444 92.9446 78.4574C93.948 80.1681 94.8624 81.9349 95.6839 83.7502C95.3888 82.509 95.1425 81.2422 94.8529 80.0125C94.8511 80.0056 94.8519 79.9984 94.8552 79.9922C94.8585 79.9861 94.864 79.9815 94.8705 79.9796C94.8769 79.9778 94.8838 79.9786 94.8897 79.9821C94.8955 79.9856 94.8998 79.9914 94.9016 79.9982C95.4592 81.5475 96.0114 83.2594 96.19 84.9143C97.2889 87.4857 98.2125 90.1364 98.9536 92.8463C98.8724 91.1087 98.7696 89.3796 98.6018 87.6448C98.6018 87.6135 98.6505 87.6049 98.6559 87.6448C99.0042 89.5683 99.1629 91.5246 99.1296 93.4826C99.5816 95.2088 99.9633 96.9578 100.269 98.7182C100.269 98.7667 100.212 98.7867 100.201 98.7382C100.031 97.9992 99.8442 97.2688 99.6601 96.5384C99.6601 96.5384 99.6357 96.5384 99.6249 96.5384C97.9413 94.7494 96.3443 92.715 95.2941 90.4353C95.2724 90.4011 95.2887 90.3925 95.2968 90.4039Z" fill="#263238"/>
<path d="M91.6614 80.9711C92.0105 81.3706 92.3299 81.7929 92.6683 82.2037C92.9963 82.5516 93.2986 82.9256 93.5723 83.3222C93.5723 83.3393 93.5723 83.3593 93.548 83.3479C93.1529 83.038 92.8012 82.6711 92.5032 82.258C92.1729 81.8694 91.8741 81.4523 91.6099 81.0111C91.591 80.9797 91.637 80.9426 91.6614 80.9711Z" fill="#263238"/>
<path d="M110.339 98.9009L109.943 102.61L108.75 113.858H98.3557L97.1674 102.616L96.7695 98.9066H110.341L110.339 98.9009Z" fill="#455A64"/>
<path d="M110.339 98.9009L109.943 102.61H97.1674L96.7695 98.9009H110.341H110.339Z" fill="#37474F"/>
<path d="M95.8435 100.413H111.261V96.2041H95.8435V100.413Z" fill="#455A64"/>
<path d="M96.2609 109.98H65.1602V113.86H96.2609V109.98Z" fill="#37474F"/>
<path d="M72.5275 109.98H71.2607V113.86H72.5275V109.98Z" fill="#455A64"/>
<path d="M92.6012 109.98H89.5615V113.86H92.6012V109.98Z" fill="#455A64"/>
<path d="M94.022 98.6353H62.2554V103.763H94.022V98.6353Z" fill="#37474F"/>
<path d="M88.4028 100.298H80.7725V102.099H88.4028V100.298Z" fill="#FFC727"/>
<path d="M92.2276 101.197C92.2406 101.41 92.1926 101.623 92.0898 101.806C91.9869 101.99 91.834 102.137 91.6509 102.228C91.4678 102.319 91.2629 102.35 91.0629 102.317C90.8629 102.284 90.677 102.188 90.5293 102.042C90.3816 101.896 90.279 101.707 90.2348 101.498C90.1906 101.29 90.2068 101.073 90.2814 100.874C90.3559 100.676 90.4854 100.505 90.6529 100.385C90.8204 100.266 91.0182 100.202 91.2207 100.202C91.4794 100.193 91.7308 100.293 91.9196 100.48C92.1083 100.667 92.2191 100.925 92.2276 101.197Z" fill="#FFC727"/>
<path d="M76.7721 94.0986H60.7236V98.6239H76.7721V94.0986Z" fill="#263238"/>
<path d="M91.6051 94.0986H76.772V98.6239H91.6051V94.0986Z" fill="#263238"/>
<path d="M76.7721 94.5693H60.7236V98.1559H76.7721V94.5693Z" fill="white"/>
<path d="M62.1201 95.3112C63.8019 95.2883 65.4837 95.2712 67.1655 95.2598L69.4473 95.2427L74.49 95.2598C76.1709 95.2598 75.0909 95.2855 76.7718 95.3112C75.0909 95.3368 76.1709 95.3539 74.49 95.3654L69.4473 95.3796L67.1655 95.3654C65.4837 95.3501 63.8019 95.3321 62.1201 95.3112Z" fill="#DBDBDB"/>
<path d="M62.1201 96.0104C63.8019 95.9856 65.4837 95.9685 67.1655 95.959L69.4473 95.9419L74.49 95.9562C76.1709 95.9562 75.0909 95.9847 76.7718 96.0104C75.0909 96.0361 76.1709 96.0532 74.49 96.0617L69.4473 96.0789L67.1655 96.0617C65.4837 96.0541 63.8019 96.037 62.1201 96.0104Z" fill="#DBDBDB"/>
<path d="M62.1201 96.7126C63.8019 96.6898 65.4837 96.6727 67.1655 96.6612L69.4473 96.647L74.49 96.6612C76.1709 96.6612 75.0909 96.6898 76.7718 96.7126C75.0909 96.7383 76.1709 96.7583 74.49 96.7668H69.4473H67.1655C65.4837 96.7573 63.8019 96.7392 62.1201 96.7126Z" fill="#DBDBDB"/>
<path d="M62.1201 97.4171C63.8019 97.3924 65.4837 97.3753 67.1655 97.3658L69.4473 97.3486L74.49 97.3658C76.1709 97.3658 75.0909 97.3914 76.7718 97.4171C75.0909 97.4428 76.1709 97.4599 74.49 97.4685L69.4473 97.4856L67.1655 97.4685C65.4837 97.4609 63.8019 97.4437 62.1201 97.4171Z" fill="#DBDBDB"/>
<path d="M82.1477 94.0986H80.0581V98.6239H82.1477V94.0986Z" fill="#455A64"/>
<path d="M90.8389 94.0986H89.4341V98.6239H90.8389V94.0986Z" fill="#455A64"/>
<path d="M74.6418 109.977H92.7148V103.757H74.6418V109.977Z" fill="#FFC727"/>
<path d="M60.9183 109.977H74.6416V103.757H60.9183V109.977Z" fill="#8B732E"/>
<path d="M74.6418 109.332H92.7148V104.404H74.6418V109.332Z" fill="white"/>
<path d="M91.5429 108.319C90.1354 108.346 88.727 108.363 87.3177 108.37L83.0924 108.387L78.8671 108.37C77.4578 108.37 76.0485 108.353 74.6392 108.319C76.0503 108.294 77.4596 108.277 78.8671 108.268L83.0924 108.25L87.3177 108.268C88.727 108.277 90.1354 108.294 91.5429 108.319Z" fill="#DBDBDB"/>
<path d="M91.5429 107.352C90.1354 107.378 88.727 107.395 87.3177 107.403L83.0924 107.42L78.8671 107.406C77.4578 107.394 76.0485 107.376 74.6392 107.352C76.0503 107.327 77.4596 107.31 78.8671 107.3L83.0924 107.294L87.3177 107.312C88.727 107.313 90.1354 107.327 91.5429 107.352Z" fill="#DBDBDB"/>
<path d="M91.5429 106.385C90.1354 106.41 88.727 106.428 87.3177 106.439L83.0924 106.453L78.8671 106.439C77.4578 106.428 76.0485 106.41 74.6392 106.385C76.0503 106.36 77.4596 106.343 78.8671 106.334L83.0924 106.316L87.3177 106.334C88.727 106.343 90.1354 106.36 91.5429 106.385Z" fill="#DBDBDB"/>
<path d="M91.5429 105.418C90.1354 105.442 88.727 105.46 87.3177 105.472L83.0924 105.486L78.8671 105.472C77.4578 105.472 76.0485 105.454 74.6392 105.418C76.0503 105.391 77.4596 105.374 78.8671 105.366L83.0924 105.349L87.3177 105.366C88.7279 105.375 90.13 105.395 91.5429 105.418Z" fill="#DBDBDB"/>
<path d="M65.6718 103.76H63.103V109.98H65.6718V103.76Z" fill="#455A64"/>
<path d="M76.0331 19.8889C76.0326 21.7768 75.5347 23.6275 74.5948 25.2346C73.655 26.8416 72.3101 28.1419 70.7102 28.9905C69.1104 29.839 67.3183 30.2025 65.5339 30.0403C63.7496 29.8781 62.043 29.1967 60.6045 28.072L55.8677 29.3474L57.8409 24.6966C57.1469 23.33 56.7576 21.8146 56.7027 20.2656C56.6478 18.7166 56.9287 17.1748 57.5241 15.7574C58.1195 14.3401 59.0136 13.0845 60.1386 12.0862C61.2635 11.0879 62.5896 10.3731 64.016 9.99629C65.4424 9.61944 66.9316 9.59043 68.3702 9.91146C69.8088 10.2325 71.1591 10.8951 72.3182 11.8489C73.4774 12.8027 74.415 14.0226 75.0596 15.4158C75.7043 16.809 76.0391 18.3388 76.0385 19.8889H76.0331Z" fill="white"/>
<path d="M76.033 19.8891C76.0304 21.7775 75.534 23.6285 74.5984 25.2389C74.3635 25.6348 74.1068 26.0159 73.8296 26.3802C73.5414 26.7387 73.2322 27.078 72.9039 27.3959C72.7437 27.559 72.5757 27.7133 72.4005 27.8582L71.8591 28.2833C71.6805 28.4231 71.4829 28.5344 71.2934 28.6628L71.0092 28.8482C70.9118 28.9053 70.8089 28.9538 70.7115 29.0052C70.5085 29.1079 70.3109 29.2163 70.1078 29.3133L69.4799 29.5615C69.2709 29.6459 69.0565 29.7145 68.8384 29.767C68.6218 29.8212 68.4107 29.8982 68.1887 29.9325C67.7494 30.0237 67.3043 30.0809 66.857 30.1037C66.4066 30.1414 65.9541 30.1414 65.5036 30.1037C64.6089 30.0265 63.7283 29.821 62.8862 29.4931C62.0445 29.1585 61.2497 28.7055 60.5232 28.1463L60.6044 28.1635L55.873 29.4588L55.6348 29.5245L55.7349 29.2876L57.6973 24.6312V24.7539C56.9953 23.3725 56.608 21.8379 56.5659 20.2714C56.5119 18.7019 56.7994 17.1402 57.4066 15.7059C58.0137 14.2717 58.9242 13.003 60.0685 11.9971C61.2081 10.9979 62.5498 10.2873 63.9906 9.9199C65.4218 9.55422 66.9131 9.53527 68.3523 9.86447C69.7915 10.1937 71.1412 10.8624 72.3 11.8206C73.4587 12.7787 74.3964 14.0012 75.0425 15.3962C75.6886 16.7912 76.0263 18.3224 76.0303 19.8748L76.033 19.8891ZM76.033 19.8891C76.0253 18.3419 75.6846 16.8167 75.0366 15.4284C74.3887 14.0401 73.4503 12.8249 72.2922 11.8744C71.1312 10.9354 69.7855 10.2822 68.3539 9.9627C66.92 9.65825 65.4393 9.70019 64.023 10.0854C62.6128 10.4648 61.3036 11.1792 60.1957 12.174C59.0974 13.1751 58.2205 14.4178 57.6269 15.8147C57.0429 17.2136 56.768 18.7341 56.8229 20.2613C56.8777 21.7886 57.261 23.2828 57.9436 24.6312L57.9734 24.6911L57.9491 24.7539L55.9704 29.4018L55.8324 29.2277L60.5773 27.9752H60.6206L60.6585 28.0037C62.0744 29.1348 63.7619 29.8266 65.5307 30.0009C65.9716 30.0447 66.4151 30.0514 66.857 30.0209C67.2991 30.0019 67.7396 29.9514 68.1752 29.8697C68.3945 29.8383 68.6056 29.7613 68.8221 29.7099C69.0394 29.6623 69.2529 29.5974 69.4609 29.5159L70.0862 29.2791L70.6871 28.9795C70.7872 28.9281 70.8901 28.8825 70.9875 28.8254L71.2582 28.6457C71.445 28.523 71.6453 28.4145 71.8239 28.2776L72.3653 27.8582C72.5407 27.7145 72.7087 27.5612 72.8688 27.3988C73.1963 27.083 73.5054 26.7467 73.7945 26.3916C74.0733 26.028 74.3309 25.6469 74.5659 25.2503C75.5148 23.6402 76.0226 21.7846 76.033 19.8891Z" fill="#263238"/>
<path d="M64.7945 25.9552L60.4609 21.3301L61.9172 19.8122L64.448 22.5142L69.71 13.8232L71.4342 14.9817L64.7945 25.9552Z" fill="#FFC727"/>
</svg>
