<svg width="169" height="40" viewBox="0 0 169 40" fill="none" xmlns="http://www.w3.org/2000/svg">
<path d="M17.7019 9.05615L14.3029 3.90089C14.1177 3.61997 13.8388 3.43768 13.5074 3.38081L7.42143 2.33498C6.90788 2.24668 6.41991 2.99306 6.7068 3.42806L7.2994 4.3268C6.91123 4.52445 6.54749 4.83731 6.26024 5.25255C6.00999 5.27786 5.7386 5.4413 5.55222 5.72638C5.38324 5.98484 5.33763 6.26544 5.38579 6.49543L3.15098 8.96605C2.95664 9.1809 2.93725 9.49267 3.11118 9.60638L4.06513 10.2301C4.23923 10.3439 4.51704 10.2011 4.63589 9.93686L6.00261 6.89869C6.2326 6.85055 6.47134 6.69622 6.64032 6.43775C6.82168 6.16035 6.86341 5.85634 6.79526 5.61945C7.04363 5.26777 7.38236 5.03473 7.72262 4.96901L10.1057 8.58355C10.2161 8.75091 10.4572 9.02729 10.9012 9.10364L16.9871 10.1495C17.501 10.2376 17.9888 9.4915 17.7019 9.05615ZM10.5815 9.94155C9.95913 9.83447 9.62169 9.44821 9.46637 9.2125L7.69914 6.53243L5.67955 9.09516C5.12543 9.94273 6.13779 11.5851 7.94063 12.7638C9.74348 13.9424 11.654 14.211 12.2081 13.3634L13.7457 10.4852L10.5815 9.94155Z" fill="#D176FF"/>
<path d="M10.3069 12.5025C10.2948 12.4824 10.2565 12.4492 10.2212 12.4187C10.1893 12.3911 10.1599 12.3657 10.1548 12.3542C9.69592 12.1141 8.93701 11.8709 8.3639 11.6918C8.65774 11.9141 8.95051 12.1928 8.61355 12.2536C8.8712 12.5175 9.68218 12.5139 10.2082 12.5043L10.124 12.467C10.0209 12.4259 9.86688 12.3582 9.64262 12.2536L10.124 12.467C10.1649 12.4833 10.1978 12.4954 10.2239 12.504C10.2525 12.5035 10.2802 12.503 10.3069 12.5025Z" fill="#D176FF"/>
<path d="M7.79461 11.4228L7.92361 11.5537C8.01578 11.5833 8.12336 11.6168 8.24138 11.6536C8.2811 11.666 8.322 11.6787 8.3639 11.6918C8.23093 11.5912 8.09773 11.5022 8.02257 11.4501C7.93088 11.438 7.85537 11.429 7.79461 11.4228Z" fill="#D176FF"/>
<path fill-rule="evenodd" clip-rule="evenodd" d="M10.1548 12.3542C10.1599 12.3657 10.1893 12.3911 10.2212 12.4187C10.2565 12.4492 10.2948 12.4824 10.3069 12.5025L10.2239 12.504C10.1978 12.4954 10.1649 12.4833 10.124 12.467L9.64262 12.2536C9.86688 12.3582 10.0209 12.4259 10.124 12.467L10.2082 12.5043L10.2239 12.504C10.3033 12.5302 10.3196 12.5235 10.3069 12.5025C10.3286 12.502 10.3496 12.5016 10.3699 12.5013L10.5385 12.6508C10.5125 12.602 10.463 12.5519 10.3949 12.5009C10.4331 12.5003 10.4683 12.4999 10.5 12.4999C10.3578 12.4288 10.269 12.3871 10.2171 12.3659L10.2896 12.4302C10.2484 12.405 10.2033 12.3796 10.1548 12.3542ZM10.2896 12.4302L10.3699 12.5013C10.3784 12.5012 10.3867 12.501 10.3949 12.5009C10.3636 12.4775 10.3284 12.4539 10.2896 12.4302ZM8.61355 12.2536C8.95051 12.1928 8.65774 11.9141 8.3639 11.6918C8.322 11.6787 8.2811 11.666 8.24138 11.6536C8.12336 11.6168 8.01578 11.5833 7.92361 11.5537L8.61355 12.2536Z" fill="#D176FF"/>
<path fill-rule="evenodd" clip-rule="evenodd" d="M6.41923 9C5.01728 9.46616 5.19268 9.93095 5.40919 10.0976L5.5 10C5.68998 10.19 5.54187 10.1998 5.40919 10.0976L0.992512 14.8468C-0.0594361 15.9243 0.685277 17.7662 2.17303 17.7662H5.06923C5.0908 18.4583 5.01288 19.1498 4.83797 19.8186L4.20263 22.2489C3.46626 25.0649 3.25504 28.1597 4.82878 30.5891C6.01162 32.4118 7.61172 33.9105 9.48964 34.9546C11.3676 35.9987 13.4663 36.5565 15.6029 36.5794V38.2897H11.4285V40H19.3599V38.2897H17.2727V36.4931C19.9851 36.1803 22.5342 35.0071 24.5637 33.1375C23.1707 33.7188 21.6805 34.0166 20.1764 34.014C13.9924 34.014 8.92387 29.0678 8.92387 22.8971C8.92387 22.6703 9.01183 22.4528 9.1684 22.2924C9.32497 22.1321 9.53733 22.042 9.75875 22.042C9.98017 22.042 10.1925 22.1321 10.3491 22.2924C10.5057 22.4528 10.5936 22.6703 10.5936 22.8971C10.5936 28.0613 14.8532 32.3037 20.1764 32.3037C23.1193 32.3037 25.745 31.003 27.4999 28.9644C27.553 28.902 27.615 28.8481 27.6836 28.8045C28.1011 27.8723 28.4158 26.8821 28.6128 25.8499C28.9209 24.232 29.3759 22.6141 30.3477 21.3006C30.751 20.7558 30.2976 19.987 29.6397 20.0982L18.6903 21.9479C17.8367 22.0921 16.9605 21.9612 16.1828 21.5731C15.405 21.1851 14.7642 20.5591 14.3489 19.7818L11.5771 14.5936L10.5 12.4999L10.6466 12.8526L10.5385 12.6508L10.2082 12.5043C9.68218 12.5139 8.8712 12.5175 8.61355 12.2536L7.92361 11.5537C7.57974 11.4433 7.45054 11.3878 7.79461 11.4228C7.85537 11.429 7.93088 11.438 8.02257 11.4501C7.93487 11.3893 7.92617 11.3788 8.08899 11.4589L8.02257 11.4501C8.09773 11.5022 8.23093 11.5912 8.3639 11.6918C8.93701 11.8709 9.69592 12.1141 10.1548 12.3542C10.1502 12.3438 10.1656 12.3448 10.2171 12.3659L6.41923 9ZM2.17303 16.0559L4.50569 13.6667C4.42533 14.1345 4.44441 14.6146 4.56162 15.0742L4.81042 16.0559H2.17303ZM7.84446 14.0952C7.68789 14.2556 7.47553 14.3457 7.25411 14.3457C7.03269 14.3457 6.82033 14.2556 6.66376 14.0952C6.50719 13.9348 6.41923 13.7173 6.41923 13.4905C6.41923 13.2637 6.50719 13.0462 6.66376 12.8858C6.82033 12.7255 7.03269 12.6354 7.25411 12.6354C7.47553 12.6354 7.68789 12.7255 7.84446 12.8858C8.00103 13.0462 8.08899 13.2637 8.08899 13.4905C8.08899 13.7173 8.00103 13.9348 7.84446 14.0952Z" fill="#D176FF"/>
<path d="M7.79461 11.4228L7.92361 11.5537C7.57974 11.4433 7.45054 11.3878 7.79461 11.4228Z" fill="#D176FF"/>
<path d="M8.02257 11.4501C7.93487 11.3893 7.92617 11.3788 8.08899 11.4589L8.02257 11.4501Z" fill="#D176FF"/>
<path d="M55.172 16.48C54.868 15.92 54.428 15.496 53.852 15.208C53.292 14.904 52.628 14.752 51.86 14.752C50.532 14.752 49.468 15.192 48.668 16.072C47.868 16.936 47.468 18.096 47.468 19.552C47.468 21.104 47.884 22.32 48.716 23.2C49.564 24.064 50.724 24.496 52.196 24.496C53.204 24.496 54.052 24.24 54.74 23.728C55.444 23.216 55.956 22.48 56.276 21.52H51.068V18.496H59.996V22.312C59.692 23.336 59.172 24.288 58.436 25.168C57.716 26.048 56.796 26.76 55.676 27.304C54.556 27.848 53.292 28.12 51.884 28.12C50.22 28.12 48.732 27.76 47.42 27.04C46.124 26.304 45.108 25.288 44.372 23.992C43.652 22.696 43.292 21.216 43.292 19.552C43.292 17.888 43.652 16.408 44.372 15.112C45.108 13.8 46.124 12.784 47.42 12.064C48.716 11.328 50.196 10.96 51.86 10.96C53.876 10.96 55.572 11.448 56.948 12.424C58.34 13.4 59.26 14.752 59.708 16.48H55.172ZM66.3733 16.84C66.8533 16.104 67.4533 15.528 68.1733 15.112C68.8933 14.68 69.6933 14.464 70.5733 14.464V18.808H69.4453C68.4213 18.808 67.6533 19.032 67.1413 19.48C66.6293 19.912 66.3733 20.68 66.3733 21.784V28H62.2693V14.608H66.3733V16.84ZM71.7189 21.28C71.7189 19.904 71.9749 18.696 72.4869 17.656C73.0149 16.616 73.7269 15.816 74.6229 15.256C75.5189 14.696 76.5189 14.416 77.6229 14.416C78.5669 14.416 79.3909 14.608 80.0949 14.992C80.8149 15.376 81.3669 15.88 81.7509 16.504V14.608H85.8549V28H81.7509V26.104C81.3509 26.728 80.7909 27.232 80.0709 27.616C79.3669 28 78.5429 28.192 77.5989 28.192C76.5109 28.192 75.5189 27.912 74.6229 27.352C73.7269 26.776 73.0149 25.968 72.4869 24.928C71.9749 23.872 71.7189 22.656 71.7189 21.28ZM81.7509 21.304C81.7509 20.28 81.4629 19.472 80.8869 18.88C80.3269 18.288 79.6389 17.992 78.8229 17.992C78.0069 17.992 77.3109 18.288 76.7349 18.88C76.1749 19.456 75.8949 20.256 75.8949 21.28C75.8949 22.304 76.1749 23.12 76.7349 23.728C77.3109 24.32 78.0069 24.616 78.8229 24.616C79.6389 24.616 80.3269 24.32 80.8869 23.728C81.4629 23.136 81.7509 22.328 81.7509 21.304ZM88.0079 21.28C88.0079 19.904 88.2639 18.696 88.7759 17.656C89.3039 16.616 90.0159 15.816 90.9119 15.256C91.8079 14.696 92.8079 14.416 93.9119 14.416C94.7919 14.416 95.5919 14.6 96.3119 14.968C97.0479 15.336 97.6239 15.832 98.0399 16.456V10.24H102.144V28H98.0399V26.08C97.6559 26.72 97.1039 27.232 96.3839 27.616C95.6799 28 94.8559 28.192 93.9119 28.192C92.8079 28.192 91.8079 27.912 90.9119 27.352C90.0159 26.776 89.3039 25.968 88.7759 24.928C88.2639 23.872 88.0079 22.656 88.0079 21.28ZM98.0399 21.304C98.0399 20.28 97.7519 19.472 97.1759 18.88C96.6159 18.288 95.9279 17.992 95.1119 17.992C94.2959 17.992 93.5999 18.288 93.0239 18.88C92.4639 19.456 92.1839 20.256 92.1839 21.28C92.1839 22.304 92.4639 23.12 93.0239 23.728C93.5999 24.32 94.2959 24.616 95.1119 24.616C95.9279 24.616 96.6159 24.32 97.1759 23.728C97.7519 23.136 98.0399 22.328 98.0399 21.304ZM117.737 21.088C117.737 21.472 117.713 21.872 117.665 22.288H108.377C108.441 23.12 108.705 23.76 109.169 24.208C109.649 24.64 110.233 24.856 110.921 24.856C111.945 24.856 112.657 24.424 113.057 23.56H117.425C117.201 24.44 116.793 25.232 116.201 25.936C115.625 26.64 114.897 27.192 114.017 27.592C113.137 27.992 112.153 28.192 111.065 28.192C109.753 28.192 108.585 27.912 107.561 27.352C106.537 26.792 105.737 25.992 105.161 24.952C104.585 23.912 104.297 22.696 104.297 21.304C104.297 19.912 104.577 18.696 105.137 17.656C105.713 16.616 106.513 15.816 107.537 15.256C108.561 14.696 109.737 14.416 111.065 14.416C112.361 14.416 113.513 14.688 114.521 15.232C115.529 15.776 116.313 16.552 116.873 17.56C117.449 18.568 117.737 19.744 117.737 21.088ZM113.537 20.008C113.537 19.304 113.297 18.744 112.817 18.328C112.337 17.912 111.737 17.704 111.017 17.704C110.329 17.704 109.745 17.904 109.265 18.304C108.801 18.704 108.513 19.272 108.401 20.008H113.537ZM134.494 11.152V28H130.39V21.064H124.006V28H119.902V11.152H124.006V17.752H130.39V11.152H134.494ZM150.681 14.608V28H146.577V26.176C146.161 26.768 145.593 27.248 144.873 27.616C144.169 27.968 143.385 28.144 142.521 28.144C141.497 28.144 140.593 27.92 139.809 27.472C139.025 27.008 138.417 26.344 137.985 25.48C137.553 24.616 137.337 23.6 137.337 22.432V14.608H141.417V21.88C141.417 22.776 141.649 23.472 142.113 23.968C142.577 24.464 143.201 24.712 143.985 24.712C144.785 24.712 145.417 24.464 145.881 23.968C146.345 23.472 146.577 22.776 146.577 21.88V14.608H150.681ZM157.733 16.504C158.117 15.88 158.669 15.376 159.389 14.992C160.109 14.608 160.933 14.416 161.861 14.416C162.965 14.416 163.965 14.696 164.861 15.256C165.757 15.816 166.461 16.616 166.973 17.656C167.501 18.696 167.765 19.904 167.765 21.28C167.765 22.656 167.501 23.872 166.973 24.928C166.461 25.968 165.757 26.776 164.861 27.352C163.965 27.912 162.965 28.192 161.861 28.192C160.917 28.192 160.093 28.008 159.389 27.64C158.685 27.256 158.133 26.752 157.733 26.128V28H153.629V10.24H157.733V16.504ZM163.589 21.28C163.589 20.256 163.301 19.456 162.725 18.88C162.165 18.288 161.469 17.992 160.637 17.992C159.821 17.992 159.125 18.288 158.549 18.88C157.989 19.472 157.709 20.28 157.709 21.304C157.709 22.328 157.989 23.136 158.549 23.728C159.125 24.32 159.821 24.616 160.637 24.616C161.453 24.616 162.149 24.32 162.725 23.728C163.301 23.12 163.589 22.304 163.589 21.28Z" fill="#1F1F37"/>
</svg>
