<svg width="210" height="48" viewBox="0 0 210 48" fill="none" xmlns="http://www.w3.org/2000/svg">
<path d="M17.2017 13.0561L13.8026 7.90089C13.6174 7.61997 13.3386 7.43768 13.0071 7.38081L6.92118 6.33498C6.40764 6.24668 5.91967 6.99306 6.20655 7.42806L6.79915 8.3268C6.41099 8.52445 6.04725 8.83731 5.76 9.25255C5.50975 9.27786 5.23835 9.4413 5.05197 9.72638C4.883 9.98484 4.83739 10.2654 4.88555 10.4954L2.65073 12.9661C2.45639 13.1809 2.43701 13.4927 2.61093 13.6064L3.56489 14.2301C3.73898 14.3439 4.0168 14.2011 4.13565 13.9369L5.50236 10.8987C5.73235 10.8505 5.97109 10.6962 6.14007 10.4378C6.32143 10.1603 6.36317 9.85634 6.29502 9.61945C6.54338 9.26777 6.88212 9.03473 7.22237 8.96901L9.60544 12.5836C9.7159 12.7509 9.95699 13.0273 10.4009 13.1036L16.4869 14.1495C17.0008 14.2376 17.4886 13.4915 17.2017 13.0561ZM10.0813 13.9416C9.45889 13.8345 9.12145 13.4482 8.96613 13.2125L7.19889 10.5324L5.1793 13.0952C4.62519 13.9427 5.63755 15.5851 7.44039 16.7638C9.24323 17.9424 11.1538 18.211 11.7079 17.3634L13.2455 14.4852L10.0813 13.9416Z" fill="#F9DB38"/>
<path d="M9.80693 16.5025C9.79483 16.4824 9.75646 16.4492 9.72118 16.4187C9.68926 16.3911 9.65988 16.3657 9.65482 16.3542C9.19592 16.1141 8.43701 15.8709 7.8639 15.6918C8.15774 15.9141 8.45051 16.1928 8.11355 16.2536C8.3712 16.5175 9.18218 16.5139 9.70818 16.5043L9.62399 16.467C9.52089 16.4259 9.36688 16.3582 9.14262 16.2536L9.62399 16.467C9.66492 16.4833 9.69783 16.4954 9.72392 16.504C9.75252 16.5035 9.78024 16.503 9.80693 16.5025Z" fill="#F9DB38"/>
<path d="M7.29461 15.4228L7.42361 15.5537C7.51578 15.5833 7.62336 15.6168 7.74138 15.6536C7.7811 15.666 7.822 15.6787 7.8639 15.6918C7.73093 15.5912 7.59773 15.5022 7.52257 15.4501C7.43088 15.438 7.35537 15.429 7.29461 15.4228Z" fill="#F9DB38"/>
<path fill-rule="evenodd" clip-rule="evenodd" d="M9.65482 16.3542C9.65988 16.3657 9.68926 16.3911 9.72118 16.4187C9.75646 16.4492 9.79483 16.4824 9.80693 16.5025L9.72392 16.504C9.69783 16.4954 9.66492 16.4833 9.62399 16.467L9.14262 16.2536C9.36688 16.3582 9.52089 16.4259 9.62399 16.467L9.70818 16.5043L9.72392 16.504C9.80334 16.5302 9.81964 16.5235 9.80693 16.5025C9.82862 16.502 9.84963 16.5016 9.86989 16.5013L10.0385 16.6508C10.0125 16.602 9.96303 16.5519 9.89491 16.5009C9.9331 16.5003 9.96831 16.4999 10 16.4999C9.85779 16.4288 9.76903 16.3871 9.71707 16.3659L9.78964 16.4302C9.74843 16.405 9.7033 16.3796 9.65482 16.3542ZM9.78964 16.4302L9.86989 16.5013C9.87837 16.5012 9.88671 16.501 9.89491 16.5009C9.8636 16.4775 9.82835 16.4539 9.78964 16.4302ZM8.11355 16.2536C8.45051 16.1928 8.15774 15.9141 7.8639 15.6918C7.822 15.6787 7.7811 15.666 7.74138 15.6536C7.62336 15.6168 7.51578 15.5833 7.42361 15.5537L8.11355 16.2536Z" fill="#F9DB38"/>
<path fill-rule="evenodd" clip-rule="evenodd" d="M5.91923 13C4.51728 13.4662 4.69268 13.9309 4.90919 14.0976L5 14C5.18998 14.19 5.04187 14.1998 4.90919 14.0976L0.492512 18.8468C-0.559436 19.9243 0.185277 21.7662 1.67303 21.7662H4.56923C4.5908 22.4583 4.51288 23.1498 4.33797 23.8186L3.70263 26.2489C2.96626 29.0649 2.75504 32.1597 4.32878 34.5891C5.51162 36.4118 7.11172 37.9105 8.98964 38.9546C10.8676 39.9987 12.9663 40.5565 15.1029 40.5794V42.2897H10.9285V44H18.8599V42.2897H16.7727V40.4931C19.4851 40.1803 22.0342 39.0071 24.0637 37.1375C22.6707 37.7188 21.1805 38.0166 19.6764 38.014C13.4924 38.014 8.42387 33.0678 8.42387 26.8971C8.42387 26.6703 8.51183 26.4528 8.6684 26.2924C8.82497 26.1321 9.03733 26.042 9.25875 26.042C9.48017 26.042 9.69253 26.1321 9.8491 26.2924C10.0057 26.4528 10.0936 26.6703 10.0936 26.8971C10.0936 32.0613 14.3532 36.3037 19.6764 36.3037C22.6193 36.3037 25.245 35.003 26.9999 32.9644C27.053 32.902 27.115 32.8481 27.1836 32.8045C27.6011 31.8723 27.9158 30.8821 28.1128 29.8499C28.4209 28.232 28.8759 26.6141 29.8477 25.3006C30.251 24.7558 29.7976 23.987 29.1397 24.0982L18.1903 25.9479C17.3367 26.0921 16.4605 25.9612 15.6828 25.5731C14.905 25.1851 14.2642 24.5591 13.8489 23.7818L11.0771 18.5936L10 16.4999L10.1466 16.8526L10.0385 16.6508L9.70818 16.5043C9.18218 16.5139 8.3712 16.5175 8.11355 16.2536L7.42361 15.5537C7.07974 15.4433 6.95054 15.3878 7.29461 15.4228C7.35537 15.429 7.43088 15.438 7.52257 15.4501C7.43487 15.3893 7.42617 15.3788 7.58899 15.4589L7.52257 15.4501C7.59773 15.5022 7.73093 15.5912 7.8639 15.6918C8.43701 15.8709 9.19592 16.1141 9.65482 16.3542C9.65024 16.3438 9.6656 16.3448 9.71707 16.3659L5.91923 13ZM1.67303 20.0559L4.00569 17.6667C3.92533 18.1345 3.94441 18.6146 4.06162 19.0742L4.31042 20.0559H1.67303ZM7.34446 18.0952C7.18789 18.2556 6.97553 18.3457 6.75411 18.3457C6.53269 18.3457 6.32033 18.2556 6.16376 18.0952C6.00719 17.9348 5.91923 17.7173 5.91923 17.4905C5.91923 17.2637 6.00719 17.0462 6.16376 16.8858C6.32033 16.7255 6.53269 16.6354 6.75411 16.6354C6.97553 16.6354 7.18789 16.7255 7.34446 16.8858C7.50103 17.0462 7.58899 17.2637 7.58899 17.4905C7.58899 17.7173 7.50103 17.9348 7.34446 18.0952Z" fill="#F9DB38"/>
<path d="M7.29461 15.4228L7.42361 15.5537C7.07974 15.4433 6.95054 15.3878 7.29461 15.4228Z" fill="#F9DB38"/>
<path d="M7.52257 15.4501C7.43487 15.3893 7.42617 15.3788 7.58899 15.4589L7.52257 15.4501Z" fill="#F9DB38"/>
<path d="M58.896 19.64C58.4907 18.8933 57.904 18.328 57.136 17.944C56.3893 17.5387 55.504 17.336 54.48 17.336C52.7093 17.336 51.2907 17.9227 50.224 19.096C49.1573 20.248 48.624 21.7947 48.624 23.736C48.624 25.8053 49.1787 27.4267 50.288 28.6C51.4187 29.752 52.9653 30.328 54.928 30.328C56.272 30.328 57.4027 29.9867 58.32 29.304C59.2587 28.6213 59.9413 27.64 60.368 26.36H53.424V22.328H65.328V27.416C64.9227 28.7813 64.2293 30.0507 63.248 31.224C62.288 32.3973 61.0613 33.3467 59.568 34.072C58.0747 34.7973 56.3893 35.16 54.512 35.16C52.2933 35.16 50.3093 34.68 48.56 33.72C46.832 32.7387 45.4773 31.384 44.496 29.656C43.536 27.928 43.056 25.9547 43.056 23.736C43.056 21.5173 43.536 19.544 44.496 17.816C45.4773 16.0667 46.832 14.712 48.56 13.752C50.288 12.7707 52.2613 12.28 54.48 12.28C57.168 12.28 59.4293 12.9307 61.264 14.232C63.12 15.5333 64.3467 17.336 64.944 19.64H58.896ZM73.831 20.12C74.471 19.1387 75.271 18.3707 76.231 17.816C77.191 17.24 78.2577 16.952 79.431 16.952V22.744H77.927C76.5617 22.744 75.5377 23.0427 74.855 23.64C74.1723 24.216 73.831 25.24 73.831 26.712V35H68.359V17.144H73.831V20.12ZM80.9585 26.04C80.9585 24.2053 81.2998 22.5947 81.9825 21.208C82.6865 19.8213 83.6358 18.7547 84.8305 18.008C86.0252 17.2613 87.3585 16.888 88.8305 16.888C90.0892 16.888 91.1878 17.144 92.1265 17.656C93.0865 18.168 93.8225 18.84 94.3345 19.672V17.144H99.8065V35H94.3345V32.472C93.8012 33.304 93.0545 33.976 92.0945 34.488C91.1558 35 90.0572 35.256 88.7985 35.256C87.3478 35.256 86.0252 34.8827 84.8305 34.136C83.6358 33.368 82.6865 32.2907 81.9825 30.904C81.2998 29.496 80.9585 27.8747 80.9585 26.04ZM94.3345 26.072C94.3345 24.7067 93.9505 23.6293 93.1825 22.84C92.4358 22.0507 91.5185 21.656 90.4305 21.656C89.3425 21.656 88.4145 22.0507 87.6465 22.84C86.8998 23.608 86.5265 24.6747 86.5265 26.04C86.5265 27.4053 86.8998 28.4933 87.6465 29.304C88.4145 30.0933 89.3425 30.488 90.4305 30.488C91.5185 30.488 92.4358 30.0933 93.1825 29.304C93.9505 28.5147 94.3345 27.4373 94.3345 26.072ZM102.677 26.04C102.677 24.2053 103.019 22.5947 103.701 21.208C104.405 19.8213 105.355 18.7547 106.549 18.008C107.744 17.2613 109.077 16.888 110.549 16.888C111.723 16.888 112.789 17.1333 113.749 17.624C114.731 18.1147 115.499 18.776 116.053 19.608V11.32H121.525V35H116.053V32.44C115.541 33.2933 114.805 33.976 113.845 34.488C112.907 35 111.808 35.256 110.549 35.256C109.077 35.256 107.744 34.8827 106.549 34.136C105.355 33.368 104.405 32.2907 103.701 30.904C103.019 29.496 102.677 27.8747 102.677 26.04ZM116.053 26.072C116.053 24.7067 115.669 23.6293 114.901 22.84C114.155 22.0507 113.237 21.656 112.149 21.656C111.061 21.656 110.133 22.0507 109.365 22.84C108.619 23.608 108.245 24.6747 108.245 26.04C108.245 27.4053 108.619 28.4933 109.365 29.304C110.133 30.0933 111.061 30.488 112.149 30.488C113.237 30.488 114.155 30.0933 114.901 29.304C115.669 28.5147 116.053 27.4373 116.053 26.072ZM142.316 25.784C142.316 26.296 142.284 26.8293 142.22 27.384H129.836C129.921 28.4933 130.273 29.3467 130.892 29.944C131.532 30.52 132.311 30.808 133.228 30.808C134.593 30.808 135.543 30.232 136.076 29.08H141.9C141.601 30.2533 141.057 31.3093 140.268 32.248C139.5 33.1867 138.529 33.9227 137.356 34.456C136.183 34.9893 134.871 35.256 133.42 35.256C131.671 35.256 130.113 34.8827 128.748 34.136C127.383 33.3893 126.316 32.3227 125.548 30.936C124.78 29.5493 124.396 27.928 124.396 26.072C124.396 24.216 124.769 22.5947 125.516 21.208C126.284 19.8213 127.351 18.7547 128.716 18.008C130.081 17.2613 131.649 16.888 133.42 16.888C135.148 16.888 136.684 17.2507 138.028 17.976C139.372 18.7013 140.417 19.736 141.164 21.08C141.932 22.424 142.316 23.992 142.316 25.784ZM136.716 24.344C136.716 23.4053 136.396 22.6587 135.756 22.104C135.116 21.5493 134.316 21.272 133.356 21.272C132.439 21.272 131.66 21.5387 131.02 22.072C130.401 22.6053 130.017 23.3627 129.868 24.344H136.716ZM164.659 12.536V35H159.187V25.752H150.675V35H145.203V12.536H150.675V21.336H159.187V12.536H164.659ZM186.241 17.144V35H180.769V32.568C180.214 33.3573 179.457 33.9973 178.497 34.488C177.558 34.9573 176.513 35.192 175.361 35.192C173.996 35.192 172.79 34.8933 171.745 34.296C170.7 33.6773 169.889 32.792 169.313 31.64C168.737 30.488 168.449 29.1333 168.449 27.576V17.144H173.889V26.84C173.889 28.0347 174.198 28.9627 174.817 29.624C175.436 30.2853 176.268 30.616 177.313 30.616C178.38 30.616 179.222 30.2853 179.841 29.624C180.46 28.9627 180.769 28.0347 180.769 26.84V17.144H186.241ZM195.644 19.672C196.156 18.84 196.892 18.168 197.852 17.656C198.812 17.144 199.91 16.888 201.148 16.888C202.62 16.888 203.953 17.2613 205.148 18.008C206.342 18.7547 207.281 19.8213 207.964 21.208C208.668 22.5947 209.02 24.2053 209.02 26.04C209.02 27.8747 208.668 29.496 207.964 30.904C207.281 32.2907 206.342 33.368 205.148 34.136C203.953 34.8827 202.62 35.256 201.148 35.256C199.889 35.256 198.79 35.0107 197.852 34.52C196.913 34.008 196.177 33.336 195.644 32.504V35H190.172V11.32H195.644V19.672ZM203.452 26.04C203.452 24.6747 203.068 23.608 202.3 22.84C201.553 22.0507 200.625 21.656 199.516 21.656C198.428 21.656 197.5 22.0507 196.732 22.84C195.985 23.6293 195.612 24.7067 195.612 26.072C195.612 27.4373 195.985 28.5147 196.732 29.304C197.5 30.0933 198.428 30.488 199.516 30.488C200.604 30.488 201.532 30.0933 202.3 29.304C203.068 28.4933 203.452 27.4053 203.452 26.04Z" fill="#1F1F37"/>
</svg>
