<svg width="117" height="115" viewBox="0 0 117 115" fill="none" xmlns="http://www.w3.org/2000/svg">
<path d="M98.5847 56.333C98.5847 56.333 96.2597 56.1883 96.474 60.6963C96.6883 65.2043 97.2196 67.6081 97.2196 67.6081C97.2196 67.6081 97.1492 68.6056 96.2538 68.4102C95.3584 68.2147 93.6734 67.2426 92.8426 67.9685C92.0118 68.6945 92.2878 69.8799 93.4297 71.2429C94.5717 72.606 96.9525 75.6697 97.1668 75.9489C97.3811 76.2281 97.4603 76.7332 96.8263 76.6825C96.1922 76.6317 91.9091 75.3778 91.3396 77.1724C90.77 78.9669 94.6832 82.3099 95.103 82.683C95.5228 83.0561 95.5434 83.2896 95.3731 83.5156C95.2028 83.7415 93.8114 83.2008 92.5755 82.8886C91.3396 82.5764 89.8424 82.3962 89.6163 83.4546C89.3903 84.5131 91.1106 87.6123 97.5602 90.8664L100.663 92.2067L103.599 90.5872C109.64 86.7798 110.994 83.5587 110.644 82.5256C110.295 81.4925 108.824 81.7971 107.65 82.216C106.476 82.6348 105.131 83.2922 104.934 83.084C104.738 82.8759 104.735 82.6373 105.111 82.2312C105.486 81.8251 108.989 78.1699 108.216 76.4236C107.444 74.6772 103.326 76.3068 102.7 76.4109C102.075 76.515 102.099 75.9997 102.275 75.7103C102.451 75.4209 104.471 72.1567 105.451 70.7048C106.432 69.2529 106.605 68.0701 105.66 67.405C104.714 66.74 103.182 67.867 102.316 68.1411C101.45 68.4153 101.262 67.4228 101.262 67.4228C101.262 67.4228 101.514 64.9886 101.206 60.4831C100.898 55.9777 98.5495 56.333 98.5495 56.333" fill="#EBEBEB"/>
<path d="M98.7668 60.3711C98.7668 60.3711 98.7668 60.4016 98.7668 60.465C98.7668 60.5285 98.7815 60.6224 98.7932 60.7417C98.8108 60.9955 98.8402 61.3483 98.8754 61.8052C98.9459 62.7317 99.0398 64.0694 99.1455 65.7243C99.3569 69.0241 99.6064 73.6057 99.8618 78.6569C100.117 83.7081 100.352 88.2847 100.543 91.6022C100.64 93.2546 100.719 94.5923 100.772 95.5213C100.798 95.9808 100.819 96.3387 100.833 96.5874C100.833 96.7067 100.833 96.7981 100.848 96.8666C100.85 96.8979 100.85 96.9293 100.848 96.9605C100.848 96.9605 100.848 96.9275 100.848 96.8666C100.848 96.8057 100.833 96.7067 100.822 96.5899C100.804 96.3361 100.775 95.9833 100.74 95.5239C100.666 94.5999 100.575 93.2622 100.469 91.6073C100.258 88.3075 100.009 83.7234 99.7532 78.662C99.4978 73.6007 99.2629 69.0368 99.0721 65.7167C98.9752 64.0668 98.896 62.7292 98.8402 61.7976C98.8167 61.3382 98.7932 60.9803 98.7815 60.7315C98.7815 60.6148 98.7815 60.5208 98.7668 60.4549C98.7652 60.4269 98.7652 60.399 98.7668 60.3711Z" fill="#E0E0E0"/>
<path d="M95.1353 69.4128C95.2062 69.4513 95.2713 69.4974 95.329 69.5499C95.4494 69.6438 95.6226 69.786 95.8222 69.9586C96.2302 70.3114 96.7821 70.8089 97.3781 71.3673L98.8958 72.8015L99.3567 73.2355C99.4179 73.2848 99.4721 73.3402 99.5181 73.4005C99.4472 73.362 99.3821 73.316 99.3244 73.2634C99.204 73.1695 99.0308 73.0299 98.8341 72.8522C98.429 72.4969 97.8859 71.9943 97.29 71.4359L95.7605 70.0093L95.2967 69.5778C95.2355 69.5286 95.1813 69.4732 95.1353 69.4128Z" fill="#E0E0E0"/>
<path d="M99.827 73.3117C99.8035 73.2914 100.937 72.2659 102.36 71.0272C103.784 69.7885 104.956 68.7859 104.979 68.8062C105.003 68.8265 103.869 69.852 102.446 71.0907C101.022 72.3294 99.8505 73.332 99.827 73.3117Z" fill="#E0E0E0"/>
<path d="M99.812 81.0861C99.8792 81.0397 99.9521 80.9997 100.029 80.9668L100.637 80.6724C101.148 80.4185 101.855 80.0784 102.618 79.6723C103.382 79.2662 104.06 78.8829 104.547 78.5986L105.134 78.2661C105.203 78.2215 105.277 78.1832 105.354 78.1519C105.354 78.1519 105.29 78.2102 105.161 78.2991C105.032 78.3879 104.844 78.5098 104.603 78.6595C104.127 78.959 103.455 79.355 102.689 79.7611C101.923 80.1673 101.221 80.5048 100.684 80.7358C100.423 80.8526 100.208 80.944 100.059 81.0024C99.9818 81.0409 99.8986 81.0691 99.812 81.0861Z" fill="#E0E0E0"/>
<path d="M94.6719 78.3652C94.7485 78.3865 94.8215 78.4164 94.8891 78.4541C95.0212 78.515 95.215 78.6064 95.4498 78.7231C95.9225 78.9541 96.5712 79.2816 97.2846 79.6471C97.9979 80.0126 98.6379 80.3502 99.0988 80.5989C99.3307 80.7233 99.5157 80.8248 99.6419 80.8985C99.7112 80.931 99.7753 80.9711 99.8327 81.0178C99.7565 80.9988 99.6842 80.9697 99.6184 80.9314C99.4834 80.8705 99.2926 80.7766 99.0548 80.6624C98.5851 80.4289 97.9363 80.104 97.2229 79.7359C96.5096 79.3679 95.8696 79.0328 95.4087 78.7866C95.1768 78.6622 94.9919 78.5607 94.8656 78.4871C94.7945 78.4549 94.7292 78.4138 94.6719 78.3652Z" fill="#E0E0E0"/>
<path d="M93.6538 85.2288C93.7503 85.2562 93.8421 85.2946 93.9268 85.343L94.649 85.6856C95.2567 85.9801 96.0904 86.3938 96.9975 86.8558C97.9046 87.3178 98.7442 87.7417 99.346 88.0513L100.051 88.4245C100.139 88.467 100.223 88.5172 100.3 88.5742C100.205 88.544 100.113 88.5058 100.027 88.46L99.3049 88.1148C98.6972 87.8204 97.8606 87.4066 96.9564 86.9446C96.0522 86.4827 95.2097 86.0588 94.6079 85.7491L93.9033 85.376C93.8151 85.3336 93.7316 85.2844 93.6538 85.2288Z" fill="#E0E0E0"/>
<path d="M100.17 88.4547C100.255 88.3966 100.346 88.344 100.44 88.2974L101.194 87.9014C101.831 87.5663 102.709 87.0993 103.66 86.5637C104.612 86.0281 105.463 85.523 106.073 85.1549L106.799 84.7184C106.885 84.6612 106.977 84.611 107.075 84.5686C106.997 84.6354 106.914 84.6965 106.825 84.7514C106.664 84.863 106.423 85.0204 106.123 85.2133C105.536 85.5966 104.682 86.1119 103.725 86.65C102.768 87.1881 101.884 87.645 101.238 87.9648C100.913 88.1222 100.651 88.2491 100.463 88.3329C100.37 88.381 100.272 88.4218 100.17 88.4547Z" fill="#E0E0E0"/>
<path d="M104.835 93.0847H96.2515L99.0521 111.421H102.032L104.835 93.0847Z" fill="#1F1F37"/>
<path d="M96.6948 95.3412C96.6948 95.3412 96.6948 95.3665 96.7418 95.4072C96.7988 95.463 96.8702 95.5065 96.9502 95.5341C97.0994 95.579 97.2585 95.5937 97.4153 95.5769C97.5721 95.5602 97.7223 95.5125 97.8544 95.4376C98.2037 95.2726 98.5032 94.9477 98.9699 94.8056C99.484 94.662 100.039 94.6709 100.546 94.831C101.063 94.9847 101.555 95.1918 102.014 95.4478C102.398 95.6544 102.797 95.8392 103.209 96.0011C103.489 96.1103 103.786 96.1846 104.09 96.222C104.172 96.2332 104.256 96.2383 104.339 96.2372C104.398 96.2372 104.427 96.2372 104.427 96.2372C104.021 96.1832 103.626 96.0807 103.253 95.9326C102.849 95.7615 102.457 95.57 102.079 95.3589C101.613 95.0934 101.11 94.8802 100.582 94.7244C100.045 94.5559 99.4578 94.5506 98.9171 94.7091C98.6872 94.7892 98.4748 94.9025 98.2889 95.0442C98.1343 95.1629 97.9705 95.2723 97.7986 95.3716C97.6779 95.4436 97.5407 95.4922 97.3963 95.5141C97.2519 95.536 97.1038 95.5307 96.962 95.4985C96.863 95.46 96.7726 95.4067 96.6948 95.3412Z" fill="#F5F5F5"/>
<path d="M97.0088 98.7171C97.0088 98.7171 97.0763 98.641 97.2113 98.5191C97.407 98.3533 97.6411 98.2252 97.8983 98.1435C98.2797 98.0237 98.6849 97.971 99.0901 97.9886C99.592 98.0198 100.091 98.0783 100.584 98.1638C101.088 98.2471 101.604 98.2659 102.114 98.2196C102.53 98.1718 102.935 98.0718 103.317 97.9226C103.574 97.8222 103.816 97.697 104.04 97.5495C104.126 97.501 104.203 97.441 104.269 97.3718C103.952 97.5504 103.62 97.7082 103.276 97.8439C102.9 97.9743 102.505 98.0597 102.102 98.0978C101.604 98.1373 101.102 98.116 100.611 98.0343C100.112 97.9491 99.6067 97.8931 99.099 97.8668C98.6763 97.8538 98.2552 97.9178 97.8631 98.0546C97.5976 98.1468 97.3612 98.2921 97.1732 98.4785C97.1246 98.5293 97.0814 98.5836 97.044 98.641C97.0268 98.6642 97.0149 98.69 97.0088 98.7171Z" fill="#F5F5F5"/>
<path d="M103.863 100.524C103.793 100.476 103.712 100.44 103.626 100.418C103.398 100.344 103.158 100.299 102.915 100.286C102.555 100.266 102.193 100.284 101.838 100.339C101.439 100.395 101.01 100.491 100.558 100.573C100.14 100.659 99.7109 100.701 99.281 100.697C98.9318 100.689 98.5874 100.626 98.2652 100.509C97.9727 100.391 97.711 100.223 97.4961 100.014C97.5278 100.087 97.5768 100.152 97.6399 100.207C97.8043 100.366 98.004 100.495 98.2271 100.585C98.5563 100.72 98.9139 100.796 99.278 100.809C99.7195 100.819 100.161 100.78 100.59 100.692C101.045 100.608 101.471 100.509 101.864 100.438C102.21 100.381 102.561 100.355 102.912 100.362C103.236 100.381 103.556 100.436 103.863 100.524Z" fill="#F5F5F5"/>
<path d="M97.7689 103.068C98.0302 102.969 98.3207 102.943 98.5997 102.994C98.9049 103.058 99.2004 103.153 99.4804 103.276C99.9825 103.482 100.536 103.577 101.091 103.552C101.646 103.527 102.185 103.383 102.66 103.134C102.845 103.037 103.017 102.923 103.173 102.794C103.231 102.747 103.282 102.694 103.323 102.636C103.097 102.79 102.859 102.932 102.613 103.06C102.004 103.347 101.311 103.474 100.619 103.426C99.8063 103.385 99.1839 102.966 98.6203 102.918C98.401 102.88 98.1742 102.894 97.9627 102.956C97.8247 103.007 97.7631 103.063 97.7689 103.068Z" fill="#F5F5F5"/>
<path d="M98.2563 106.586C98.5027 106.593 98.7477 106.551 98.9726 106.464C99.4042 106.34 99.9385 106.053 100.564 105.84C100.853 105.736 101.161 105.68 101.474 105.675C101.728 105.673 101.979 105.723 102.208 105.819C102.415 105.917 102.596 106.051 102.739 106.213C102.726 106.156 102.698 106.103 102.657 106.058C102.554 105.927 102.416 105.819 102.255 105.743C102.016 105.629 101.749 105.568 101.477 105.563C101.147 105.563 100.82 105.618 100.514 105.725C99.8651 105.949 99.3396 106.233 98.9374 106.383C98.5352 106.533 98.2563 106.568 98.2563 106.586Z" fill="#F5F5F5"/>
<path d="M98.6665 108.223C98.8375 108.298 99.0206 108.35 99.2096 108.378C99.657 108.47 100.111 108.537 100.569 108.576C101.026 108.614 101.486 108.625 101.946 108.609C102.137 108.612 102.327 108.593 102.512 108.551C102.512 108.515 101.631 108.551 100.581 108.454C99.5296 108.358 98.6753 108.188 98.6665 108.223Z" fill="#F5F5F5"/>
<path d="M29.4872 26.2837L4.30811 31.4583L13.0935 63.4184L38.2726 58.2439L29.4872 26.2837Z" fill="#E0E0E0"/>
<path d="M27.5272 25.3408L2.34814 30.5154L11.1336 62.4756L36.3127 57.301L27.5272 25.3408Z" fill="#EBEBEB"/>
<path d="M25.5048 25.0562L0.325684 30.2307L8.94344 61.5809L34.1225 56.4064L25.5048 25.0562Z" fill="#F5F5F5"/>
<path d="M25.1914 58.2442C25.1914 58.2442 31.0627 54.7845 32.5041 50.7588C31.8832 51.3609 31.1276 51.8478 30.283 52.1903C29.4383 52.5328 28.5222 52.7236 27.5898 52.7513C27.5898 52.7513 26.9645 57.0563 25.1914 58.2442Z" fill="#EBEBEB"/>
<path d="M25.3261 33.4069C25.3261 33.4425 20.8669 34.3893 15.345 35.5239C9.82308 36.6585 5.33743 37.5545 5.32863 37.5139C5.31982 37.4733 9.78785 36.5316 15.3098 35.397C20.8317 34.2623 25.3173 33.3689 25.3261 33.4069Z" fill="#E0E0E0"/>
<path d="M25.9521 35.6913C25.9521 35.7268 21.4929 36.6762 15.971 37.8082C10.4491 38.9403 5.96341 39.8389 5.9546 39.7982C5.9458 39.7576 10.4138 38.8159 15.9357 37.6813C21.4577 36.5467 25.9404 35.6431 25.9521 35.6913Z" fill="#E0E0E0"/>
<path d="M26.5766 37.9532C26.5766 37.9887 22.1174 38.938 16.5955 40.0726C11.0736 41.2073 6.58792 42.1033 6.57911 42.0627C6.57031 42.0221 11.0354 41.0778 16.5603 39.9432C22.0851 38.8086 26.5649 37.9176 26.5766 37.9532Z" fill="#E0E0E0"/>
<path d="M27.2138 40.2273C27.2138 40.2629 22.7546 41.2122 17.2327 42.3468C11.7108 43.4814 7.22513 44.3774 7.21632 44.3368C7.20751 44.2962 11.6726 43.352 17.1975 42.2174C22.7223 41.0828 27.1904 40.1918 27.2138 40.2273Z" fill="#E0E0E0"/>
<path d="M27.8276 42.5018C27.8276 42.5373 23.3684 43.4866 17.8464 44.6212C12.3245 45.7558 7.83887 46.6468 7.83887 46.6062C7.83887 46.5656 12.2952 45.6213 17.82 44.4867C23.3449 43.3521 27.8158 42.4662 27.8276 42.5018Z" fill="#E0E0E0"/>
<path d="M28.4531 44.7762C28.4531 44.8117 23.9939 45.761 18.4719 46.8956C12.95 48.0303 8.46732 48.9263 8.45851 48.8857C8.4497 48.8451 12.9148 47.9008 18.4397 46.7662C23.9645 45.6316 28.4413 44.7406 28.4531 44.7762Z" fill="#E0E0E0"/>
<path d="M29.0781 47.0503C29.0781 47.0859 24.6189 48.0352 19.0969 49.1698C13.575 50.3044 9.09232 51.2004 9.08351 51.1598C9.0747 51.1192 13.5398 50.175 19.0647 49.0404C24.5895 47.9057 29.0663 47.0148 29.0781 47.0503Z" fill="#E0E0E0"/>
<path d="M29.7026 49.3272C29.7026 49.3627 25.2434 50.3095 19.7215 51.4441C14.1995 52.5787 9.71683 53.4748 9.70802 53.4342C9.69921 53.3935 14.1643 52.4493 19.6892 51.3147C25.214 50.1801 29.6909 49.2917 29.7026 49.3272Z" fill="#E0E0E0"/>
<path d="M46.4165 102.527L45.7325 109.048L43.4691 114.071C43.4305 114.157 43.4126 114.249 43.4166 114.34C43.4205 114.432 43.4463 114.522 43.4923 114.605C43.5383 114.688 43.6035 114.762 43.6838 114.822C43.7642 114.882 43.858 114.927 43.9594 114.955C44.0774 114.988 44.2028 114.995 44.325 114.977C44.4471 114.959 44.5624 114.916 44.661 114.851C45.9351 114.011 50.6027 110.904 50.6233 110.424C50.6468 109.868 51.8739 103.583 51.8739 103.583L46.4165 102.527Z" fill="#6C2C9E"/>
<g opacity="0.6">
<path d="M43.9478 114.957L50.6703 109.987L50.6322 110.261C50.6027 110.5 50.4745 110.722 50.2711 110.886C49.7309 111.325 48.2162 112.508 44.6729 114.856C44.5711 114.923 44.4516 114.968 44.3251 114.985C44.1986 115.003 44.0689 114.994 43.9478 114.957Z" fill="white"/>
</g>
<g opacity="0.6">
<path d="M49.4138 107.736C49.3154 107.785 49.2412 107.864 49.205 107.957C49.1688 108.051 49.1731 108.152 49.2171 108.243C49.27 108.332 49.3606 108.4 49.47 108.433C49.5794 108.465 49.6991 108.46 49.8042 108.418C49.9104 108.365 49.9901 108.28 50.0281 108.18C50.066 108.079 50.0595 107.97 50.0097 107.873C49.943 107.785 49.8395 107.724 49.7212 107.701C49.6028 107.678 49.4789 107.696 49.3756 107.751" fill="white"/>
</g>
<path d="M46.0556 112.284C45.9041 112.063 45.7048 111.869 45.4685 111.713C45.2051 111.591 44.9172 111.514 44.6201 111.485C44.6201 111.467 44.717 111.426 44.8961 111.421C45.1315 111.422 45.3618 111.481 45.5595 111.591C45.7572 111.7 45.9142 111.856 46.0116 112.041C46.0762 112.183 46.0762 112.279 46.0556 112.284Z" fill="#263238"/>
<path d="M45.4153 113.11C45.3772 113.135 45.1629 112.899 44.7871 112.764C44.5489 112.701 44.3068 112.65 44.062 112.61C44.1862 112.559 44.3227 112.534 44.4601 112.538C44.5974 112.542 44.7317 112.575 44.8517 112.632C45.2686 112.78 45.4447 113.089 45.4153 113.11Z" fill="#263238"/>
<path d="M47.1999 111.264C46.9074 111.048 46.5963 110.851 46.2693 110.675C45.9176 110.54 45.5545 110.428 45.1831 110.34C45.5861 110.312 45.9901 110.384 46.3474 110.548C46.7046 110.711 47.0004 110.96 47.1999 111.264Z" fill="#263238"/>
<path d="M47.6001 109.302C47.5767 109.34 47.1803 109.147 46.6402 109.079C46.1 109.01 45.6597 109.079 45.6479 109.035C45.971 108.924 46.3228 108.89 46.6665 108.936C47.0101 108.983 47.3327 109.11 47.6001 109.302Z" fill="#263238"/>
<path d="M47.8581 107.388C47.5427 107.264 47.2087 107.178 46.8658 107.134C46.5187 107.134 46.1731 107.174 45.8384 107.253C45.8384 107.238 45.9206 107.164 46.1055 107.096C46.3502 107.009 46.6151 106.974 46.8787 106.992C47.1423 107.01 47.3974 107.081 47.6232 107.2C47.7935 107.289 47.8728 107.373 47.8581 107.388Z" fill="#263238"/>
<path d="M46.9271 106.764C46.9133 106.679 46.9213 106.592 46.9506 106.51C47.0049 106.287 47.1107 106.075 47.2618 105.888C47.3584 105.743 47.5067 105.629 47.6845 105.563C47.7455 105.547 47.811 105.547 47.8719 105.564C47.9328 105.58 47.9863 105.613 48.025 105.657C48.0947 105.747 48.1239 105.856 48.1072 105.964C48.0603 106.181 47.9278 106.377 47.7324 106.518C47.537 106.66 47.2907 106.739 47.0357 106.741C46.7824 106.74 46.5353 106.673 46.3261 106.55C46.1169 106.426 45.9551 106.251 45.8615 106.048C45.838 105.996 45.8277 105.941 45.8312 105.886C45.8348 105.831 45.8521 105.777 45.882 105.728C45.9165 105.681 45.968 105.645 46.0285 105.626C46.089 105.606 46.1551 105.605 46.2167 105.621C46.3974 105.675 46.5585 105.768 46.6834 105.893C46.8704 106.054 47.0226 106.242 47.1326 106.449C47.1785 106.522 47.2075 106.602 47.2177 106.685C47.0535 106.422 46.8469 106.18 46.6042 105.967C46.4897 105.863 46.3477 105.784 46.1903 105.738C46.1563 105.729 46.1198 105.73 46.0863 105.74C46.0529 105.751 46.0244 105.771 46.0053 105.797C45.9892 105.829 45.9808 105.865 45.9808 105.901C45.9808 105.936 45.9892 105.972 46.0053 106.005C46.092 106.178 46.2344 106.325 46.4156 106.43C46.5967 106.535 46.809 106.593 47.0269 106.596C47.242 106.594 47.4499 106.528 47.6167 106.411C47.7835 106.293 47.8994 106.131 47.9458 105.949C47.9608 105.874 47.9441 105.798 47.8988 105.733C47.8782 105.708 47.849 105.689 47.8152 105.679C47.7815 105.669 47.7451 105.668 47.7109 105.677C47.5608 105.734 47.4339 105.829 47.3469 105.949C47.1532 106.197 47.0111 106.473 46.9271 106.764Z" fill="#263238"/>
<path d="M75.8816 39.1765C75.8892 39.2049 75.8892 39.2344 75.8816 39.2628C75.7554 39.6613 74.9628 41.329 74.6927 41.3213C74.4226 41.3137 73.7885 40.9558 73.8443 40.7172C73.9001 40.4786 74.9128 38.646 74.9128 38.646C74.9128 38.646 75.0949 38.3668 75.7055 38.4911C75.7789 38.5089 75.864 39.245 75.8816 39.1765Z" fill="#EB996E"/>
<path d="M74.8772 38.1815C74.8772 38.1815 74.8772 38.217 74.8626 38.2653C74.7334 38.6663 73.9437 40.334 73.6736 40.3238C73.4036 40.3137 72.7695 39.9583 72.8252 39.7222C72.881 39.4862 73.8938 37.651 73.8938 37.651C73.8938 37.651 74.0758 37.3692 74.6864 37.4936C75.0651 37.5698 74.8772 38.1815 74.8772 38.1815Z" fill="#EB996E"/>
<path d="M73.9905 37.4912C73.9905 37.4912 73.9905 37.5267 73.9905 37.5749C73.8643 37.976 73.0716 39.6436 72.8016 39.6335C72.5315 39.6233 71.8974 39.268 71.9532 39.0319C72.0089 38.7958 73.01 36.9607 73.01 36.9607C72.9718 37.019 72.9219 36.6256 73.8026 36.8033C74.1842 36.8794 73.9905 37.4912 73.9905 37.4912Z" fill="#EB996E"/>
<path d="M72.8728 36.8263C72.8728 36.8263 72.8728 36.8618 72.8728 36.91C72.7466 37.3111 71.954 38.9762 71.6839 38.9686C71.4138 38.961 70.7797 38.6031 70.8355 38.367C70.8913 38.1309 71.9041 36.2958 71.9041 36.2958C71.9041 36.2958 72.0861 36.014 72.6967 36.1384C73.0578 36.2145 72.8728 36.8263 72.8728 36.8263Z" fill="#EB996E"/>
<path d="M74.0435 40.2251C74.2334 39.9808 74.3882 39.7174 74.5044 39.4407C74.6575 39.1812 74.771 38.9056 74.8419 38.6208C74.6511 38.8656 74.4963 39.1299 74.3811 39.4077C74.2261 39.6656 74.1126 39.9406 74.0435 40.2251Z" fill="#D1734A"/>
<path d="M72.896 39.8416C73.1491 39.4851 73.3624 39.1086 73.533 38.7172C73.7444 38.3418 73.9173 37.9511 74.0497 37.5496C73.798 37.9067 73.5847 38.2831 73.4127 38.674C73.2013 39.0494 73.0284 39.4401 72.896 39.8416Z" fill="#D1734A"/>
<g opacity="0.78">
<path d="M71.7715 39.3645C72.0295 39.0049 72.2478 38.625 72.4232 38.2299C72.6356 37.8549 72.8085 37.4641 72.9399 37.0623C72.6898 37.4193 72.4767 37.7948 72.3028 38.1842C72.086 38.5634 71.9082 38.9583 71.7715 39.3645Z" fill="#D1734A"/>
</g>
<path d="M74.4427 42.545C74.4897 42.446 75.2588 40.4713 75.2588 40.4713L70.8553 38.5955C70.6322 38.8493 69.9541 41.6186 69.9541 41.6186L70.1097 42.5628C70.1097 42.5628 73.4504 44.2228 73.5414 44.2381C73.6324 44.2533 74.4427 42.545 74.4427 42.545Z" fill="#EB996E"/>
<path d="M71.002 41.692L70.5528 40.2604C70.3573 39.6316 70.4487 38.9619 70.8082 38.3897L71.0842 37.9531L74.8242 39.4253C74.8242 39.4253 73.9582 40.4863 73.007 39.9127L73.738 41.1412L71.002 41.692Z" fill="#EB996E"/>
<path d="M73.4154 41.2583C73.3949 41.2583 73.4154 41.0908 73.3626 40.809C73.2721 40.4211 73.0204 40.0753 72.6551 39.8368L72.3087 39.616L72.7256 39.715L73.6884 39.9485H73.6679C73.8775 39.9724 74.0905 39.9442 74.2823 39.8674C74.4741 39.7905 74.6367 39.6681 74.7511 39.5145C74.7685 39.4907 74.7823 39.4651 74.7922 39.4383L74.848 39.5399C73.7706 39.1617 72.7931 38.8088 72.1238 38.5245C71.7832 38.3799 71.5102 38.2555 71.3282 38.1667C71.2273 38.127 71.1342 38.0739 71.0522 38.0093C71.4362 38.1279 71.8125 38.2644 72.1795 38.4179C72.8694 38.6718 73.8411 39.0144 74.9214 39.3926L75.0036 39.4206L74.9743 39.4942C74.9608 39.5303 74.9431 39.5652 74.9214 39.5982C74.7932 39.7938 74.591 39.9452 74.349 40.0272C74.1291 40.0991 73.8934 40.1277 73.6591 40.111H73.6385L72.6815 39.8572L72.752 39.7353C73.1384 39.9985 73.3903 40.3821 73.4536 40.8039C73.4879 40.9556 73.4747 41.1125 73.4154 41.2583Z" fill="#D1734A"/>
<path d="M74.3139 39.8238C74.3521 39.8238 74.2875 40.0015 74.3462 40.235C74.3582 40.2986 74.393 40.3573 74.4457 40.4029C74.4983 40.4484 74.5663 40.4785 74.6398 40.4888C74.7324 40.4835 74.8219 40.4572 74.8991 40.4127C74.9764 40.3682 75.0388 40.3069 75.0801 40.235C75.3062 39.8923 75.5381 39.5801 75.6673 39.3517C75.7964 39.1232 75.8786 38.9709 75.905 38.9785C75.9315 38.9862 75.9051 39.1486 75.7906 39.4024C75.6277 39.7209 75.4404 40.0296 75.2299 40.3264C75.1722 40.424 75.0843 40.5058 74.9759 40.5628C74.8676 40.6197 74.7431 40.6494 74.6163 40.6487C74.5088 40.632 74.4109 40.5847 74.338 40.5143C74.2652 40.444 74.2216 40.3546 74.2141 40.2604C74.1962 40.1495 74.2082 40.0366 74.2494 39.9304C74.2787 39.8593 74.3022 39.8213 74.3139 39.8238Z" fill="#D1734A"/>
<path d="M59.0625 22.944L57.7738 34.3663C57.7239 34.8036 57.4776 35.2064 57.0879 35.4883C56.6981 35.7703 56.196 35.9088 55.6895 35.8741L52.657 35.6634C52.1501 35.6283 51.6795 35.4223 51.3467 35.0899C51.0139 34.7575 50.8456 34.3253 50.878 33.8866C50.9749 32.5159 51.1275 30.8406 51.1275 30.8406C51.1275 30.8406 48.3064 30.4624 48.2712 28.0231C48.2535 26.8555 48.4444 24.4695 48.6469 22.2891C48.7547 21.1314 49.3628 20.0513 50.3502 19.2639C51.3376 18.4764 52.6318 18.0395 53.9751 18.04H54.163C54.8606 18.0754 55.5429 18.2314 56.1695 18.4988C56.7962 18.7662 57.3544 19.1396 57.8112 19.5968C58.2681 20.0541 58.6142 20.5859 58.8291 21.1608C59.044 21.7357 59.1234 22.3421 59.0625 22.944Z" fill="#EB996E"/>
<path d="M51.1221 30.8128C52.4279 30.8364 53.7119 30.5217 54.8092 29.9092C54.8092 29.9092 53.9285 31.6657 51.125 31.4448L51.1221 30.8128Z" fill="#D1734A"/>
<path d="M49.258 24.0992C49.3079 24.1449 49.6132 23.9494 50.0477 23.952C50.4822 23.9545 50.7992 24.1398 50.8462 24.0941C50.8932 24.0484 50.8168 23.9901 50.6789 23.9038C50.4918 23.7918 50.2694 23.7324 50.0418 23.7337C49.816 23.7317 49.5955 23.7931 49.4136 23.9088C49.2786 23.9977 49.2316 24.0789 49.258 24.0992Z" fill="#263238"/>
<path d="M53.5065 24.0992C53.5564 24.1449 53.8617 23.9494 54.2962 23.952C54.7307 23.9545 55.0448 24.1398 55.0947 24.0941C55.1446 24.0484 55.0653 23.99 54.9274 23.9037C54.7389 23.7923 54.5157 23.733 54.2874 23.7337C54.0617 23.7322 53.8414 23.7936 53.6592 23.9088C53.5271 23.9977 53.483 24.0789 53.5065 24.0992Z" fill="#263238"/>
<path d="M51.9469 26.2721C51.7184 26.2093 51.4817 26.1718 51.2423 26.1604C51.1308 26.1604 51.028 26.1325 51.0075 26.0665C50.9978 25.9679 51.0245 25.8693 51.0838 25.7847C51.1866 25.5512 51.2952 25.31 51.4097 25.0537C51.8647 24.0181 52.1935 23.1627 52.1465 23.1474C52.0995 23.1322 51.6886 23.9622 51.2335 25.0004L50.9194 25.7314C50.8513 25.8473 50.8316 25.98 50.8636 26.1071C50.8803 26.1407 50.9052 26.1708 50.9367 26.1954C50.9681 26.2199 51.0053 26.2383 51.0457 26.2492C51.1071 26.2627 51.1702 26.2695 51.2335 26.2695C51.4703 26.2951 51.7099 26.296 51.9469 26.2721Z" fill="#263238"/>
<path d="M53.224 26.5308C53.1536 26.5308 53.1507 26.9344 52.7485 27.2238C52.3463 27.5131 51.8443 27.4776 51.8414 27.5233C51.8384 27.569 51.9529 27.602 52.1643 27.607C52.4402 27.6114 52.7088 27.5304 52.9217 27.3786C53.1271 27.2348 53.2589 27.0269 53.2886 26.7999C53.3062 26.6298 53.2563 26.5283 53.224 26.5308Z" fill="#263238"/>
<path d="M53.4088 22.0227C53.4499 22.1243 53.8844 22.076 54.3923 22.1293C54.9001 22.1827 55.3111 22.302 55.3786 22.2106C55.4109 22.1674 55.3375 22.071 55.1732 21.972C54.9515 21.8512 54.701 21.7757 54.4406 21.751C54.1802 21.7264 53.9167 21.7534 53.6701 21.8298C53.4852 21.8933 53.3912 21.9847 53.4088 22.0227Z" fill="#263238"/>
<path d="M49.4197 22.3376C49.496 22.4214 49.7925 22.3376 50.1536 22.3376C50.5147 22.3376 50.8171 22.3935 50.8846 22.3046C50.9169 22.2615 50.8846 22.1777 50.7349 22.0965C50.5573 22.0012 50.3513 21.9532 50.1424 21.9587C49.9336 21.9641 49.7312 22.0226 49.5606 22.1269C49.4256 22.2082 49.3845 22.2945 49.4197 22.3376Z" fill="#263238"/>
<path d="M55.999 20.2689H56.0166C56.466 20.5755 56.7615 21.02 56.8415 21.5101C56.84 21.5262 56.84 21.5423 56.8415 21.5583C56.9531 22.2538 56.9326 22.962 57.05 23.6575C57.1258 24.3628 57.4743 25.0254 58.0393 25.5384C58.2829 25.7338 58.7145 25.8709 58.92 25.6399C58.9857 25.5429 59.0201 25.4325 59.0198 25.3201C59.1695 23.6397 59.7009 22.1498 59.6979 20.3933C59.698 20.1581 59.6336 19.9262 59.5101 19.7167C59.3867 19.5071 59.2076 19.3258 58.9875 19.1876C58.5618 18.9337 58.0422 18.652 57.5696 18.8449C57.0969 19.0378 56.4834 19.8044 56.1164 20.114" fill="#263238"/>
<path d="M58.1111 24.0459C58.1581 24.0281 60.0486 23.5382 59.987 25.2186C59.9253 26.8989 58.0025 26.4877 57.9996 26.442C57.9966 26.3963 58.1111 24.0459 58.1111 24.0459Z" fill="#EB996E"/>
<path d="M58.6257 25.8251C58.6257 25.8251 58.658 25.8454 58.7138 25.8708C58.7948 25.8988 58.8852 25.8988 58.9663 25.8708C59.0931 25.8063 59.1978 25.7138 59.2695 25.6027C59.3412 25.4916 59.3774 25.366 59.3743 25.2388C59.3842 25.0958 59.3571 24.9527 59.2951 24.82C59.2788 24.7674 59.2481 24.719 59.2057 24.6788C59.1633 24.6386 59.1104 24.6078 59.0514 24.589C59.013 24.5791 58.9718 24.581 58.9349 24.5944C58.898 24.6079 58.8676 24.6319 58.8488 24.6626C58.8224 24.7083 58.8312 24.7438 58.8224 24.7463C58.8136 24.7489 58.7813 24.7159 58.7989 24.6473C58.8117 24.6069 58.8396 24.5712 58.8782 24.5458C58.9333 24.5136 59.0002 24.5 59.0661 24.5077C59.1452 24.5233 59.2184 24.5562 59.2786 24.6034C59.3387 24.6505 59.3838 24.7102 59.4096 24.7768C59.4848 24.9235 59.5181 25.0837 59.5064 25.2438C59.5098 25.3926 59.4626 25.539 59.3708 25.6649C59.2789 25.7907 59.1465 25.8906 58.9898 25.952C58.9392 25.9614 58.887 25.9614 58.8364 25.9523C58.7859 25.9431 58.7381 25.9248 58.6962 25.8987C58.6257 25.8657 58.6052 25.8277 58.6257 25.8251Z" fill="#D1734A"/>
<path d="M57.64 19.1112C58.1156 18.4462 56.8121 17.4867 55.861 17.2278C54.9098 16.9689 53.6563 17.37 52.7081 17.6416C52.121 17.8116 51.5163 18.0528 50.8851 18.0299C50.4648 17.9932 50.0532 17.9025 49.6639 17.7609C49.2728 17.6186 48.8522 17.5469 48.428 17.5502C48.2165 17.5539 48.0103 17.6077 47.8317 17.7057C47.6531 17.8037 47.5091 17.9422 47.4152 18.1061C47.3748 18.1891 47.3555 18.2786 47.3587 18.3686C47.3619 18.4586 47.3875 18.547 47.4338 18.6276C47.48 18.7083 47.5458 18.7795 47.6267 18.8362C47.7076 18.8929 47.8016 18.9339 47.9025 18.9564C47.7681 18.8936 47.6182 18.8598 47.4654 18.8579C47.3127 18.8559 47.1616 18.886 47.0252 18.9454C46.8888 19.0048 46.7709 19.0918 46.6818 19.199C46.5926 19.3063 46.5347 19.4306 46.513 19.5613C46.4913 19.6921 46.5065 19.8254 46.5573 19.95C46.608 20.0746 46.6928 20.1867 46.8045 20.2769C46.9161 20.367 47.0513 20.4325 47.1985 20.4678C47.3458 20.503 47.5006 20.507 47.65 20.4794C47.3741 20.2991 46.9543 20.5961 46.9895 20.8931C47.0262 21.0388 47.1061 21.1737 47.2214 21.2845C47.3367 21.3953 47.4834 21.4783 47.6471 21.5251C48.4515 21.8297 49.3909 21.7333 50.2216 21.4896C51.0524 21.2459 51.8274 20.8703 52.6523 20.6114C53.4773 20.3524 54.8599 19.8829 55.6878 20.1367C56.2984 20.322 56.7241 20.9566 57.0675 20.817C57.2301 20.7423 57.37 20.6356 57.4761 20.5055C57.5821 20.3754 57.6514 20.2256 57.6781 20.0682C57.7241 19.7511 57.7112 19.4298 57.64 19.1163" fill="#263238"/>
<path d="M47.6671 18.911C47.6847 18.911 47.7669 19.0354 47.9753 19.2283C48.2709 19.4997 48.6387 19.7045 49.0469 19.8248C49.6453 20.0131 50.3054 19.9903 50.8846 19.7613C51.5421 19.5075 52.1028 18.9998 52.7487 18.5201C53.3487 18.0356 54.1057 17.7212 54.9181 17.619C55.2538 17.5841 55.5944 17.6157 55.9138 17.7116C56.2332 17.8075 56.5232 17.9651 56.7617 18.1724C56.9147 18.3176 57.0322 18.4879 57.1074 18.6733C57.1825 18.8586 57.2137 19.0551 57.1991 19.2511C57.1869 19.3553 57.1592 19.4577 57.1169 19.5557C57.0817 19.6217 57.0582 19.6547 57.0523 19.6522C57.0895 19.5188 57.1141 19.3829 57.1257 19.2461C57.1264 18.8749 56.9601 18.5181 56.6619 18.2511C56.4335 18.0652 56.16 17.9257 55.8614 17.8428C55.5628 17.7598 55.2466 17.7354 54.9357 17.7713C54.1649 17.879 53.4491 18.184 52.8808 18.647C52.2467 19.1141 51.6684 19.637 50.9668 19.9009C50.4494 20.0927 49.8743 20.1349 49.3269 20.0215C48.7795 19.9081 48.2891 19.6451 47.9284 19.2714C47.8525 19.1921 47.7847 19.1071 47.7258 19.0176C47.6788 18.9389 47.6612 18.9135 47.6671 18.911Z" fill="#455A64"/>
<path d="M58.6023 23.9745C58.6023 23.9745 58.5201 23.9288 58.4467 23.7943C58.3501 23.6046 58.3165 23.3954 58.3498 23.1901C58.3939 22.6546 58.937 22.0758 59.0133 21.3347C59.0612 20.9918 58.9864 20.6446 58.799 20.3396C58.6344 20.0982 58.3828 19.9101 58.0827 19.8041C57.8787 19.7306 57.6561 19.7043 57.4369 19.7279C57.2842 19.7482 57.1991 19.7812 57.1932 19.7685C57.1873 19.7558 57.2607 19.7076 57.4222 19.6645C57.6563 19.614 57.9025 19.6246 58.1297 19.6949C58.4702 19.796 58.7597 19.996 58.9487 20.261C59.1667 20.5908 59.2552 20.9729 59.2012 21.3499C59.1525 21.7167 59.0272 22.0727 58.8313 22.4007C58.6716 22.654 58.555 22.9259 58.4849 23.2079C58.4328 23.4678 58.4738 23.7353 58.6023 23.9745Z" fill="#455A64"/>
<path d="M41.9809 12.0244C41.8782 11.9508 41.5142 9.23231 41.5142 9.23231L44.1562 7.89209L48.2661 8.71196L47.4412 10.702L43.2198 12.6158L41.9809 12.0244Z" fill="#EB996E"/>
<path d="M33.8081 14.1746C33.8081 14.1746 40.4485 11.1896 44.7081 10.7987C49.4374 10.3621 54.2049 12.7963 54.2049 12.7963L53.2625 2.0111C53.2625 2.0111 48.8151 -0.859709 43.1581 0.361208C38.3613 1.39683 33.5615 3.40716 33.5615 3.40716L33.8081 14.1746Z" fill="#FAFAFA"/>
<path d="M33.8077 14.1744V13.9892L33.7901 13.4333C33.7754 12.9256 33.7549 12.2149 33.7255 11.2884C33.6756 9.41262 33.6022 6.71949 33.5112 3.41972V3.38672L33.5465 3.37149C34.8176 2.86383 36.2032 2.33587 37.6945 1.84851C39.2605 1.31256 40.8577 0.847423 42.4796 0.454994L43.1195 0.307774L43.7801 0.191012C44.226 0.112611 44.6769 0.057515 45.1305 0.0260234C46.0624 -0.0294132 46.9986 0.0037832 47.9222 0.125017C48.8718 0.256708 49.8026 0.47451 50.6993 0.774819C51.6238 1.07894 52.5036 1.47594 53.3209 1.95766L53.3473 1.97289V2.00589C53.3473 2.10996 53.3678 2.22418 53.3766 2.33587C53.6966 6.03415 54.0049 9.56999 54.2838 12.7911V12.9053L54.1663 12.8495C52.8416 12.2187 51.4407 11.7157 49.9889 11.3493C48.67 11.0124 47.3041 10.8331 45.9289 10.8163C44.709 10.8229 43.4959 10.9749 42.324 11.2681C41.2261 11.5219 40.2338 11.8215 39.3414 12.1083C37.5624 12.6895 36.1856 13.2251 35.2462 13.6008L34.1776 14.0374L33.9046 14.1516L33.8077 14.1871L33.8987 14.1415L34.1659 14.0196C34.4066 13.913 34.753 13.7658 35.2286 13.5627C36.1592 13.1769 37.533 12.6286 39.312 12.0397C40.1927 11.7478 41.1967 11.4458 42.2976 11.1843C43.4777 10.8819 44.701 10.7238 45.9319 10.7148C47.3242 10.7298 48.7073 10.9118 50.0418 11.2554C51.5066 11.6184 52.9197 12.1224 54.2544 12.7581L54.1487 12.8165C53.8551 9.59537 53.5616 6.05954 53.2299 2.36125L53.2005 2.02873L53.2328 2.07696C52.426 1.60373 51.558 1.21357 50.6465 0.914425C49.7593 0.616829 48.8383 0.400732 47.8988 0.269699C46.9807 0.143616 46.0494 0.105311 45.1216 0.155476C44.6742 0.18671 44.2292 0.240102 43.7889 0.315388L43.1372 0.43215L42.5001 0.576832C40.8845 0.958509 39.2923 1.41091 37.7297 1.93228C36.2414 2.42471 34.8528 2.94759 33.5876 3.45525L33.6199 3.40956C33.6815 6.70934 33.7314 9.3847 33.7666 11.2529C33.7813 12.1844 33.7931 12.9129 33.8019 13.413V13.9815C33.8107 14.1161 33.8077 14.1744 33.8077 14.1744Z" fill="#263238"/>
<path d="M50.7175 9.82384C50.6735 9.82384 50.4973 8.00388 50.3241 5.76258C50.1509 3.52127 50.0423 1.67847 50.0834 1.67847C50.1245 1.67847 50.3006 3.49588 50.4768 5.73973C50.6529 7.98358 50.7586 9.8213 50.7175 9.82384Z" fill="#E0E0E0"/>
<path d="M49.0495 9.25772C49.0084 9.25772 48.8322 7.43777 48.659 5.19646C48.4858 2.95515 48.3655 1.1352 48.4183 1.11997C48.4712 1.10474 48.6356 2.93738 48.8088 5.18123C48.982 7.42508 49.0935 9.25518 49.0495 9.25772Z" fill="#E0E0E0"/>
<path d="M47.444 9.05988C47.4029 9.05988 47.2267 7.23992 47.0506 4.99861C46.8745 2.7573 46.757 0.922119 46.8128 0.922119C46.8686 0.922119 47.0301 2.73953 47.2033 4.98338C47.3765 7.22723 47.4851 9.05734 47.444 9.05988Z" fill="#E0E0E0"/>
<path d="M44.1471 9.45841C44.106 9.45841 43.9299 7.63845 43.7537 5.39714C43.5776 3.15583 43.4602 1.33588 43.5159 1.32065C43.5717 1.30542 43.7332 3.13807 43.9064 5.38191C44.0796 7.62576 44.1882 9.45587 44.1471 9.45841Z" fill="#E0E0E0"/>
<path d="M42.612 9.82384C42.5709 9.82384 42.3948 8.00642 42.2216 5.76258C42.0484 3.51873 41.9398 1.67847 41.9809 1.67847C42.022 1.67847 42.1981 3.49842 42.3742 5.73973C42.5504 7.98104 42.6561 9.8213 42.612 9.82384Z" fill="#E0E0E0"/>
<path d="M40.9799 10.1844C40.9358 10.1844 40.7626 8.36443 40.5865 6.12312C40.4103 3.88181 40.2929 2.04663 40.3458 2.04663C40.3986 2.04663 40.5659 3.86405 40.7391 6.10789C40.9123 8.35174 41.0121 10.1818 40.9799 10.1844Z" fill="#E0E0E0"/>
<path d="M37.8713 11.2935C37.8272 11.2935 37.6511 9.47611 37.4779 7.23226C37.3047 4.98841 37.1843 3.1583 37.2372 3.15576C37.29 3.15323 37.4544 4.97572 37.6305 7.21703C37.8067 9.45834 37.9124 11.291 37.8713 11.2935Z" fill="#E0E0E0"/>
<path d="M39.3568 10.6918C39.3128 10.6918 39.1396 8.8744 38.9634 6.63055C38.7873 4.3867 38.6699 2.55405 38.7227 2.55152C38.7756 2.54898 38.9429 4.37147 39.1161 6.61278C39.2893 8.85409 39.3979 10.6918 39.3568 10.6918Z" fill="#E0E0E0"/>
<path d="M36.1354 11.7758C36.0943 11.7758 35.9182 9.95584 35.745 7.71453C35.5718 5.47322 35.4514 3.65326 35.5043 3.63803C35.5571 3.6228 35.7215 5.45545 35.8976 7.6993C36.0738 9.94315 36.1794 11.7733 36.1354 11.7758Z" fill="#E0E0E0"/>
<path d="M45.7501 9.10041C45.709 9.10041 45.5329 7.28045 45.3568 5.03914C45.1806 2.79783 45.0632 0.965187 45.119 0.962649C45.1747 0.960111 45.3362 2.78006 45.5094 5.02391C45.6826 7.26776 45.7912 9.09787 45.7501 9.10041Z" fill="#E0E0E0"/>
<path d="M47.9607 9.18665C48.3054 9.03426 48.6701 8.91836 49.0469 8.84145C49.7338 8.65615 50.6938 8.41247 51.78 8.15357L51.7359 8.38963L51.3073 8.15611C49.1996 7.02657 47.2356 6.5646 47.265 6.48591C47.265 6.45291 47.7758 6.52906 48.5596 6.73974C49.5769 7.03684 50.5519 7.43281 51.4659 7.92005C51.6185 7.99873 51.7594 8.0825 51.9033 8.16118C51.9273 8.1753 51.9461 8.19504 51.9576 8.21809C51.9691 8.24114 51.9727 8.26655 51.9681 8.29133C51.9635 8.3161 51.9508 8.33923 51.9315 8.35799C51.9122 8.37675 51.8871 8.39037 51.8592 8.39724C50.7701 8.65107 49.8043 8.85921 49.0997 9.00136C48.7305 9.10395 48.3478 9.1662 47.9607 9.18665Z" fill="#FFC100"/>
<path d="M49.5813 8.89715C49.4991 8.89715 49.3611 8.30319 49.2877 7.55693C49.2143 6.81067 49.1997 6.19641 49.2877 6.18879C49.3758 6.18118 49.5079 6.78021 49.5813 7.52901C49.6547 8.2778 49.6664 8.88953 49.5813 8.89715Z" fill="#FFC100"/>
<path d="M51.9029 8.41745C51.9029 8.41745 51.9382 8.46314 51.9705 8.56467C52.0106 8.7165 51.9994 8.87509 51.9382 9.02156C51.836 9.25309 51.6561 9.45288 51.4215 9.59522C51.2823 9.6872 51.1316 9.76552 50.9723 9.82874C50.7921 9.89793 50.6028 9.9482 50.4087 9.9785C49.9642 10.0516 49.5066 10.0412 49.0671 9.94804C48.8227 9.89862 48.5831 9.83242 48.3508 9.75005C47.9538 9.62513 47.5892 9.43371 47.2779 9.18674C46.9666 8.93978 46.7147 8.64213 46.5366 8.31084C46.2268 7.83364 46.1228 7.27691 46.2431 6.73964C46.3193 6.4546 46.5108 6.20251 46.7832 6.02892C47.0456 5.87355 47.3479 5.77595 47.6639 5.74463C48.4262 5.65865 49.2013 5.74673 49.912 6.00012C50.6227 6.2535 51.2444 6.66336 51.7151 7.18892C52.1062 7.63671 52.3396 8.17257 52.3873 8.7322C52.4214 8.93296 52.4154 9.13729 52.3697 9.33631C52.3243 9.14085 52.2909 8.94343 52.2699 8.74489C52.1812 8.21777 51.9308 7.72082 51.5448 7.30568C50.9673 6.69507 50.1761 6.26306 49.2902 6.07461C48.7744 5.96104 48.2381 5.93518 47.7109 5.99846C47.4428 6.03142 47.1873 6.11836 46.9652 6.25229C46.7506 6.389 46.6004 6.58826 46.5425 6.81325C46.441 7.28995 46.5366 7.78232 46.8126 8.20424C47.0404 8.61724 47.3822 8.97549 47.8077 9.24747C48.557 9.69101 49.4647 9.88901 50.3676 9.8059C50.7092 9.76498 51.035 9.65545 51.3188 9.48607C51.5368 9.36613 51.7125 9.19666 51.8266 8.99618C51.8904 8.86555 51.9185 8.72398 51.9088 8.58244C51.8939 8.52836 51.8919 8.47222 51.9029 8.41745Z" fill="#FFC100"/>
<path d="M45.2367 13.0524L46.5607 12.126C47.1396 11.7218 47.5152 11.1397 47.6087 10.5014L47.6821 10.0141L43.7043 9.3186C43.7043 9.3186 43.3315 10.3593 44.8286 10.6182C43.5017 11.1259 43.0056 12.1412 42.6416 13.2809L45.2367 13.0524Z" fill="#EB996E"/>
<path d="M43.5952 11.4966C43.6158 11.4966 43.7009 11.3545 43.9416 11.1641C44.2721 10.8976 44.7051 10.7466 45.157 10.7402H45.5826L45.1834 10.6108L44.2557 10.3087H44.2733C44.0876 10.2239 43.9336 10.095 43.8296 9.9372C43.7256 9.77938 43.6759 9.59918 43.6862 9.41776C43.6893 9.39029 43.6952 9.36311 43.7038 9.33653L43.5923 9.38984C44.7078 9.62844 45.7177 9.82896 46.4574 9.93811C46.8273 9.99395 47.1268 10.032 47.3381 10.0498C47.4454 10.0683 47.5551 10.0734 47.664 10.065C47.278 9.96675 46.886 9.88709 46.4897 9.82642C45.7617 9.68936 44.7577 9.47106 43.6422 9.22993L43.557 9.21216L43.5306 9.28323C43.5176 9.32048 43.5088 9.35874 43.5042 9.39745C43.474 9.61725 43.5343 9.83922 43.6745 10.0244C43.8014 10.1931 43.9711 10.3345 44.1706 10.4382L45.1041 10.7174L45.1305 10.5854C44.6443 10.603 44.1855 10.7853 43.8535 11.093C43.7274 11.2053 43.6382 11.3446 43.5952 11.4966Z" fill="#D1734A"/>
<path d="M52.9838 104.939L58.6936 65.8492L57.5986 59.9248H46.1291L44.7611 104.226C44.7554 104.395 44.8196 104.561 44.9422 104.694C45.0647 104.826 45.2378 104.917 45.4304 104.949L51.7009 105.784C51.8497 105.804 52.0015 105.797 52.1474 105.765C52.2932 105.733 52.43 105.676 52.5497 105.597C52.6695 105.518 52.7696 105.419 52.8441 105.306C52.9187 105.193 52.9662 105.068 52.9838 104.939Z" fill="#263238"/>
<path d="M58.5288 67.1662L68.915 76.0503L53.9727 79.1901L55.0354 85.6958L75.2589 83.3174C76.1146 83.2165 76.9376 82.9662 77.6779 82.5818C78.4182 82.1974 79.0604 81.6868 79.5655 81.0812C80.3291 80.1643 80.7481 79.0665 80.7654 77.9367C80.7827 76.807 80.3976 75.6999 79.6624 74.7659L63.9098 54.7769L56.8643 56.7593L58.5288 67.1662Z" fill="#263238"/>
<path d="M57.9561 64.897C58.1245 65.2564 58.2456 65.631 58.3171 66.0138C58.4377 66.3872 58.5086 66.7713 58.5285 67.1586C58.36 66.7992 58.2389 66.4246 58.1674 66.0417C58.0469 65.6683 57.976 65.2843 57.9561 64.897Z" fill="#455A64"/>
<path d="M56.4444 80.0075C56.4444 80.0075 56.5266 79.9796 56.691 79.9365L57.4161 79.741L60.205 79.0074L70.3447 76.3702L70.3182 76.4539L57.8506 64.9783L57.9827 64.9402C57.7332 66.745 57.4778 68.6258 57.2136 70.5473C55.9278 79.8578 54.7212 88.2823 53.7848 94.3742C53.3209 97.4202 52.9041 99.8798 52.6105 101.578C52.4432 102.426 52.3346 103.086 52.2201 103.527L52.0968 104.035C52.0674 104.147 52.0498 104.205 52.0498 104.205C52.0571 104.146 52.0679 104.088 52.0821 104.03C52.1056 103.913 52.1437 103.746 52.1907 103.522C52.2935 103.081 52.3933 102.418 52.5518 101.57C52.8454 99.8696 53.2241 97.4075 53.6761 94.3616C54.5833 88.2697 55.7722 79.8425 57.058 70.5321C57.3222 68.6106 57.5805 66.7247 57.8301 64.925L57.8477 64.7854L57.9592 64.8869L70.4004 76.3854L70.465 76.4463L70.374 76.4691L60.2197 79.0633L57.4249 79.7689L56.691 79.9517L56.4444 80.0075Z" fill="#455A64"/>
<path d="M53.0832 104.203C53.0392 104.203 54.2252 95.8998 55.7253 85.673C57.2254 75.4462 58.4818 67.1435 58.5229 67.1587C58.564 67.1739 57.381 75.4564 55.8809 85.6882C54.3808 95.9201 53.1243 104.205 53.0832 104.203Z" fill="#455A64"/>
<path d="M56.8438 60.7598C56.9507 60.9533 57.0314 61.1569 57.0845 61.3664C57.2107 61.7446 57.378 62.2751 57.5189 62.864C57.6599 63.4529 57.7773 63.991 57.8448 64.387C57.8964 64.5963 57.921 64.81 57.9182 65.0241C57.8337 64.8236 57.7737 64.616 57.7391 64.4047C57.6334 63.9707 57.5072 63.4605 57.3692 62.897L56.9788 61.3943C56.9098 61.1872 56.8645 60.9746 56.8438 60.7598Z" fill="#455A64"/>
<path d="M57.51 59.9933C57.51 59.9933 57.6568 59.8714 57.9327 59.9552C58.0134 59.9801 58.0849 60.0231 58.1401 60.0797C58.1953 60.1363 58.2321 60.2046 58.2468 60.2775C58.2668 60.3679 58.2551 60.4613 58.2132 60.5459C58.1714 60.6305 58.1013 60.7023 58.012 60.7522C57.9196 60.7959 57.8141 60.8144 57.7093 60.8053C57.6046 60.7963 57.5054 60.7601 57.4249 60.7014C57.3585 60.6528 57.3102 60.5883 57.2862 60.5161C57.2622 60.4438 57.2634 60.367 57.2898 60.2953C57.318 60.2017 57.3876 60.1215 57.4836 60.0719C57.5511 60.0389 57.5951 60.039 57.5981 60.0466C57.601 60.0542 57.4395 60.1176 57.3926 60.3182C57.3795 60.3713 57.3838 60.4265 57.4051 60.4777C57.4264 60.5288 57.4637 60.5738 57.5129 60.6075C57.5728 60.6487 57.6453 60.6738 57.7215 60.6797C57.7977 60.6855 57.8742 60.6719 57.9415 60.6405C58.0051 60.6029 58.0554 60.5506 58.0865 60.4896C58.1176 60.4286 58.1284 60.3613 58.1177 60.2953C58.1081 60.2406 58.0829 60.1887 58.0445 60.1444C58.0061 60.1001 57.9556 60.0648 57.8975 60.0415C57.7745 59.9993 57.6417 59.9828 57.51 59.9933Z" fill="#455A64"/>
<path d="M71.9712 77.5731C71.9418 77.6036 71.3547 77.1391 70.5033 76.7203C69.652 76.3014 68.9093 76.0857 68.921 76.0476C70.0937 76.2667 71.1568 76.7995 71.9594 77.5706L71.9712 77.5731Z" fill="#455A64"/>
<path d="M45.9643 59.8054L44.9544 44.2685C44.9544 44.2685 43.4484 38.6716 42.1479 36.4226L49.0144 32.072L50.7934 32.8107L54.3161 35.5799L57.88 33.7803C57.88 33.7803 62.1484 35.3337 63.2727 35.9175C64.3971 36.5013 64.6202 38.0548 64.6202 38.0548C64.6202 38.0548 60.9184 43.6948 60.8039 45.9082C60.6894 48.1216 64.5057 53.7769 64.5057 53.7769C64.5057 53.7769 66.5929 54.3125 66.7104 55.7644C66.8131 57.0209 66.1379 57.4701 66.1379 57.4701C66.1379 57.4701 65.8444 56.1045 63.7219 56.6884C61.5994 57.2722 57.1578 60.6709 53.9727 60.7674C50.7875 60.8638 45.9643 59.8054 45.9643 59.8054Z" fill="#6C2C9E"/>
<path d="M64.4324 37.3921L67.139 46.9868L70.2156 40.6411L74.5779 42.9256C74.5779 42.9256 70.468 55.5688 66.3934 54.325C66.3934 54.325 63.857 53.2158 63.5458 52.4289C63.2346 51.642 58.5317 45.9081 58.5317 45.9081L64.4324 37.3921Z" fill="#6C2C9E"/>
<path d="M64.4971 53.7769C64.4971 53.7769 64.4589 53.7413 64.4031 53.6703L64.1566 53.3581C64.0509 53.221 63.9188 53.0535 63.7867 52.8504C63.6546 52.6473 63.4931 52.4214 63.3375 52.1549C63.1819 51.8884 63.0058 51.6066 62.8502 51.2868C62.6946 50.967 62.5273 50.6243 62.3688 50.2588C62.0422 49.4593 61.79 48.6385 61.6143 47.8043C61.4524 46.9652 61.3651 46.1166 61.353 45.266C61.353 44.8751 61.353 44.5045 61.3853 44.1568C61.4176 43.809 61.447 43.4892 61.4793 43.1947C61.5585 42.6084 61.6437 42.1363 61.7258 41.8139C61.7611 41.6667 61.7904 41.5423 61.8169 41.4433C61.823 41.3995 61.8369 41.3567 61.858 41.3164C61.8646 41.3602 61.8646 41.4046 61.858 41.4484C61.8403 41.5499 61.8198 41.6743 61.7963 41.8241C61.7347 42.149 61.6642 42.6211 61.5996 43.2049C61.5732 43.4968 61.5321 43.8166 61.5262 44.1618C61.5204 44.507 61.5027 44.8751 61.5057 45.2634C61.5266 46.1048 61.6178 46.9438 61.7787 47.7738C61.9508 48.6014 62.1972 49.4161 62.5155 50.2106C62.6682 50.5735 62.8091 50.9213 62.9794 51.2259C63.1496 51.5305 63.2964 51.83 63.4432 52.0965C63.59 52.363 63.7368 52.5889 63.8718 52.7946C64.0068 53.0002 64.1213 53.1728 64.2182 53.3149L64.4384 53.6423C64.4637 53.6851 64.4834 53.7303 64.4971 53.7769Z" fill="#263238"/>
<path d="M40.9708 11.2502C40.9708 11.2502 34.1015 21.2308 33.6318 22.703C33.1386 24.226 42.6764 37.2703 42.6764 37.2703C42.6764 37.2703 42.8614 37.6891 42.8643 37.6865L49.6809 32.978L41.646 23.1472L45.9644 13.3291L40.9708 11.2502Z" fill="#6C2C9E"/>
<path d="M41.9251 23.5458C41.9016 23.561 41.7577 23.3833 41.4554 23.1599C41.0597 22.8713 40.5929 22.6647 40.0907 22.556C39.5885 22.4473 39.0642 22.4395 38.5579 22.533C38.1704 22.6066 37.9444 22.7056 37.9326 22.6827C38.1048 22.5625 38.3051 22.4759 38.5197 22.4289C38.7518 22.3707 38.9915 22.3383 39.2331 22.3325C39.5296 22.327 39.8257 22.3551 40.1138 22.4162C40.4003 22.4813 40.6764 22.5768 40.9358 22.7005C41.1483 22.8048 41.3455 22.9309 41.5229 23.0762C41.6951 23.2054 41.8323 23.3657 41.9251 23.5458Z" fill="#263238"/>
<path d="M45.0456 38.0773C45.0162 38.0773 45.0309 37.7296 44.9223 37.1838C44.8558 36.8633 44.7575 36.5482 44.6287 36.2421C44.3226 35.4887 43.841 34.7976 43.2137 34.2115C42.9579 33.9748 42.68 33.7566 42.3829 33.5592C41.8692 33.2241 41.5022 33.0718 41.5228 33.0515C41.6143 33.0726 41.7022 33.1042 41.7841 33.1454C41.885 33.185 41.9831 33.2299 42.0776 33.28C42.205 33.3429 42.3284 33.4115 42.4475 33.4856C42.7643 33.6756 43.0592 33.8915 43.3282 34.1303C43.6503 34.4257 43.9365 34.7489 44.1825 35.0948C44.4221 35.4433 44.6189 35.8125 44.7696 36.1965C44.8906 36.5102 44.9771 36.8332 45.0279 37.161C45.048 37.2864 45.0608 37.4127 45.0661 37.5392C45.0748 37.6347 45.0748 37.7306 45.0661 37.826C45.075 37.9102 45.068 37.9951 45.0456 38.0773Z" fill="#263238"/>
<path d="M63.6987 54.0662C63.6987 54.0814 63.4843 54.0662 63.1115 54.0865C62.5791 54.1325 62.0581 54.2498 61.5674 54.4342C60.8415 54.7123 60.1581 55.0669 59.533 55.4901C58.8167 55.9572 58.0652 56.5258 57.2109 57.0385C56.4106 57.545 55.4934 57.8965 54.5219 58.069C53.7273 58.1903 52.9151 58.1981 52.1176 58.0919C51.582 58.0242 51.0545 57.9155 50.5412 57.767C50.3591 57.7137 50.2212 57.668 50.1272 57.635C50.0791 57.6205 50.0329 57.6018 49.9893 57.5792C50.1818 57.616 50.3719 57.6617 50.5588 57.7162C51.0732 57.8453 51.5982 57.9403 52.1293 58.0005C52.9105 58.09 53.7032 58.072 54.4778 57.9472C55.4321 57.7754 56.3329 57.4292 57.1199 56.9319C57.9712 56.4242 58.7169 55.8582 59.4449 55.3937C60.0825 54.9689 60.7812 54.6174 61.5233 54.3479C62.0264 54.1669 62.5615 54.0613 63.1057 54.0357C63.2523 54.0281 63.3994 54.0281 63.546 54.0357C63.5981 54.0405 63.6494 54.0507 63.6987 54.0662Z" fill="#263238"/>
<path d="M66.8635 51.3908C66.7718 51.1861 66.7115 50.9719 66.6844 50.7536C66.5901 50.2299 66.5596 49.699 66.5934 49.1697C66.6285 48.6403 66.7269 48.1155 66.887 47.6036C66.9405 47.3889 67.0274 47.1814 67.1453 46.9868C67.1098 47.2026 67.0588 47.4162 66.9926 47.6265C66.8677 48.1374 66.7882 48.6559 66.7548 49.1774C66.7228 49.6988 66.7385 50.2216 66.8018 50.7409C66.8397 50.9561 66.8603 51.1732 66.8635 51.3908Z" fill="#263238"/>
<g opacity="0.3">
<path d="M50.2771 57.5208C50.3005 56.8862 51.1754 56.5232 51.9093 56.5613C52.6432 56.5994 53.3389 56.8862 54.0728 56.9091C55.3175 56.9497 56.4213 56.244 57.3725 55.5587C58.3236 54.8733 59.3804 54.1347 60.6252 54.0916C60.7807 54.0916 60.9774 54.1144 61.0215 54.2464C61.0655 54.3784 60.9451 54.4774 60.8395 54.5586C59.3071 55.7414 57.7394 56.9471 55.8489 57.6401C53.9583 58.333 51.6539 58.4422 49.9365 57.47" fill="black"/>
</g>
<g opacity="0.3">
<path d="M61.7204 42.1262C61.5135 45.2329 62.6816 48.2912 64.9878 50.6802C65.3724 51.0737 65.798 51.462 65.9859 51.9494C66.1738 52.4367 66.0476 53.0662 65.525 53.315C65.2973 53.4045 65.0441 53.434 64.7971 53.3997C64.5501 53.3654 64.3203 53.2688 64.1365 53.1221C63.7734 52.8245 63.4907 52.4614 63.3086 52.0585C61.5766 48.8552 60.7194 45.1569 61.8408 41.7556" fill="black"/>
</g>
<path d="M27.8599 93.4172C28.1535 92.5644 28.7553 91.742 29.6976 91.3866C30.64 91.0312 31.8113 91.2292 32.8153 91.544C33.8192 91.8587 34.8027 92.2826 35.8683 92.3385C36.9339 92.3943 38.1346 91.9577 38.4546 91.0693C38.7482 90.2393 38.1757 89.3585 37.4536 88.7569C36.6904 88.1214 35.7544 87.6623 34.732 87.4218C33.7096 87.1813 32.6336 87.1673 31.6033 87.381C30.5729 87.5947 29.6214 88.0292 28.8364 88.6445C28.0513 89.2598 27.4581 90.0361 27.1113 90.9018" fill="#FFC100"/>
<g opacity="0.5">
<path d="M27.8599 93.4172C28.1535 92.5644 28.7553 91.742 29.6976 91.3866C30.64 91.0312 31.8113 91.2292 32.8153 91.544C33.8192 91.8587 34.8027 92.2826 35.8683 92.3385C36.9339 92.3943 38.1346 91.9577 38.4546 91.0693C38.7482 90.2393 38.1757 89.3585 37.4536 88.7569C36.6904 88.1214 35.7544 87.6623 34.732 87.4218C33.7096 87.1813 32.6336 87.1673 31.6033 87.381C30.5729 87.5947 29.6214 88.0292 28.8364 88.6445C28.0513 89.2598 27.4581 90.0361 27.1113 90.9018" fill="#1F1F37"/>
</g>
<path d="M19.4231 97.1182C17.8584 95.8363 17.9377 93.6001 18.7156 91.8639C19.4936 90.1277 21.1992 88.7926 23.0985 87.9118C24.9538 87.0698 27.0055 86.6021 29.0997 86.5436C31.1939 86.4851 33.2762 86.8375 35.1904 87.5742C34.253 87.6089 33.3398 87.8418 32.5307 88.2524C31.7215 88.6631 31.0412 89.239 30.5492 89.9297C29.6949 91.1608 29.5041 92.6533 28.7878 93.9504C27.9904 95.4129 26.5758 96.556 24.8343 97.1451C23.0928 97.7342 21.1566 97.7246 19.4231 97.1182Z" fill="#6C2C9E"/>
<path d="M18.7072 89.3262C16.9781 87.5621 16.7462 84.7269 17.0016 82.4221C17.257 80.1173 17.8823 77.7999 17.4537 75.5154C17.2042 74.16 16.5965 72.868 16.391 71.5074C16.1855 70.1469 16.4761 68.6113 17.6944 67.733C19.0947 66.7177 21.2994 66.9715 22.7584 67.9107C24.2174 68.8498 25.057 70.3449 25.6735 71.8273C27.0297 75.0864 27.5288 78.6984 26.4133 82.0236C25.2977 85.3487 22.6879 88.3236 18.8569 89.3262" fill="#6C2C9E"/>
<path d="M17.8403 103.893C17.8338 103.825 17.8338 103.757 17.8403 103.69C17.8403 103.558 17.8403 103.36 17.8403 103.106C17.8638 102.598 17.9196 101.867 18.0517 100.969C18.2042 99.9147 18.4257 98.8689 18.7151 97.8365C19.0749 96.5687 19.6308 95.3486 20.3679 94.2093C21.1077 93.0717 22.0156 92.0222 23.0687 91.0872C23.9261 90.3246 24.8759 89.6438 25.9015 89.0566C26.3331 88.8027 26.7499 88.6022 27.111 88.4195C27.4721 88.2367 27.8009 88.1149 28.0651 88.0057L28.6875 87.7798C28.7583 87.7506 28.832 87.7269 28.9076 87.7087C28.8406 87.744 28.771 87.7754 28.6992 87.8027L28.0886 88.0565C27.8302 88.1732 27.5015 88.3103 27.1492 88.488C26.7969 88.6657 26.383 88.8764 25.9573 89.1378C23.7018 90.4656 21.832 92.2266 20.4941 94.2829C18.903 96.6892 18.4656 99.2199 18.1456 100.992C18.0018 101.888 17.9284 102.616 17.8902 103.121C17.8726 103.375 17.8608 103.56 17.852 103.703C17.8537 103.766 17.8497 103.83 17.8403 103.893Z" fill="#263238"/>
<path d="M2.91891 82.4395C-0.283861 84.1096 -0.272117 85.6301 0.276846 87.0642C0.825808 88.4984 2.77507 89.4959 4.40434 88.9578C5.32319 88.6532 5.99252 87.9628 6.56203 87.2673C7.13154 86.5718 7.66583 85.8281 8.46432 85.328C9.26281 84.828 10.4194 84.6376 11.2209 85.1326" fill="#FFC100"/>
<g opacity="0.5">
<path d="M2.91891 82.4395C-0.283861 84.1096 -0.272117 85.6301 0.276846 87.0642C0.825809 88.4983 2.77507 89.4959 4.40434 88.9578C5.32319 88.6532 5.99252 87.9628 6.56203 87.2673C7.13154 86.5718 7.66583 85.8281 8.46432 85.328C9.26281 84.828 10.4194 84.6376 11.2209 85.1326" fill="#1F1F37"/>
</g>
<path d="M0.221704 83.8929C1.05836 82.8928 3.12798 82.6034 4.4314 83.1035C5.73482 83.6035 6.69477 84.5909 7.54023 85.5732C8.38569 86.5555 9.22822 87.6039 10.4142 88.2917C11.6002 88.9796 13.2559 89.2284 14.439 88.5456C14.8154 88.3027 15.1305 87.996 15.3652 87.6442C15.6 87.2925 15.7493 86.903 15.804 86.4997C15.9088 85.6918 15.8452 84.8743 15.6162 84.0858C15.3226 82.9258 14.8734 81.7125 13.799 80.9764C12.6013 80.154 10.9397 80.1159 9.41316 80.1591C7.65178 80.2073 5.89041 80.3215 4.23471 80.8469C2.57901 81.3724 0.908641 82.507 0.209961 83.8929" fill="#6C2C9E"/>
<path d="M15.1778 101.687C15.1741 101.667 15.1741 101.646 15.1778 101.626C15.1778 101.578 15.1778 101.52 15.1778 101.449C15.1778 101.281 15.1778 101.05 15.1514 100.761C15.1309 100.154 15.1015 99.2935 15.0663 98.2351C15.0311 97.1766 14.9782 95.8973 14.8872 94.4911C14.7962 93.0849 14.6759 91.534 14.4293 89.9222C14.3244 89.1386 14.1467 88.3636 13.8979 87.6047C13.4028 86.2623 12.6441 85.0035 11.6551 83.8836C11.2428 83.4268 10.7903 82.9983 10.3018 82.6018C9.58866 82.0312 8.78133 81.5555 7.90629 81.1905C7.7507 81.127 7.61273 81.0661 7.49236 81.0229L7.17825 80.9189L6.98744 80.8529L6.92285 80.825L6.99331 80.8402L7.19 80.896L7.50704 80.9899C7.63328 81.028 7.77125 81.0864 7.92977 81.1448C8.82131 81.4979 9.64501 81.967 10.3722 82.5358C10.8701 82.9323 11.3305 83.3626 11.749 83.8227C12.224 84.3531 12.6453 84.9178 13.0084 85.5106C13.4129 86.1647 13.747 86.8495 14.0065 87.5565C14.2593 88.3226 14.4389 89.1053 14.5437 89.8968C14.7933 91.5137 14.9107 93.0646 14.9929 94.4657C15.0751 95.8669 15.1162 97.1462 15.1426 98.2148C15.169 99.2834 15.1749 100.146 15.1808 100.753V101.433C15.1808 101.507 15.1808 101.565 15.1808 101.614C15.1836 101.638 15.1826 101.663 15.1778 101.687Z" fill="#263238"/>
<path d="M16.3318 102.928C16.1798 102.54 16.063 102.142 15.9825 101.738C15.7595 100.636 15.7102 99.5132 15.8357 98.3999C16.032 96.7539 16.4407 95.132 17.054 93.5645C17.7116 91.7877 18.604 89.8789 19.3643 87.833C19.7402 86.8387 20.0471 85.8258 20.2832 84.7998C20.4945 83.843 20.6464 82.877 20.7382 81.9061C20.8842 80.2603 20.9185 78.6084 20.841 76.959C20.7852 75.5477 20.6971 74.408 20.6443 73.6212L20.5826 72.715C20.5826 72.616 20.5826 72.5373 20.5826 72.4789C20.5788 72.452 20.5788 72.4247 20.5826 72.3977C20.5852 72.4239 20.5852 72.4502 20.5826 72.4764C20.5826 72.5373 20.5973 72.6135 20.6091 72.7125C20.6306 72.9291 20.6599 73.2311 20.6971 73.6186C20.7676 74.4055 20.8703 75.5452 20.9378 76.9565C21.0306 78.6095 21.007 80.2658 20.8674 81.9163C20.7789 82.8914 20.629 83.8616 20.4182 84.8226C20.1828 85.8529 19.8759 86.8701 19.4994 87.8686C18.7332 89.9221 17.8378 91.8232 17.1773 93.5975C16.5597 95.1609 16.1423 96.7782 15.9326 98.4203C15.8006 99.5269 15.8342 100.644 16.0324 101.743C16.1117 102.131 16.1851 102.431 16.2467 102.631C16.2731 102.728 16.2966 102.804 16.3113 102.86C16.3211 102.882 16.328 102.905 16.3318 102.928Z" fill="#263238"/>
<path d="M24.2665 104.177H9.23605L8.89258 101.677H24.2665V104.177Z" fill="#455A64"/>
<path d="M10.8511 103.893L12.7299 111.399H20.8968L22.6552 103.893H10.8511Z" fill="#455A64"/>
<path d="M24.2784 104.177C24.2784 104.213 20.9758 104.233 16.8982 104.223C12.8207 104.213 9.51807 104.177 9.51807 104.142C9.51807 104.106 12.8236 104.089 16.9012 104.099C20.9788 104.109 24.2784 104.144 24.2784 104.177Z" fill="#455A64"/>
<path d="M21.6893 107.883C21.2804 107.618 20.8358 107.398 20.3654 107.226C19.8513 107.051 19.3057 106.957 18.7537 106.946C18.0777 106.948 17.4076 107.055 16.7751 107.261C16.0911 107.462 15.4511 107.695 14.8288 107.822C14.275 107.926 13.7037 107.941 13.1437 107.865C12.7673 107.819 12.4022 107.72 12.0634 107.571C11.9716 107.529 11.8842 107.481 11.8021 107.426C11.7463 107.39 11.717 107.37 11.7199 107.365C11.7229 107.36 11.8491 107.431 12.0869 107.528C12.4276 107.657 12.7887 107.743 13.1584 107.781C13.7058 107.842 14.2613 107.819 14.7994 107.713C15.4012 107.583 16.0412 107.347 16.731 107.147C17.3794 106.936 18.067 106.83 18.7596 106.835C19.3248 106.852 19.8817 106.958 20.4035 107.147C20.7535 107.273 21.0823 107.44 21.3811 107.642C21.4631 107.695 21.5415 107.753 21.6159 107.814C21.6658 107.855 21.6923 107.878 21.6893 107.883Z" fill="#263238"/>
<path d="M21.5749 108.383C21.18 108.128 20.7537 107.91 20.3038 107.736C19.8102 107.562 19.2837 107.468 18.7508 107.459C18.0976 107.461 17.4499 107.561 16.8368 107.756C16.1733 107.949 15.5539 108.17 14.9609 108.309C14.4347 108.44 13.887 108.493 13.3404 108.467C12.9711 108.445 12.6107 108.358 12.2807 108.213C12.1923 108.172 12.1078 108.126 12.0282 108.073C11.9724 108.038 11.946 108.018 11.949 108.015C11.9519 108.012 12.0752 108.078 12.3042 108.17C12.6354 108.292 12.9896 108.359 13.3492 108.37C13.8816 108.385 14.4132 108.324 14.9227 108.19C15.5099 108.051 16.1205 107.825 16.7927 107.632C17.4207 107.433 18.0849 107.333 18.7537 107.337C19.3011 107.352 19.8402 107.457 20.3419 107.647C20.6787 107.775 20.9946 107.94 21.2813 108.139C21.36 108.192 21.4345 108.249 21.5044 108.309C21.5543 108.358 21.5778 108.381 21.5749 108.383Z" fill="white"/>
<path d="M21.836 107.386C21.4149 107.111 20.9589 106.878 20.4768 106.693C19.9536 106.498 19.3955 106.382 18.827 106.35C18.125 106.334 17.4264 106.44 16.772 106.66C16.1126 106.883 15.4393 107.073 14.7552 107.231C14.179 107.315 13.5906 107.315 13.0144 107.231C12.6269 107.177 12.2508 107.074 11.8989 106.924C11.8045 106.882 11.7142 106.833 11.6288 106.779C11.5701 106.741 11.5407 106.721 11.5437 106.716C11.5466 106.711 11.6758 106.784 11.9224 106.881C12.2779 107.007 12.651 107.092 13.032 107.134C13.5957 107.204 14.1687 107.195 14.7288 107.107C15.4053 106.944 16.0716 106.752 16.725 106.53C17.3924 106.306 18.1056 106.202 18.8211 106.223C19.4032 106.261 19.9729 106.388 20.5032 106.599C20.8616 106.737 21.1988 106.912 21.5072 107.122C21.5914 107.178 21.6718 107.238 21.7479 107.302C21.8154 107.358 21.8389 107.381 21.836 107.386Z" fill="white"/>
<path d="M24.4017 104.19C24.4017 104.223 21.0198 104.251 16.8483 104.251C12.6767 104.251 9.30664 104.225 9.30664 104.19C9.30664 104.154 12.6885 104.126 16.8571 104.126C21.0257 104.126 24.4017 104.154 24.4017 104.19Z" fill="#263238"/>
<path d="M102.906 43.243C102.766 43.0966 102.653 42.9332 102.568 42.7582C102.369 42.4308 102.084 41.9434 101.723 41.3114C101.001 40.0423 99.9613 38.2071 98.7108 35.9099C96.1861 31.3156 92.7133 24.9039 88.8382 17.6596H89.531C89.0026 18.7232 88.439 19.8426 87.9106 20.9949C86.9565 23.0256 86.0846 25.0562 85.3155 27.0107C84.9162 27.9905 84.5669 28.9626 84.2087 29.912C83.8506 30.8613 83.5365 31.8004 83.237 32.7041C82.0217 36.3694 81.1234 39.7174 80.4688 42.5476C79.8141 45.3777 79.3972 47.6851 79.1096 49.2816C78.9657 50.0812 78.8688 50.7031 78.7837 51.1219C78.7601 51.3392 78.7059 51.5531 78.6222 51.759C78.5875 51.5426 78.5875 51.3231 78.6222 51.1067C78.6575 50.6828 78.7074 50.0533 78.8042 49.2486C79.0009 47.6394 79.3415 45.3143 79.9286 42.4613C80.5157 39.6082 81.3641 36.2323 82.5501 32.5391C82.8437 31.6151 83.1725 30.6734 83.5042 29.7114C83.8359 28.7494 84.1999 27.7747 84.5962 26.7899C85.3624 24.8125 86.2343 22.787 87.1913 20.7335C87.7256 19.576 88.2951 18.449 88.8265 17.383C88.8463 17.3434 88.8749 17.3076 88.9107 17.2777C88.9465 17.2477 88.9888 17.2242 89.0352 17.2084C89.0816 17.1926 89.1311 17.1848 89.1809 17.1856C89.2307 17.1864 89.2799 17.1957 89.3255 17.2129C89.4109 17.2439 89.4792 17.302 89.5164 17.3753C93.3738 24.6272 96.7615 31.0821 99.1628 35.7145C100.364 38.037 101.321 39.9077 101.963 41.2023C102.283 41.8495 102.527 42.3521 102.686 42.6948C102.789 42.8675 102.863 43.0522 102.906 43.243Z" fill="#6C2C9E"/>
<path d="M97.9917 32.3083C98.0475 32.486 92.5226 33.9379 85.662 35.5522C78.8015 37.1666 73.1739 38.3443 73.1181 38.1565C73.0623 37.9687 78.5872 36.5269 85.4624 34.9126C92.3377 33.2982 97.9359 32.1382 97.9917 32.3083Z" fill="#6C2C9E"/>
<path d="M94.1463 12.1211C94.2554 12.0497 94.3748 11.9908 94.5015 11.946L94.9507 11.7531C95.1327 11.682 95.3528 11.6135 95.5994 11.5297C96.2136 11.3343 96.8475 11.189 97.4929 11.0957C98.3797 10.9803 99.2807 10.9718 100.17 11.0703C101.286 11.2063 102.368 11.4978 103.376 11.9333C104.565 12.4629 105.665 13.1317 106.643 13.9208C107.766 14.8243 108.764 15.837 109.617 16.9388C109.852 17.2347 110.061 17.5452 110.242 17.8678C110.43 18.1902 110.627 18.5151 110.815 18.8476L111.32 19.8883C111.496 20.2386 111.613 20.6092 111.766 20.9772C112.344 22.5336 112.705 24.1441 112.84 25.7746C112.978 27.5388 112.906 29.3106 112.623 31.0618C112.319 32.9318 111.855 34.7796 111.235 36.5902C111.088 37.0598 110.903 37.5218 110.738 37.9939C110.574 38.466 110.351 38.9331 110.151 39.4077C109.914 39.8672 109.693 40.3367 109.432 40.7962L109.024 41.479L108.822 41.8216L108.593 42.1542C107.357 43.9804 105.879 45.6757 104.189 47.2054C102.432 48.7978 100.491 50.2294 98.3942 51.4773C96.2399 52.7933 93.9135 53.8847 91.4631 54.7288C88.9112 55.6087 86.1808 56.036 83.4342 55.9853C82.0385 55.9478 80.6592 55.7138 79.3507 55.2923C78.0492 54.87 76.8606 54.2232 75.8573 53.3912C75.362 52.9853 74.911 52.541 74.5099 52.0636C74.1109 51.5944 73.7537 51.0998 73.4413 50.5838C72.8259 49.5723 72.3339 48.5081 71.9735 47.4084C70.6546 43.2332 70.3902 38.8614 71.1985 34.5901C71.5644 32.6099 72.1312 30.6614 72.8923 28.7672C72.9892 28.5388 73.0831 28.3103 73.1859 28.0819C73.2886 27.8534 73.3738 27.6275 73.4795 27.4067C73.6928 26.965 73.9041 26.5259 74.1136 26.0893L74.8122 24.8202C75.0353 24.3963 75.3113 24.0003 75.5549 23.5942C76.5277 22.0447 77.6398 20.5637 78.881 19.1649L79.3214 18.6572L79.7823 18.1749C80.0934 17.8577 80.387 17.5353 80.7011 17.2332L81.6434 16.3448C81.937 16.0453 82.2893 15.7839 82.6034 15.5072C83.2316 14.9513 83.9127 14.469 84.5468 13.9842L85.539 13.304L86.0263 12.9714L86.5254 12.6669L87.5059 12.0729L88.4893 11.5399L88.9678 11.286L89.4552 11.05L90.4063 10.5956C91.0375 10.3113 91.6628 10.0575 92.2587 9.80874C92.8546 9.55999 93.4506 9.362 94.0201 9.16655L95.6611 8.64113L97.17 8.22485C99.0899 7.73496 100.605 7.44306 101.638 7.27299C102.155 7.19176 102.551 7.13085 102.812 7.09531C102.944 7.06568 103.081 7.05285 103.217 7.05723C103.092 7.10519 102.961 7.14013 102.827 7.1613C102.566 7.21969 102.175 7.30091 101.653 7.40244C100.634 7.61566 99.1339 7.94564 97.2493 8.47106L95.7638 8.91272L94.1463 9.4483C93.5885 9.65137 93.019 9.87981 92.4172 10.1083C91.8154 10.3367 91.2224 10.6159 90.603 10.9104L89.6724 11.3723L89.1939 11.6084L88.7242 11.8622L87.7613 12.3978L86.8072 13.0044L86.3199 13.309L85.8443 13.639L84.8756 14.3167C84.2562 14.8092 83.5927 15.2889 82.9821 15.8397C82.6739 16.1139 82.3392 16.3728 82.0427 16.6697C81.7462 16.9667 81.4321 17.2535 81.1238 17.5531C80.8156 17.8526 80.5367 18.1749 80.2285 18.4872L79.7764 18.9669L79.3478 19.4745C78.1355 20.8592 77.0509 22.3241 76.1039 23.8556C75.8661 24.2567 75.599 24.6476 75.3817 25.0639L74.7036 26.3178L74.0901 27.6174C73.9814 27.8331 73.8875 28.0565 73.7965 28.2824L73.5235 28.9576C72.7916 30.8195 72.2484 32.733 71.9001 34.6764C71.5311 36.7201 71.4032 38.791 71.5185 40.8571C71.6291 43.0091 72.0231 45.1432 72.6927 47.218C73.04 48.2726 73.5122 49.2933 74.1018 50.264C74.3982 50.7516 74.7367 51.2191 75.1146 51.6626C75.4907 52.1087 75.9133 52.5242 76.3769 52.9038C77.3063 53.6718 78.4043 54.2708 79.6061 54.6654C80.8393 55.0588 82.138 55.2773 83.4518 55.3127C86.0948 55.3574 88.7216 54.9458 91.1784 54.1019C93.5785 53.2798 95.8585 52.2166 97.9714 50.9341C100.029 49.7151 101.936 48.3168 103.664 46.7612C105.316 45.2704 106.764 43.6187 107.976 41.8394L108.199 41.5145L108.399 41.182L108.798 40.5195C109.053 40.0753 109.268 39.6184 109.503 39.1742C109.693 38.7122 109.902 38.263 110.075 37.801C110.248 37.339 110.427 36.8796 110.574 36.4151C111.197 34.6351 111.667 32.8179 111.98 30.9781C112.272 29.2643 112.357 27.529 112.236 25.8C112.12 24.2076 111.785 22.6329 111.238 21.1092C111.094 20.7513 110.982 20.3858 110.815 20.0431C110.647 19.7005 110.492 19.3578 110.333 19.0278L109.787 18.0633C109.618 17.7515 109.422 17.4512 109.2 17.1647C108.384 16.08 107.427 15.0801 106.347 14.1848C105.409 13.4064 104.353 12.742 103.209 12.21C102.245 11.775 101.208 11.476 100.135 11.3241C99.272 11.2093 98.3949 11.1974 97.5281 11.2886C96.8927 11.3631 96.2661 11.4854 95.6552 11.6541C95.4086 11.7277 95.1884 11.7835 95.0006 11.8444L94.5397 12.0069C94.4145 12.0588 94.2824 12.0972 94.1463 12.1211Z" fill="#6C2C9E"/>
<path d="M100.731 28.8635C100.519 28.8635 100.164 25.8175 99.9411 22.0101C99.718 18.2027 99.7034 15.1313 99.9147 15.1313C100.126 15.1313 100.478 18.1773 100.704 21.9847C100.93 25.7922 100.939 28.8533 100.731 28.8635Z" fill="#6C2C9E"/>
<path d="M105.492 20.345C105.571 20.5125 103.264 21.4872 100.284 22.3984C97.3046 23.3097 94.8034 23.8173 94.7447 23.6447C94.686 23.4721 97.0697 22.6878 100.029 21.7765C102.988 20.8653 105.413 20.1749 105.492 20.345Z" fill="#6C2C9E"/>
</svg>
