<svg width="19" height="24" viewBox="0 0 19 24" fill="none" xmlns="http://www.w3.org/2000/svg">
<path d="M11.625 1.29639H3.125C2.56141 1.29639 2.02091 1.52193 1.6224 1.9234C1.22388 2.32486 1 2.86937 1 3.43713V20.5631C1 21.1308 1.22388 21.6753 1.6224 22.0768C2.02091 22.4783 2.56141 22.7038 3.125 22.7038H15.875C16.4386 22.7038 16.9791 22.4783 17.3776 22.0768C17.7761 21.6753 18 21.1308 18 20.5631V7.71861L11.625 1.29639Z" stroke="#C7C5D0" stroke-width="2" stroke-linecap="round" stroke-linejoin="round"/>
<path d="M11.625 1.29639V7.71861H18" stroke="#C7C5D0" stroke-width="2" stroke-linecap="round" stroke-linejoin="round"/>
<path d="M13.75 13.0703H5.25" stroke="#C7C5D0" stroke-width="2" stroke-linecap="round" stroke-linejoin="round"/>
<path d="M13.75 17.3521H5.25" stroke="#C7C5D0" stroke-width="2" stroke-linecap="round" stroke-linejoin="round"/>
<path d="M7.375 8.78906H6.3125H5.25" stroke="#C7C5D0" stroke-width="2" stroke-linecap="round" stroke-linejoin="round"/>
</svg>
